<?xml version="1.0" standalone="no"?>
<!DOCTYPE svg PUBLIC "-//W3C//DTD SVG 1.1//EN" "http://www.w3.org/Graphics/SVG/1.1/DTD/svg11.dtd" >
<svg>
<metadata>
Created by FontForge 20090914 at Thu Jan 18 09:22:12 2018
 By www-data
Copyright (c) 2011, Edgar Tolentino, Pablo Impallari, Igino Marini (impallari.com), with Reserved Font Name Dosis.
</metadata>
<defs>
<font id="Dosis-Light" horiz-adv-x="488" >
  <font-face 
    font-family="Dosis"
    font-weight="300"
    font-stretch="normal"
    units-per-em="1000"
    panose-1="2 1 8 3 2 2 2 6 0 3"
    ascent="800"
    descent="-200"
    x-height="471.998"
    cap-height="731"
    bbox="-138 -237.001 1010 1025"
    underline-thickness="26"
    underline-position="-25"
    unicode-range="U+000D-U+FB02"
  />
<missing-glyph horiz-adv-x="328" 
d="M56 106c0 3.33301 1.33301 7.66602 4 12.999l77 117l-77 118c-2.66699 5.33301 -4 9.33301 -4 12c0 6 2.33301 11.167 7 15.5s10.334 6.5 17.001 6.5s12.667 -3.33301 18 -10l66 -103l66 103c4.66699 6.66699 10.667 10 18 10c6 0 11.333 -2.16699 16 -6.5
s7 -9.5 7 -15.5c0 -4.66699 -1.33301 -8.66699 -4 -12l-76 -118l75 -117c2.66699 -3.33301 4 -7.66602 4 -12.999s-2.16699 -10.166 -6.5 -14.499s-9.83301 -6.5 -16.5 -6.5c-7.33301 0 -13 3.33301 -17 10l-66 101l-66 -101c-4.66699 -6.66699 -10.667 -10 -18 -10
c-6.66699 0 -12.334 2.16699 -17.001 6.5s-7 9.16602 -7 14.499z" />
    <glyph glyph-name="uniFB01" unicode="fi" horiz-adv-x="491" 
d="M66 21v559.998c0 48.667 17.667 91.667 53 129s84 56 146 56c36 0 69.667 -6.16699 101 -18.5s47 -26.166 47 -41.499c0 -6 -2.16699 -12 -6.5 -18s-8.83301 -9 -13.5 -9c-3.33301 0 -10 3.5 -20 10.5s-24.167 13.833 -42.5 20.5s-39.5 10 -63.5 10
c-52.667 0 -91.167 -14.5 -115.5 -43.5s-36.5 -60.5 -36.5 -94.5v-110h134c5.33301 0 10 -2.16699 14 -6.5s6 -9.16602 6 -14.499c0 -6 -2 -11.167 -6 -15.5s-8.66699 -6.5 -14 -6.5h-134v-408c0 -6 -2.5 -11 -7.5 -15s-11.167 -6 -18.5 -6c-15.333 0 -23 7 -23 21z
M377 21.998v430c0 13.333 7.66699 20 23 20c7.33301 0 13.5 -1.83301 18.5 -5.5s7.5 -8.5 7.5 -14.5v-430c0 -5.33301 -2.66699 -10.333 -8 -15s-11.333 -7 -18 -7s-12.167 2.33301 -16.5 7s-6.5 9.66699 -6.5 15z" />
    <glyph glyph-name="uniFB02" unicode="fl" horiz-adv-x="500" 
d="M66 21v560c0 55.333 20.333 100 61 134s88.334 51 143.001 51c66 0 118 -23 156 -69v-675c0 -5.33301 -2.5 -10.333 -7.5 -15s-10.833 -7 -17.5 -7s-12.334 2.33301 -17.001 7s-7 9.66699 -7 15v661c-28.667 28.667 -64.667 43 -108 43
c-41.333 0 -77.333 -13.333 -108 -40s-46 -61.334 -46 -104.001v-110h134c5.33301 0 10 -2.16699 14 -6.5s6 -9.16602 6 -14.499c0 -6 -2 -11.167 -6 -15.5s-8.66699 -6.5 -14 -6.5h-134v-408c0 -6 -2.5 -11 -7.5 -15s-11.167 -6 -18.5 -6c-15.333 0 -23 7 -23 21z" />
    <glyph glyph-name=".notdef" horiz-adv-x="328" 
d="M56 106c0 3.33301 1.33301 7.66602 4 12.999l77 117l-77 118c-2.66699 5.33301 -4 9.33301 -4 12c0 6 2.33301 11.167 7 15.5s10.334 6.5 17.001 6.5s12.667 -3.33301 18 -10l66 -103l66 103c4.66699 6.66699 10.667 10 18 10c6 0 11.333 -2.16699 16 -6.5
s7 -9.5 7 -15.5c0 -4.66699 -1.33301 -8.66699 -4 -12l-76 -118l75 -117c2.66699 -3.33301 4 -7.66602 4 -12.999s-2.16699 -10.166 -6.5 -14.499s-9.83301 -6.5 -16.5 -6.5c-7.33301 0 -13 3.33301 -17 10l-66 101l-66 -101c-4.66699 -6.66699 -10.667 -10 -18 -10
c-6.66699 0 -12.334 2.16699 -17.001 6.5s-7 9.16602 -7 14.499z" />
    <glyph glyph-name="NULL" horiz-adv-x="0" 
 />
    <glyph glyph-name="NULL" horiz-adv-x="0" 
 />
    <glyph glyph-name="uni000D" unicode="&#xd;" horiz-adv-x="0" 
 />
    <glyph glyph-name="space" unicode=" " horiz-adv-x="200" 
 />
    <glyph glyph-name="exclam" unicode="!" horiz-adv-x="198" 
d="M59 35c0 11.333 3.83301 21 11.5 29s17.167 12 28.5 12c10.667 0 20 -4 28 -12s12 -17.667 12 -29s-4 -21 -12 -29s-17.333 -12 -28 -12c-11.333 0 -20.833 4 -28.5 12s-11.5 17.667 -11.5 29zM67 712c0 22.667 10.333 34 31 34c9.33301 0 17.166 -3 23.499 -9
s9.5 -14.333 9.5 -25c0 -57.333 -2 -147 -6 -269s-6 -211.667 -6 -269c0 -5.33301 -2.16699 -9.83301 -6.5 -13.5s-9.16602 -5.5 -14.499 -5.5s-10 1.66699 -14 5s-6 8 -6 14c0 57.333 -1.83301 147 -5.5 269s-5.5 211.667 -5.5 269z" />
    <glyph glyph-name="quotedbl" unicode="&#x22;" horiz-adv-x="262" 
d="M41 749c0 5.33301 2.83203 9.83301 8.49902 13.5s11.834 5.5 18.501 5.5s13.167 -1.83301 19.5 -5.5s9.5 -8.16699 9.5 -13.5l-10 -150c0 -14 -6.33301 -21 -19 -21c-11.333 0 -17 7 -17 21zM164.999 749c0 5.33301 3 9.83301 9 13.5s12.333 5.5 19 5.5
s13 -1.83301 19 -5.5s9 -8.16699 9 -13.5l-10 -150c0 -14 -6 -21 -18 -21s-18 7 -18 21z" />
    <glyph glyph-name="numbersign" unicode="#" horiz-adv-x="563" 
d="M29 281c0 5.33301 1.49902 10.002 4.49902 14.002s6.83301 6 11.5 6h113l25 169h-101c-14 0 -21 6.66699 -21 20c0 5.33301 1.5 10 4.5 14s6.83301 6 11.5 6h113l30 190c1.33301 8.66699 7.33301 13 18 13c8 0 14.167 -2.33301 18.5 -7s6.5 -10.334 6.5 -17.001l-28 -179
h131l30 190c1.33301 8.66699 7.33301 13 18 13c8 0 14.167 -2.33301 18.5 -7s6.5 -10.334 6.5 -17.001l-28 -179h103c4.66699 0 9.33398 -2 14.001 -6s7 -8.66699 7 -14s-1.66699 -10 -5 -14s-7 -6 -11 -6h-114l-27 -169h103c5.33301 0 10.333 -2 15 -6s7 -9 7 -15
c0 -5.33301 -1.66699 -9.83301 -5 -13.5s-7.33301 -5.5 -12 -5.5h-115l-31 -209c-2 -11.333 -9.33301 -17 -22 -17c-15.333 0 -23 8 -23 24l31 202h-130l-32 -208c-2 -12 -8.66699 -18 -20 -18c-16 0 -24 8 -24 24l30 202h-100c-14 0 -21 6.66699 -21 20zM202.999 301.002
h130l26 169h-130z" />
    <glyph glyph-name="dollar" unicode="$" horiz-adv-x="489" 
d="M41 108c0 6.66699 2.5 13.0029 7.5 19.0029s10.167 9 15.5 9c4 0 9.83301 -4.33301 17.5 -13s16.5 -18.167 26.5 -28.5s26.5 -20 49.5 -29s49.5 -13.5 79.5 -13.5v315c-24.667 8 -42.5 14.167 -53.5 18.5s-26.167 11.666 -45.5 21.999s-33.5 21.166 -42.5 32.499
s-17.333 26.666 -25 45.999s-11.5 41.333 -11.5 66c0 30 5.16699 56 15.5 78s24.5 39 42.5 51s36.833 21 56.5 27s40.834 9.66699 63.501 11v31c0 4.66699 2 8.83398 6 12.501s9 5.5 15 5.5c5.33301 0 10 -1.83301 14 -5.5s6 -7.83398 6 -12.501v-30
c37.333 -1.33301 71.166 -7.66602 101.499 -18.999s45.5 -23.666 45.5 -36.999c0 -6 -2.33301 -12.333 -7 -19s-10 -10 -16 -10c-3.33301 0 -10 2.83301 -20 8.5s-24.167 11.5 -42.5 17.5s-38.833 9.66699 -61.5 11v-266c24.667 -8.66699 45.167 -17.334 61.5 -26.001
s33.166 -20.834 50.499 -36.501s30.5 -35.667 39.5 -60s13.5 -52.833 13.5 -85.5c0 -58 -14.667 -103 -44 -135s-69.666 -51 -120.999 -57v-40c0 -4.66699 -2 -8.83398 -6 -12.501s-8.66699 -5.5 -14 -5.5c-6 0 -11 1.83301 -15 5.5s-6 7.83398 -6 12.501v38
c-56.667 0 -103.5 12.333 -140.5 37s-55.5 47 -55.5 67zM107 557.003c0 -20.667 3.33301 -38.668 10 -54.001s17 -28.166 31 -38.499s27.333 -18.5 40 -24.5s29.667 -12.667 51 -20v252c-88 -6.66699 -132 -45 -132 -115zM277 55.002c78 11.333 116.999 57.667 116.999 139
c0 44 -10.167 77.5 -30.5 100.5s-49.166 42.167 -86.499 57.5v-297z" />
    <glyph glyph-name="percent" unicode="%" horiz-adv-x="748" 
d="M43 467v154c0 37.333 10.833 65 32.5 83s50.5 27 86.5 27s64.833 -9 86.5 -27s32.5 -45.667 32.5 -83v-154c0 -38 -10.833 -65.833 -32.5 -83.5s-50.5 -26.5 -86.5 -26.5s-64.833 8.83301 -86.5 26.5s-32.5 45.5 -32.5 83.5zM85 467c0 -48 25.667 -72 77 -72
c52 0 78 24 78 72v154c0 48 -26 72 -78 72c-51.333 0 -77 -24 -77 -72v-154zM164 -4c0 4.66699 0.666016 8.33301 1.99902 11l387 751c2.66699 6.66699 8 10 16 10c5.33301 0 10.5 -2.16699 15.5 -6.5s7.5 -9.83301 7.5 -16.5c0 -3.33301 -1 -7 -3 -11l-384 -744
c-4 -8.66699 -10.667 -13 -20 -13c-5.33301 0 -10.166 2 -14.499 6s-6.5 8.33301 -6.5 13zM466.999 106.999v154c0 37.333 10.833 65 32.5 83s50.5 27 86.5 27s64.833 -9 86.5 -27s32.5 -45.667 32.5 -83v-154c0 -38 -10.833 -65.833 -32.5 -83.5s-50.5 -26.5 -86.5 -26.5
s-64.833 8.83301 -86.5 26.5s-32.5 45.5 -32.5 83.5zM508.999 106.999c0 -48 25.667 -72 77 -72c52 0 78 24 78 72v154c0 48 -26 72 -78 72c-51.333 0 -77 -24 -77 -72v-154z" />
    <glyph glyph-name="ampersand" unicode="&#x26;" horiz-adv-x="602" 
d="M38 201c0 48 13.334 88.667 40.001 122s59.334 58.666 98.001 75.999c-17.333 21.333 -30.833 38.833 -40.5 52.5s-19.167 32.5 -28.5 56.5s-14 48.333 -14 73c0 51.333 16.5 92 49.5 122s74.167 45 123.5 45c47.333 0 85 -11 113 -33s42 -41.333 42 -58
c0 -6.66699 -2.16699 -12.167 -6.5 -16.5s-9.83301 -6.5 -16.5 -6.5c-4.66699 0 -10.334 3.66699 -17.001 11s-13.5 15.5 -20.5 24.5s-18.5 17.167 -34.5 24.5s-34.667 11 -56 11c-38 0 -68 -11.667 -90 -35s-33 -54.333 -33 -93c0 -32.667 7.66699 -62.167 23 -88.5
s38 -55.5 68 -87.5l213 -236c23.333 53.333 35.666 118.333 36.999 195c0 16 7.66699 24 23 24c14 0 21 -9.66699 21 -29c0 -85.333 -16 -160.333 -48 -225l94 -102c4 -5.33301 6 -9.66602 6 -12.999c0 -6 -2.33301 -11 -7 -15s-10 -6 -16 -6
c-5.33301 0 -10.333 2.33301 -15 7l-86 92c-46.667 -68.667 -113 -103 -199 -103c-68.667 0 -123 20.333 -163 61s-60 90.667 -60 150zM89.001 206c0 -46.667 16.167 -86.5 48.5 -119.5s76.166 -49.5 131.499 -49.5c70.667 0 123.667 29.667 159 89l-223 240
c-16 -8.66699 -29.167 -16.667 -39.5 -24s-22.166 -17.5 -35.499 -30.5s-23.5 -28.333 -30.5 -46s-10.5 -37.5 -10.5 -59.5z" />
    <glyph glyph-name="quotesingle" unicode="'" horiz-adv-x="138" 
d="M41 749c0 5.33301 2.83203 9.83301 8.49902 13.5s11.834 5.5 18.501 5.5s13.167 -1.83301 19.5 -5.5s9.5 -8.16699 9.5 -13.5l-10 -150c0 -14 -6.33301 -21 -19 -21c-11.333 0 -17 7 -17 21z" />
    <glyph glyph-name="parenleft" unicode="(" horiz-adv-x="289" 
d="M65 147l-0.00195312 440.002c0 49.333 17.333 91.833 52 127.5s77.334 53.5 128.001 53.5c16 0 24 -7.66699 24 -23c0 -6.66699 -2 -12.334 -6 -17.001s-8.66699 -7 -14 -7c-40.667 0 -73 -13.5 -97 -40.5s-36 -58.167 -36 -93.5v-440c0 -44.667 13 -75.834 39 -93.501
s57.333 -26.5 94 -26.5c13.333 0 20 -7.66699 20 -23c0 -16 -8 -24 -24 -24c-53.333 0 -96.666 14.833 -129.999 44.5s-50 70.5 -50 122.5z" />
    <glyph glyph-name="parenright" unicode=")" horiz-adv-x="289" 
d="M20 4c0 15.333 6.99902 22.998 20.999 22.998c36.667 0 68 8.83301 94 26.5s39 48.834 39 93.501v440c0 35.333 -12 66.5 -36 93.5s-56.333 40.5 -97 40.5c-5.33301 0 -10.166 2.33301 -14.499 7s-6.5 10.334 -6.5 17.001c0 6 2.16699 11.333 6.5 16s10.166 7 17.499 7
c50.667 0 93.334 -17.833 128.001 -53.5s52 -78.167 52 -127.5v-440c0 -52 -16.5 -92.833 -49.5 -122.5s-76.167 -44.5 -129.5 -44.5c-16.667 0 -25 8 -25 24z" />
    <glyph glyph-name="asterisk" unicode="*" horiz-adv-x="422" 
d="M36 597c0 6 2.16699 11.667 6.5 17s9.5 8 15.5 8c2.66699 0 4.66699 -0.666992 6 -2l130 -45l-5 135c0 14 7.33301 21 22 21s22 -7 22 -21l-5 -136l130 46c4 1.33301 6.33301 2 7 2c6 0 11 -2.66699 15 -8s6 -11 6 -17c0 -10.667 -4.66699 -17.334 -14 -20.001l-130 -37
l84 -111c2 -3.33301 3 -7 3 -11c0 -6.66699 -2.5 -12.167 -7.5 -16.5s-10.833 -6.5 -17.5 -6.5s-11.667 2.66699 -15 8l-78 114l-78 -115c-4 -4.66699 -8.66699 -7 -14 -7c-6 0 -11.833 2 -17.5 6s-8.5 9.33301 -8.5 16c0 4 1.66699 8.33301 5 13l82 109l-131 38
c-8.66699 2.66699 -13 9.33398 -13 20.001z" />
    <glyph glyph-name="plus" unicode="+" horiz-adv-x="428" 
d="M33 240c0 15.333 6.66699 23 20 23h138v137c0 5.33301 2.16699 10.333 6.5 15s9.83301 7 16.5 7s12.167 -2.16699 16.5 -6.5s6.5 -9.5 6.5 -15.5v-137h136c6 0 11.167 -2.16699 15.5 -6.5s6.5 -9.83301 6.5 -16.5c0 -6 -2.16699 -11.167 -6.5 -15.5s-9.5 -6.5 -15.5 -6.5
h-136v-138c0 -14 -7.66699 -21 -23 -21c-6.66699 0 -12.167 2 -16.5 6s-6.5 9 -6.5 15v138h-138c-13.333 0 -20 7.33301 -20 22z" />
    <glyph glyph-name="comma" unicode="," horiz-adv-x="166" 
d="M42 35c0 11.333 3.83301 21 11.5 29s17.167 12 28.5 12c10.667 0 20.167 -3.83301 28.5 -11.5s12.5 -17.834 12.5 -30.501c0 -11.333 -11.667 -45.666 -35 -102.999c-3.33301 -7.33301 -9 -11 -17 -11c-13.333 0 -20 5.33301 -20 16c0 3.33301 0.333008 6.33301 1 9
l19 51c-19.333 6 -29 19 -29 39z" />
    <glyph glyph-name="hyphen" unicode="-" horiz-adv-x="400" 
d="M49 240c0 6.66699 2 12.167 6 16.5s9 6.5 15 6.5h260c5.33301 0 10.166 -2.16699 14.499 -6.5s6.5 -9.83301 6.5 -16.5s-2.16699 -12 -6.5 -16s-9.16602 -6 -14.499 -6h-260c-6 0 -11 2 -15 6s-6 9.33301 -6 16z" />
    <glyph glyph-name="period" unicode="." horiz-adv-x="165" 
d="M42 35c0 11.333 3.83301 21 11.5 29s17.5 12 29.5 12c10.667 0 20 -4.16699 28 -12.5s12 -17.833 12 -28.5s-4 -20.167 -12 -28.5s-17.333 -12.5 -28 -12.5c-12 0 -21.833 4 -29.5 12s-11.5 17.667 -11.5 29z" />
    <glyph glyph-name="slash" unicode="/" horiz-adv-x="470" 
d="M21 -4c0 4.66699 0.666992 8.33301 2 11l386 751c3.33301 6.66699 9 10 17 10c5.33301 0 10.5 -2.16699 15.5 -6.5s7.5 -9.83301 7.5 -16.5c0 -4 -1.33301 -7.66699 -4 -11l-383 -744c-4.66699 -8.66699 -11.667 -13 -21 -13c-5.33301 0 -10 1.83301 -14 5.5
s-6 8.16699 -6 13.5z" />
    <glyph glyph-name="zero" unicode="0" horiz-adv-x="527" 
d="M62 204v317c0 72.667 18.167 125.834 54.5 159.501s85.166 50.5 146.499 50.5c60.667 0 109.5 -16.833 146.5 -50.5s55.5 -86.834 55.5 -159.501v-317c0 -72.667 -18.5 -125.834 -55.5 -159.501s-85.833 -50.5 -146.5 -50.5c-61.333 0 -110.166 16.833 -146.499 50.5
s-54.5 86.834 -54.5 159.501zM112 204c0 -108 50.333 -162 151 -162c48.667 0 86.167 13.5 112.5 40.5s39.5 67.5 39.5 121.5v317c0 54 -13.167 94.5 -39.5 121.5s-63.833 40.5 -112.5 40.5c-100.667 0 -151 -54 -151 -162v-317zM230 362
c0 9.33301 3.16699 17.166 9.5 23.499s14.5 9.5 24.5 9.5c9.33301 0 17.166 -3.16699 23.499 -9.5s9.5 -14.166 9.5 -23.499s-3.16699 -17.333 -9.5 -24s-14.166 -10 -23.499 -10c-10 0 -18.167 3.33301 -24.5 10s-9.5 14.667 -9.5 24z" />
    <glyph glyph-name="one" unicode="1" horiz-adv-x="220" 
d="M16 567c0 7.33301 4 16 12 26l74 122c6 10.667 14 16 24 16c14.667 0 22 -7 22 -21v-688c0 -14.667 -8.33301 -22 -25 -22s-25 7.33301 -25 22v607l-42 -72c-4 -8.66699 -10 -13 -18 -13c-6 0 -11.167 2.33301 -15.5 7s-6.5 10 -6.5 16z" />
    <glyph glyph-name="two" unicode="2" horiz-adv-x="468" 
d="M37 22l0.00195312 97.001c0 26 8.5 51.5 25.5 76.5s38.167 47.167 63.5 66.5l82 62l82 63c24.667 20 45.5 43.333 62.5 70s25.5 54.334 25.5 83.001c0 38 -12.667 71.333 -38 100s-61 43 -107 43c-38.667 0 -69.834 -10.833 -93.501 -32.5s-35.5 -52.834 -35.5 -93.501
c0 -5.33301 -2.33301 -10.166 -7 -14.499s-11.334 -6.5 -20.001 -6.5c-15.333 0 -23 11.333 -23 34c0 46 17.167 84.333 51.5 115s77.5 46 129.5 46c56.667 0 103 -18.333 139 -55s54 -81.334 54 -134.001c0 -33.333 -8.5 -65.333 -25.5 -96s-38 -56.667 -63 -78
s-52.167 -43.333 -81.5 -66l-82 -59c-25.333 -17.333 -46.5 -37 -63.5 -59s-25.5 -43.667 -25.5 -65v-71h330c5.33301 0 10 -2.33301 14 -7s6 -10.334 6 -17.001c0 -6 -2.16699 -11.5 -6.5 -16.5s-8.83301 -7.5 -13.5 -7.5h-356c-6 0 -11.5 2 -16.5 6s-7.5 9.33301 -7.5 16z
" />
    <glyph glyph-name="three" unicode="3" horiz-adv-x="480" 
d="M31 155c0 20.667 7.66699 31.001 23 31.001c17.333 0 26 -8 26 -24c0 -28.667 11.667 -55.834 35 -81.501s61.666 -38.5 114.999 -38.5c102.667 0 154 53.333 154 160v19c0 46.667 -13.333 82 -40 106s-63.667 36 -111 36c-14.667 0 -22 7.66699 -22 23s7 23 21 23
c45.333 0 79 10.333 101 31s33 55.667 33 105c0 46.667 -10.5 81.5 -31.5 104.5s-53.833 34.5 -98.5 34.5c-50.667 0 -86.167 -12 -106.5 -36s-30.5 -51 -30.5 -81c0 -18.667 -8.33301 -28 -25 -28c-9.33301 0 -15.833 2.5 -19.5 7.5s-5.5 13.833 -5.5 26.5
c0 15.333 2.66699 31 8 47s14.5 32.833 27.5 50.5s32.833 32.167 59.5 43.5s58.334 17 95.001 17c117.333 0 176 -58.333 176 -175c0 -86 -27.667 -142.667 -83 -170c68 -28.667 102 -83.667 102 -165v-19c0 -71.333 -18.5 -123.833 -55.5 -157.5s-85.5 -50.5 -145.5 -50.5
c-63.333 0 -112.833 16.5 -148.5 49.5s-53.5 70.167 -53.5 111.5z" />
    <glyph glyph-name="four" unicode="4" horiz-adv-x="429" 
d="M9 197c0 4.66699 1.33301 9.66699 4 15l254 502c6 11.333 14.333 17 25 17c6 0 11.5 -2 16.5 -6s7.5 -9 7.5 -15c0 -4 -1 -8 -3 -12l-240 -474h215v215c0 13.333 8.33301 20 25 20s25 -6.66699 25 -20v-215h57c14.667 0 22 -8 22 -24c0 -6.66699 -2 -12.5 -6 -17.5
s-9.33301 -7.5 -16 -7.5h-57v-153c0 -14.667 -8.33301 -22 -25 -22s-25 7.33301 -25 22v153h-257c-14.667 0 -22 7.33301 -22 22z" />
    <glyph glyph-name="five" unicode="5" horiz-adv-x="467" 
d="M30 161c0 17.333 7.99902 26 23.999 26c17.333 0 26 -7.33301 26 -22c0 -38 14.333 -68 43 -90s64.667 -33 108 -33c48.667 0 86.167 13.333 112.5 40s39.5 67 39.5 121v19c0 52 -13.167 91 -39.5 117s-63.5 39 -111.5 39h-137c-19.333 0 -29 6.66699 -29 20
c0 1.33301 0.166992 4.33301 0.5 9s0.5 7.66699 0.5 9l19 293c1.33301 14.667 7.66602 22 18.999 22h273c12.667 0 19 -8 19 -24s-6.33301 -24 -19 -24h-245l-18 -259h117c60.667 0 109.334 -16.333 146.001 -49s55 -83.667 55 -153v-19c0 -72 -18.5 -124.833 -55.5 -158.5
s-85.833 -50.5 -146.5 -50.5c-61.333 0 -110.166 16 -146.499 48s-54.5 71.667 -54.5 119z" />
    <glyph glyph-name="six" unicode="6" horiz-adv-x="511" 
d="M62 204l-0.00195312 317c0 72.667 18.5 125.834 55.5 159.501s86.167 50.5 147.5 50.5s110 -16.333 146 -49s54 -72.334 54 -119.001c0 -16.667 -7.66699 -25 -23 -25c-18 0 -27 7.66699 -27 23c0 36 -14.5 65.333 -43.5 88s-64.833 34 -107.5 34
c-100.667 0 -151 -54 -151 -162v-164c32.667 47.333 84.334 71 155.001 71c131.333 0 197 -66 197 -198v-26c0 -72.667 -18.167 -125.834 -54.5 -159.501s-85.166 -50.5 -146.499 -50.5c-60.667 0 -109.5 16.833 -146.5 50.5s-55.5 86.834 -55.5 159.501zM112.998 202
c0 -107.333 50.333 -161 151 -161s151 53.667 151 161v27c0 54 -12.833 93 -38.5 117s-63.167 36 -112.5 36c-100.667 0 -151 -48 -151 -144v-36z" />
    <glyph glyph-name="seven" unicode="7" horiz-adv-x="450" 
d="M30 560l0.000976562 149c0 5.33301 2.5 10.333 7.5 15s10.5 7 16.5 7h355c5.33301 0 10.666 -2.33301 15.999 -7s8 -9.66699 8 -15v-78c0 -6 -2 -12 -6 -18l-308 -602c-4.66699 -8 -10.667 -12 -18 -12c-8 0 -15 2.16699 -21 6.5s-9 9.83301 -9 16.5
c0 2 1.33301 6.33301 4 13l308 597v51h-303v-123c0 -6 -2.5 -11.167 -7.5 -15.5s-10.833 -6.5 -17.5 -6.5s-12.5 2.16699 -17.5 6.5s-7.5 9.5 -7.5 15.5z" />
    <glyph glyph-name="eight" unicode="8" horiz-adv-x="494" 
d="M46 200v12c0 95.333 35.333 157.333 106 186c-58 25.333 -87 78.333 -87 159c0 116 60.667 174 182 174c122 0 183 -58 183 -174c0 -80.667 -29 -133.667 -87 -159c70 -28.667 105 -90.667 105 -186v-12c0 -70.667 -18.167 -122.667 -54.5 -156s-85.166 -50 -146.499 -50
c-60.667 0 -109.334 16.667 -146.001 50s-55 85.333 -55 156zM96 202c0 -54 13.333 -94.499 40 -121.499s64 -40.5 112 -40.5s85 13.667 111 41s39 67.666 39 120.999v13c0 106 -50.333 159 -151 159s-151 -53 -151 -159v-13zM115 554.001c0 -88.667 44 -133 132 -133
c88.667 0 133 44.333 133 133c0 87.333 -44.333 131 -133 131c-88 0 -132 -43.667 -132 -131z" />
    <glyph glyph-name="nine" unicode="9" horiz-adv-x="510" 
d="M46 162c0 16.667 7.66699 25 23 25c17.333 0 26 -7.66699 26 -23c0 -36 14.667 -65.333 44 -88s65.333 -34 108 -34c100.667 0 151 54 151 162v164c-32.667 -47.333 -84.667 -71 -156 -71c-130.667 0 -196 66 -196 198v26c0 72.667 18.167 125.834 54.5 159.501
s84.833 50.5 145.5 50.5c61.333 0 110.333 -16.833 147 -50.5s55 -86.834 55 -159.501v-317c0 -72.667 -18.333 -125.834 -55 -159.501s-85.667 -50.5 -147 -50.5s-110 16.333 -146 49s-54 72.334 -54 119.001zM96 496c0 -54 12.833 -93 38.5 -117s63.167 -36 112.5 -36
c100.667 0 151 48 151 144v36c0 54 -13.167 94.333 -39.5 121s-63.833 40 -112.5 40c-48 0 -85 -13.333 -111 -40s-39 -67 -39 -121v-27z" />
    <glyph glyph-name="colon" unicode=":" horiz-adv-x="199" 
d="M59 35c0 11.333 3.83301 21 11.5 29s17.5 12 29.5 12c10.667 0 20 -4.16699 28 -12.5s12 -17.833 12 -28.5s-4 -20.167 -12 -28.5s-17.333 -12.5 -28 -12.5c-12 0 -21.833 4 -29.5 12s-11.5 17.667 -11.5 29zM59 381c0 11.333 3.83301 21 11.5 29s17.5 12 29.5 12
c10.667 0 20 -4.16699 28 -12.5s12 -17.833 12 -28.5s-4 -20.167 -12 -28.5s-17.333 -12.5 -28 -12.5c-12 0 -21.833 4 -29.5 12s-11.5 17.667 -11.5 29z" />
    <glyph glyph-name="semicolon" unicode=";" horiz-adv-x="202" 
d="M60 35c0 11.333 3.83301 21 11.5 29s17.167 12 28.5 12c10.667 0 20.167 -3.83301 28.5 -11.5s12.5 -17.834 12.5 -30.501c0 -11.333 -11.667 -45.666 -35 -102.999c-3.33301 -7.33301 -9 -11 -17 -11c-13.333 0 -20 5.33301 -20 16c0 3.33301 0.333008 6.33301 1 9
l19 51c-19.333 6 -29 19 -29 39zM62 381c0 11.333 3.83301 21 11.5 29s17.5 12 29.5 12c10.667 0 20 -4.16699 28 -12.5s12 -17.833 12 -28.5s-4 -20.167 -12 -28.5s-17.333 -12.5 -28 -12.5c-12 0 -21.833 4 -29.5 12s-11.5 17.667 -11.5 29z" />
    <glyph glyph-name="less" unicode="&#x3c;" horiz-adv-x="396" 
d="M27 277c0 10.667 4.33301 18.335 13 23.002l272 180c2.66699 2.66699 6 4 10 4c6 0 11.667 -2.33301 17 -7s8 -10.334 8 -17.001c0 -7.33301 -3.33301 -13.333 -10 -18l-248 -165l248 -164c6.66699 -4.66699 10 -10.667 10 -18c0 -6.66699 -2.66699 -12.334 -8 -17.001
s-11 -7 -17 -7c-4 0 -7.33301 1.33301 -10 4l-272 180c-8.66699 4.66699 -13 12 -13 22z" />
    <glyph glyph-name="equal" unicode="=" horiz-adv-x="433" 
d="M70 171c0 6.66699 2 12.334 6 17.001s9 7 15 7h251c5.33301 0 10.166 -2.33301 14.499 -7s6.5 -10.334 6.5 -17.001c0 -6 -2.16699 -11.167 -6.5 -15.5s-9.16602 -6.5 -14.499 -6.5h-251c-6 0 -11 2 -15 6s-6 9.33301 -6 16zM70 374c0 6.66699 2 12.334 6 17.001
s9 7 15 7h251c5.33301 0 10.166 -2.33301 14.499 -7s6.5 -10.334 6.5 -17.001s-2.16699 -12 -6.5 -16s-9.16602 -6 -14.499 -6h-251c-6 0 -11 2 -15 6s-6 9.33301 -6 16z" />
    <glyph glyph-name="greater" unicode="&#x3e;" horiz-adv-x="396" 
d="M49 95c0 7.33301 3.33301 13.3311 10 17.998l248 164l-248 165c-6.66699 4.66699 -10 10.667 -10 18c0 6.66699 2.5 12.334 7.5 17.001s10.5 7 16.5 7c4 0 7.66699 -1.33301 11 -4l272 -180c8.66699 -6 13 -13.667 13 -23c0 -10 -4.33301 -17.333 -13 -22l-272 -180
c-3.33301 -2.66699 -7 -4 -11 -4c-6 0 -11.5 2.33301 -16.5 7s-7.5 10.334 -7.5 17.001z" />
    <glyph glyph-name="question" unicode="?" horiz-adv-x="391" 
d="M24 679c0 15.333 14.832 30.335 44.499 45.002s63.5 22 101.5 22c60 0 105.833 -16.833 137.5 -50.5s47.5 -76.834 47.5 -129.501c0 -30 -5.66699 -58.5 -17 -85.5s-23.333 -47.5 -36 -61.5s-28.667 -30.333 -48 -49s-31.666 -31.334 -36.999 -38.001
c-13.333 -15.333 -21.666 -33.833 -24.999 -55.5s-5 -55.5 -5 -101.5c0 -13.333 -7.33301 -20 -22 -20c-14 0 -21 7.66699 -21 23c0 54 3 93.5 9 118.5s15.667 44.833 29 59.5c5.33301 6 17.5 18 36.5 36s33.833 33 44.5 45s21 29.5 31 52.5s15 47.5 15 73.5
c0 44 -12.167 78.167 -36.5 102.5s-59.833 36.5 -106.5 36.5c-25.333 0 -46.5 -3.66699 -63.5 -11s-29.833 -14.833 -38.5 -22.5s-15.334 -11.5 -20.001 -11.5s-9.16699 2.16699 -13.5 6.5s-6.5 9.5 -6.5 15.5zM124.999 35.002c0 11.333 4 21 12 29s17.333 12 28 12
s20 -4 28 -12s12 -17.667 12 -29s-3.83301 -21 -11.5 -29s-17.167 -12 -28.5 -12s-20.833 4 -28.5 12s-11.5 17.667 -11.5 29z" />
    <glyph glyph-name="at" unicode="@" horiz-adv-x="710" 
d="M57 218c0 100 25.335 181.165 76.002 243.498s128 93.5 232 93.5c96.667 0 171 -27.5 223 -82.5s78 -134.167 78 -237.5c0 -57.333 -8.83301 -104.666 -26.5 -141.999s-46.834 -56 -87.501 -56c-23.333 0 -44 6.16699 -62 18.5s-29.333 26.833 -34 43.5
c-18.667 -18.667 -36.667 -32 -54 -40s-39.666 -12 -66.999 -12c-84 0 -126 35.667 -126 107c0 42.667 16 71.834 48 87.501s81 23.5 147 23.5h46v20c0 58.667 -34.333 88 -103 88c-26 0 -47.667 -3.83301 -65 -11.5s-27 -11.5 -29 -11.5c-5.33301 0 -9.83301 2.5 -13.5 7.5
s-5.5 9.83301 -5.5 14.5c0 12 13.167 22.333 39.5 31s54.166 13 83.499 13c44 0 77.833 -11 101.5 -33s35.5 -53 35.5 -93v-165c1.33301 -14 8.16602 -26 20.499 -36s25.833 -15 40.5 -15c25.333 0 43.333 15.5 54 46.5s16 67.833 16 110.5c0 89.333 -22 158.5 -66 207.5
s-109.667 73.5 -197 73.5c-48 0 -89.667 -8 -125 -24s-62.833 -38 -82.5 -66s-34 -58.833 -43 -92.5s-13.5 -70.5 -13.5 -110.5c0 -78.667 18.667 -144 56 -196s96.333 -78 177 -78c36 0 69 5 99 15l45 16c4.66699 0 8.83398 -1.83301 12.501 -5.5s5.5 -7.5 5.5 -11.5
c0 -12 -18 -24.167 -54 -36.5s-73.667 -18.5 -113 -18.5c-36 0 -69.667 6.16699 -101 18.5s-59.833 30.833 -85.5 55.5s-45.834 57.667 -60.501 99s-22 88.333 -22 141zM254.002 152.998c0 -22.667 7.66602 -39.666 22.999 -50.999s35.333 -17 60 -17
c34 0 61.5 8.5 82.5 25.5s31.5 35.5 31.5 55.5v62h-44c-24.667 0 -45 -0.833008 -61 -2.5s-31.667 -4.83398 -47 -9.50098s-26.666 -12.167 -33.999 -22.5s-11 -23.833 -11 -40.5z" />
    <glyph glyph-name="A" unicode="A" horiz-adv-x="530" 
d="M23 22c0 2.66699 0.333008 4.66699 1 6l214 691c4 12 13.333 18 28 18s24 -6 28 -18l212 -691c0 -0.666992 0.166992 -1.5 0.5 -2.5s0.5 -2.16699 0.5 -3.5c0 -6 -3 -11.167 -9 -15.5s-12.667 -6.5 -20 -6.5c-10.667 0 -17.334 5 -20.001 15l-49 159h-288l-48 -159
c-3.33301 -10 -10.666 -15 -21.999 -15c-7.33301 0 -13.833 2 -19.5 6s-8.5 9.33301 -8.5 16zM134 220h261l-129 427z" />
    <glyph glyph-name="B" unicode="B" horiz-adv-x="532" 
d="M79 21l-0.000976562 688.001c0 14.667 8 22 24 22h156c65.333 0 115.833 -11.833 151.5 -35.5s53.5 -67.834 53.5 -132.501c0 -42 -7.66699 -77.5 -23 -106.5s-36 -49.167 -62 -60.5c33.333 -14 58.833 -34.333 76.5 -61s26.5 -64.334 26.5 -113.001v-18
c0 -71.333 -17.833 -123.166 -53.5 -155.499s-83.5 -48.5 -143.5 -48.5h-182c-7.33301 0 -13.166 2 -17.499 6s-6.5 9 -6.5 15zM128.999 48.001l152 -0.000976562c100.667 0 151 52.667 151 158v17c0 52.667 -12.833 90.834 -38.5 114.501s-63.167 35.5 -112.5 35.5h-152
v-325zM128.999 419h134.999c52.667 0 90.834 10.5 114.501 31.5s35.5 57.167 35.5 108.5c0 48 -13 80.667 -39 98s-64.333 26 -115 26h-131v-264z" />
    <glyph glyph-name="C" unicode="C" horiz-adv-x="517" 
d="M72 204l-0.000976562 317.003c0 72 18.833 125 56.5 159s86.834 51 147.501 51c61.333 0 109.833 -15.833 145.5 -47.5s53.5 -69.834 53.5 -114.501c0 -12.667 -2 -21.334 -6 -26.001s-10.333 -7 -19 -7c-16.667 0 -25 7 -25 21c-0.666992 14 -3.16699 27.167 -7.5 39.5
s-11.333 25.666 -21 39.999s-24.834 25.666 -45.501 33.999s-45.667 12.5 -75 12.5c-102.667 0 -154 -54 -154 -162v-317c0 -108 52.333 -162 157 -162c24 0 44.833 3 62.5 9s31.334 12.833 41.001 20.5s17.667 18.334 24 32.001s10.5 24.5 12.5 32.5s4 19 6 33
c1.33301 14 9.33301 21 24 21c9.33301 0 16 -2.33301 20 -7s6 -13.667 6 -27c0 -44 -18.167 -82 -54.5 -114s-85.5 -48 -147.5 -48c-60 0 -108.5 17 -145.5 51s-55.5 87 -55.5 159z" />
    <glyph glyph-name="D" unicode="D" horiz-adv-x="554" 
d="M79 21v689.004c0 5.33301 2.33301 10.166 7 14.499s10.334 6.5 17.001 6.5h177c60.667 0 109.5 -16.833 146.5 -50.5s55.5 -86.834 55.5 -159.501v-311c0 -72.667 -18.5 -125.834 -55.5 -159.501s-85.833 -50.5 -146.5 -50.5h-177
c-6.66699 0 -12.334 2.16699 -17.001 6.5s-7 9.16602 -7 14.499zM129 48.0039h151c48.667 0 86.167 13.5 112.5 40.5s39.5 67.5 39.5 121.5v311c0 54 -13.167 94.5 -39.5 121.5s-63.833 40.5 -112.5 40.5h-151v-635z" />
    <glyph glyph-name="E" unicode="E" horiz-adv-x="503" 
d="M79 22v687.001c0 14.667 8 22 24 22h356c14 0 21 -7.66699 21 -23c0 -6.66699 -2 -12.5 -6 -17.5s-9 -7.5 -15 -7.5h-330v-294h159c6 0 11 -2.33301 15 -7s6 -10.334 6 -17.001c0 -14.667 -7 -22 -21 -22h-159v-295h330c6 0 11 -2.5 15 -7.5s6 -10.833 6 -17.5
c0 -15.333 -7 -23 -21 -23h-356c-16 -0 -24 7.33301 -24 22z" />
    <glyph glyph-name="F" unicode="F" horiz-adv-x="492" 
d="M79 21l-0.000976562 688.001c0 14.667 8 22 24 22h355c6.66699 0 11.834 -2.33301 15.501 -7s5.5 -10 5.5 -16c0 -6.66699 -2 -12.5 -6 -17.5s-9 -7.5 -15 -7.5h-329v-294h159c6 0 11 -2.33301 15 -7s6 -10.334 6 -17.001c0 -14.667 -7 -22 -21 -22h-159v-322
c0 -14 -8.33301 -21 -25 -21s-25 7 -25 21z" />
    <glyph glyph-name="G" unicode="G" horiz-adv-x="536" 
d="M72 204l-0.000976562 316.999c0 72.667 18.167 125.834 54.5 159.501s84.833 50.5 145.5 50.5c62 0 111.333 -15.833 148 -47.5s55 -72.167 55 -121.5c0 -17.333 -8.33301 -26 -25 -26c-16 0 -24.333 7 -25 21c-11.333 84 -62 126 -152 126
c-100.667 0 -151 -54 -151 -162v-317c0 -108 50.333 -162 151 -162c48.667 0 86.167 13.5 112.5 40.5s39.5 67.5 39.5 121.5v134h-148c-6 0 -10.833 2.33301 -14.5 7s-5.5 10 -5.5 16s1.83301 11.333 5.5 16s8.5 7 14.5 7h177c6 0 11 -2.33301 15 -7s6 -10 6 -16v-157
c0 -72.667 -18.5 -125.834 -55.5 -159.501s-85.833 -50.5 -146.5 -50.5c-61.333 0 -110.166 16.833 -146.499 50.5s-54.5 86.834 -54.5 159.501z" />
    <glyph glyph-name="H" unicode="H" horiz-adv-x="563" 
d="M79 22v688c0 14 8.33301 21 25 21s25 -7 25 -21v-308h305v308c0 14 8.33301 21 25 21s25 -7 25 -21v-688c0 -14.667 -8.33301 -22 -25 -22s-25 7.33301 -25 22v334h-305v-334c0 -14.667 -8.33301 -22 -25 -22s-25 7.33301 -25 22z" />
    <glyph glyph-name="I" unicode="I" horiz-adv-x="208" 
d="M79 22v688c0 14 8.33301 21 25 21s25 -7 25 -21v-688c0 -14.667 -8.33301 -22 -25 -22s-25 7.33301 -25 22z" />
    <glyph glyph-name="J" unicode="J" horiz-adv-x="503" 
d="M24 164c0 17.333 8.33301 26.001 25 26.001s25 -7 25 -21c0.666992 -40.667 15 -72 43 -94s64.333 -33 109 -33c100.667 0 151 54 151 162v479h-150c-14 0 -21 8.33301 -21 25c0 15.333 7 23 21 23h176c16 0 24 -7.33301 24 -22v-505
c0 -72.667 -18.167 -125.834 -54.5 -159.501s-84.833 -50.5 -145.5 -50.5c-61.333 0 -110.5 16 -147.5 48s-55.5 72.667 -55.5 122z" />
    <glyph glyph-name="K" unicode="K" horiz-adv-x="514" 
d="M79 22l-0.000976562 688.001c0 14 8.33301 21 25 21s25 -7 25 -21v-374l307 387c3.33301 5.33301 9 8 17 8c6.66699 0 12.834 -2.66699 18.501 -8s8.5 -11.333 8.5 -18c0 -5.33301 -1.66699 -9.33301 -5 -12l-223 -278l252 -380c2.66699 -2.66699 4 -6.33398 4 -11.001
c0 -6.66699 -2.83301 -12.5 -8.5 -17.5s-12.167 -7.5 -19.5 -7.5c-8 0 -14.333 4 -19 12l-242 362l-90 -112v-239c0 -14.667 -8.33301 -22 -25 -22s-25 7.33301 -25 22z" />
    <glyph glyph-name="L" unicode="L" horiz-adv-x="457" 
d="M79 22v688c0 14 8.33301 21 25 21s25 -7 25 -21v-662h295c12.667 0 19 -8 19 -24s-6.33301 -24 -19 -24h-321c-16 -0 -24 7.33301 -24 22z" />
    <glyph glyph-name="M" unicode="M" horiz-adv-x="659" 
d="M79 22l0.000976562 685c0 16 8.33301 24 25 24c13.333 0 27.333 -13.667 42 -41l183 -358l184 358c14.667 27.333 28.667 41 42 41c16.667 0 25 -8 25 -24v-685c0 -14.667 -8.33301 -22 -25 -22s-25 7.33301 -25 22v595l-178 -340c-8 -14 -15.667 -21 -23 -21
c-8.66699 0 -16.334 7 -23.001 21l-177 341v-596c0 -14.667 -8.33301 -22 -25 -22s-25 7.33301 -25 22z" />
    <glyph glyph-name="N" unicode="N" horiz-adv-x="563" 
d="M79 22l-0.000976562 688c0 14 8.33301 21 25 21c12.667 0 26.334 -13.667 41.001 -41l289 -571v591c0 14 8.33301 21 25 21s25 -7 25 -21v-688c0 -14.667 -8.33301 -22 -25 -22c-10.667 -0 -22.667 12.333 -36 37l-294 576v-591c0 -14.667 -8.33301 -22 -25 -22
s-25 7.33301 -25 22z" />
    <glyph glyph-name="O" unicode="O" horiz-adv-x="547" 
d="M72 204v317c0 72.667 18.167 125.834 54.5 159.501s85.166 50.5 146.499 50.5c60.667 0 109.5 -16.833 146.5 -50.5s55.5 -86.834 55.5 -159.501v-317c0 -72.667 -18.5 -125.834 -55.5 -159.501s-85.833 -50.5 -146.5 -50.5c-61.333 0 -110.166 16.833 -146.499 50.5
s-54.5 86.834 -54.5 159.501zM122 204c0 -108 50.333 -162 151 -162c48.667 0 86.167 13.5 112.5 40.5s39.5 67.5 39.5 121.5v317c0 54 -13.167 94.5 -39.5 121.5s-63.833 40.5 -112.5 40.5c-100.667 0 -151 -54 -151 -162v-317z" />
    <glyph glyph-name="P" unicode="P" horiz-adv-x="519" 
d="M79 22l-0.000976562 688c0 12.667 7.66699 19.667 23 21h180c60.667 0 109.334 -16.833 146.001 -50.5s55 -86.5 55 -158.5v-11c0 -72 -18.5 -125 -55.5 -159s-85.833 -51 -146.5 -51h-152v-279c0 -14.667 -8.33301 -22 -25 -22s-25 7.33301 -25 22zM128.999 347h152
c48.667 0 86.167 13.5 112.5 40.5s39.5 67.833 39.5 122.5v11c0 54 -13.167 94.5 -39.5 121.5s-63.833 40.5 -112.5 40.5h-152v-336z" />
    <glyph glyph-name="Q" unicode="Q" horiz-adv-x="547" 
d="M72 204l-0.00195312 317c0 72.667 18.167 125.834 54.5 159.501s85.166 50.5 146.499 50.5c60.667 0 109.5 -16.833 146.5 -50.5s55.5 -86.834 55.5 -159.501v-317c0 -68.667 -16.167 -119.834 -48.5 -153.501s-76.166 -52.167 -131.499 -55.5v-82
c0 -7.33301 -2.16699 -12.833 -6.5 -16.5s-9.16602 -5.5 -14.499 -5.5c-14.667 0 -22 7.33301 -22 22v82c-55.333 3.33301 -99.166 21.833 -131.499 55.5s-48.5 84.834 -48.5 153.501zM121.998 204c0 -100 43.333 -153.666 130 -160.999v79c0 14 7.33301 21 22 21
c14 0 21 -7 21 -21v-78c86.667 7.33301 130 60.666 130 159.999v317c0 54 -13.167 94.5 -39.5 121.5s-63.833 40.5 -112.5 40.5c-100.667 0 -151 -54 -151 -162v-317z" />
    <glyph glyph-name="R" unicode="R" horiz-adv-x="516" 
d="M79 22v688c0 6 2 11 6 15s9.33301 6 16 6h171c62.667 0 113.5 -15.167 152.5 -45.5s58.5 -79.833 58.5 -148.5c0 -112 -54.333 -175.667 -163 -191l160 -310c2 -4 3 -8 3 -12c0 -6.66699 -2.5 -12.5 -7.5 -17.5s-11.5 -7.5 -19.5 -7.5s-18.333 11.667 -31 35l-157 307
h-139v-319c0 -14.667 -8.33301 -22 -25 -22s-25 7.33301 -25 22zM129 387h143c107.333 0 161 49.667 161 149c0 98 -53.667 147 -161 147h-143v-296z" />
    <glyph glyph-name="S" unicode="S" horiz-adv-x="487" 
d="M39 98c0 6.66699 2.5 13.0029 7.5 19.0029s10.167 9 15.5 9c4 0 10 -4.33301 18 -13l27 -29c10 -10.667 26.167 -20.334 48.5 -29.001s48.166 -13 77.499 -13c51.333 0 90.666 12.667 117.999 38s41 62.666 41 111.999c0 37.333 -8.33301 68.333 -25 93
s-37.334 42.334 -62.001 53.001s-51.5 21.667 -80.5 33s-55.833 22.5 -80.5 33.5s-45.334 29.167 -62.001 54.5s-25 57.333 -25 96c0 34.667 6.33301 64.167 19 88.5s29.667 42.666 51 54.999s42.833 21 64.5 26s44.834 7.5 69.501 7.5c40 0 77.167 -5.83301 111.5 -17.5
s51.5 -24.834 51.5 -39.501c0 -6 -2.33301 -12.333 -7 -19s-10 -10 -16 -10c-3.33301 0 -10.666 3.16699 -21.999 9.5s-27.5 12.666 -48.5 18.999s-44.5 9.5 -70.5 9.5c-43.333 0 -79.666 -9.5 -108.999 -28.5s-44 -51.167 -44 -96.5
c0 -27.333 6.16699 -50.166 18.5 -68.499s28.333 -32.5 48 -42.5s41.334 -19 65.001 -27s47.5 -17 71.5 -27s45.833 -22.333 65.5 -37s35.667 -35.5 48 -62.5s18.5 -59.5 18.5 -97.5c0 -68 -18.5 -118.833 -55.5 -152.5s-86.5 -50.5 -148.5 -50.5
c-57.333 0 -104.833 12.333 -142.5 37s-56.5 47 -56.5 67z" />
    <glyph glyph-name="T" unicode="T" horiz-adv-x="468" 
d="M15 707c0 6.66699 2 12.332 6 16.999s9 7 15 7h396c14 0 21 -7.66699 21 -23c0 -16.667 -7 -25 -21 -25h-172v-661c0 -14.667 -8.33301 -22 -25 -22s-25 7.33301 -25 22v661h-174c-6 0 -11 2.33301 -15 7s-6 10.334 -6 17.001z" />
    <glyph glyph-name="U" unicode="U" horiz-adv-x="557" 
d="M76 204l-0.000976562 506c0 14 8.33301 21 25 21s25 -7 25 -21v-506c0 -54 13.167 -94.5 39.5 -121.5s63.833 -40.5 112.5 -40.5s86.334 13.5 113.001 40.5s40 67.5 40 121.5v506c0 14 8.33301 21 25 21s25 -7 25 -21v-506c0 -72.667 -18.5 -125.834 -55.5 -159.501
s-86.167 -50.5 -147.5 -50.5s-110.333 16.833 -147 50.5s-55 86.834 -55 159.501z" />
    <glyph glyph-name="V" unicode="V" horiz-adv-x="528" 
d="M22 709c0 6.66699 2.83203 12 8.49902 16s12.167 6 19.5 6c11.333 0 18.666 -5 21.999 -15l193 -632l192 632c2.66699 10 9.33398 15 20.001 15c7.33301 0 14 -2.16699 20 -6.5s9 -9.5 9 -15.5c0 -1.33301 -0.166992 -2.5 -0.5 -3.5s-0.5 -1.83301 -0.5 -2.5l-212 -691
c-3.33301 -12 -12.666 -18 -27.999 -18c-14.667 0 -24 6 -28 18l-214 691c-0.666992 1.33301 -1 3.33301 -1 6z" />
    <glyph glyph-name="W" unicode="W" horiz-adv-x="762" 
d="M24 710c0 6 2.82715 11 8.49414 15s11.834 6 18.501 6c12.667 0 20.334 -5 23.001 -15l177 -632l102 379c3.33301 13.333 12.333 20 27 20s24 -6.66699 28 -20l105 -379l175 632c2.66699 10 10.334 15 23.001 15c6.66699 0 12.834 -2 18.501 -6s8.5 -9 8.5 -15
c0 -2.66699 -0.333008 -5 -1 -7l-196 -691c-4 -12 -13.667 -18 -29 -18c-16 0 -25 6 -27 18l-103 374l-103 -374c-3.33301 -12 -12.666 -18 -27.999 -18s-24.666 6 -27.999 18l-198 691c-0.666992 2 -1 4.33301 -1 7z" />
    <glyph glyph-name="X" unicode="X" horiz-adv-x="465" 
d="M26 24c0 2 1.33008 6.33594 3.99707 13.0029l172 329l-169 326c-4 6.66699 -6 13 -6 19c0 14 9.33301 21 28 21c10 0 20.667 -11.667 32 -35l145 -283l146 283c0 0.666992 1.33301 3.66699 4 9l6 10c1.33301 1.33301 3.33301 3.66602 6 6.99902
s5.33398 5.66602 8.00098 6.99902s5.33398 2 8.00098 2c18.667 0 28 -7 28 -21c0 -6 -2 -12.333 -6 -19l-170 -326l173 -329c2.66699 -6.66699 4 -11 4 -13c0 -6.66699 -2.83301 -12.5 -8.5 -17.5s-12.167 -7.5 -19.5 -7.5c-2 0 -4 0.333008 -6 1
c-2 1.33301 -3.66699 2.66602 -5 3.99902l-5 4c-1.33301 1.33301 -2.83301 3.33301 -4.5 6s-2.66699 4.66699 -3 6s-1.5 3.66602 -3.5 6.99902s-3 5.33301 -3 6l-149 286l-148 -286c0 -0.666992 -1 -2.66699 -3 -6s-3.16699 -5.66602 -3.5 -6.99902s-1.33301 -3.33301 -3 -6
s-3.16699 -4.66699 -4.5 -6l-4 -4c-1.33301 -1.33301 -3.16602 -2.5 -5.49902 -3.5s-4.5 -1.5 -6.5 -1.5c-6.66699 0 -13 2.5 -19 7.5s-9 10.833 -9 17.5z" />
    <glyph glyph-name="Y" unicode="Y" horiz-adv-x="520" 
d="M21 709c0 6.66699 2.33105 11.998 6.99805 15.998s10.334 6 17.001 6c8.66699 0 16.334 -6 23.001 -18l192 -385l193 385c6 12 13.667 18 23 18c6 0 11.167 -2 15.5 -6s6.5 -9.33301 6.5 -16c0 -7.33301 -1.33301 -13.666 -4 -18.999l-208 -407
c-0.666992 -1.33301 -1 -3.66602 -1 -6.99902v-254c0 -14.667 -8.33301 -22 -25 -22s-25 7.33301 -25 22v254c0 2 -0.666992 4.33301 -2 7l-207 407c-3.33301 8.66699 -5 15 -5 19z" />
    <glyph glyph-name="Z" unicode="Z" horiz-adv-x="474" 
d="M26 20c0 6.66699 1.66699 12.333 5 17l342 646h-315c-14 0 -21 8 -21 24s7 24 21 24h359c14 0 21 -6 21 -18c0 -7.33301 -2 -14.333 -6 -21l-341 -644h337c14 0 21 -8 21 -24s-7 -24 -21 -24h-381c-14 0 -21 6.66699 -21 20z" />
    <glyph glyph-name="bracketleft" unicode="[" horiz-adv-x="293" 
d="M71 0v747.002c0 6 2.33301 11 7 15s10.334 6 17.001 6h158c6 0 10.833 -2.33301 14.5 -7s5.5 -10 5.5 -16c0 -6.66699 -2 -12.334 -6 -17.001s-8.66699 -7 -14 -7h-132v-695h132c5.33301 0 10 -2.33301 14 -7s6 -10.334 6 -17.001c0 -6 -1.83301 -11.333 -5.5 -16
s-8.5 -7 -14.5 -7h-158c-6.66699 0 -12.334 2 -17.001 6s-7 9 -7 15z" />
    <glyph glyph-name="backslash" unicode="\" horiz-adv-x="344" 
d="M26 731c0 6.66699 2.33301 12.166 7 16.499s10 6.5 16 6.5c8.66699 0 14.667 -3.66699 18 -11l250 -717c0.666992 -1.33301 1 -3.66602 1 -6.99902c0 -5.33301 -2.16699 -9.83301 -6.5 -13.5s-9.16602 -5.5 -14.499 -5.5c-10.667 0 -17.334 4.66699 -20.001 14l-249 709
c-1.33301 4 -2 6.66699 -2 8z" />
    <glyph glyph-name="bracketright" unicode="]" horiz-adv-x="294" 
d="M20 2c0 6.66699 2 12.332 6 16.999s9 7 15 7h132v695h-132c-6 0 -11 2.33301 -15 7s-6 10.334 -6 17.001c0 6 2 11.333 6 16s9 7 15 7h158c6.66699 0 12.334 -2 17.001 -6s7 -9 7 -15v-747c0 -6 -2.33301 -11 -7 -15s-10.334 -6 -17.001 -6h-158c-6 0 -11 2.33301 -15 7
s-6 10 -6 16z" />
    <glyph glyph-name="asciicircum" unicode="^" horiz-adv-x="264" 
d="M0 619c0 7.33301 3.66699 13 11 17l104 56c5.33301 3.33301 11 5 17 5s11.667 -1.66699 17 -5l104 -55c7.33301 -4 11 -10.667 11 -20c0 -5.33301 -1.83301 -10 -5.5 -14s-8.16699 -6 -13.5 -6l-9 3l-104 55l-104 -56c-0.666992 0 -2 -0.5 -4 -1.5s-3.33301 -1.5 -4 -1.5
c-5.33301 0 -10 2.16699 -14 6.5s-6 9.83301 -6 16.5z" />
    <glyph glyph-name="underscore" unicode="_" horiz-adv-x="342" 
d="M-10 -23c0 6.66699 2.00098 12.167 6.00098 16.5s9 6.5 15 6.5h320c5.33301 -0 10.166 -2.16699 14.499 -6.5s6.5 -9.83301 6.5 -16.5c0 -6 -2 -11.167 -6 -15.5s-9 -6.5 -15 -6.5h-320c-6 0 -11 2 -15 6s-6 9.33301 -6 16z" />
    <glyph glyph-name="grave" unicode="`" horiz-adv-x="143" 
d="M0 674c0 6 1.83301 11.332 5.5 15.999s8.5 7 14.5 7c2 0 4.33301 -0.666992 7 -2l107 -61c6 -2.66699 9 -7.66699 9 -15c0 -6 -2.16699 -11.333 -6.5 -16s-9.5 -7 -15.5 -7c-2.66699 0 -6 1 -10 3l-100 55c-7.33301 4.66699 -11 11.334 -11 20.001z" />
    <glyph glyph-name="a" unicode="a" horiz-adv-x="431" 
d="M33 126c0 50 19.835 84.833 59.502 104.5s97.5 29.5 173.5 29.5h54v26c0 40 -10.5 74.5 -31.5 103.5s-52.5 43.5 -94.5 43.5c-25.333 0 -49 -4.66699 -71 -14s-33.333 -14 -34 -14c-6.66699 0 -12 3 -16 9s-6 12 -6 18c0 11.333 13.833 21.833 41.5 31.5
s56.834 14.5 87.501 14.5c59.333 0 103 -18.167 131 -54.5s42 -82.166 42 -137.499v-264c0 -6 -2.33301 -11.167 -7 -15.5s-10.334 -6.5 -17.001 -6.5s-12.334 2.16699 -17.001 6.5s-7 9.5 -7 15.5v48c-44 -50.667 -94 -76 -150 -76c-40.667 0 -73.834 11.167 -99.501 33.5
s-38.5 55.166 -38.5 98.499zM82.002 128c0 -30 8.83105 -52.499 26.498 -67.499s40.834 -22.5 69.501 -22.5c34 0 66.167 12.167 96.5 36.5s45.5 48.166 45.5 71.499v74h-49c-28.667 0 -52.667 -1 -72 -3s-38.666 -5.83301 -57.999 -11.5s-34 -15 -44 -28
s-15 -29.5 -15 -49.5z" />
    <glyph glyph-name="b" unicode="b" horiz-adv-x="475" 
d="M66 22l0.00195312 723.001c0 6 2.33301 11 7 15s10.334 6 17.001 6c7.33301 0 13.333 -2 18 -6s7 -9 7 -15v-343c12 22 29.5 40.167 52.5 54.5s49.833 21.5 80.5 21.5c49.333 0 91.666 -17.833 126.999 -53.5s53 -78.834 53 -129.501v-116
c0 -48.667 -17.833 -91.667 -53.5 -129s-77.167 -56 -124.5 -56c-29.333 0 -56.5 7.33301 -81.5 22s-43.167 32.667 -54.5 54v-48c0 -5.33301 -2.33301 -10.333 -7 -15s-10.334 -7 -17.001 -7s-12.334 2.16699 -17.001 6.5s-7 9.5 -7 15.5zM115.002 145.001
c0 -19.333 13.333 -41.667 40 -67s57 -38 91 -38c35.333 0 66.333 14.167 93 42.5s40 60.5 40 96.5v116c0 35.333 -13.333 67 -40 95s-58 42 -94 42c-34 0 -64.167 -12.667 -90.5 -38s-39.5 -58.333 -39.5 -99v-150z" />
    <glyph glyph-name="c" unicode="c" horiz-adv-x="406" 
d="M49 179l-0.00195312 113.999c0 54.667 15.833 99.167 47.5 133.5s78.5 51.5 140.5 51.5c38 0 70 -6.83301 96 -20.5s39 -27.167 39 -40.5c0 -6 -2.33301 -11.5 -7 -16.5s-10 -7.5 -16 -7.5c-3.33301 0 -9.16602 3.16699 -17.499 9.5s-20.5 12.833 -36.5 19.5
s-35 10 -57 10c-44.667 0 -79.167 -12.333 -103.5 -37s-36.5 -58.667 -36.5 -102v-114c0 -44 12 -78.167 36 -102.5s59 -36.5 105 -36.5c23.333 0 43.333 3.33301 60 10s29.334 13.334 38.001 20.001s15 10 19 10c6 0 11.167 -2.5 15.5 -7.5s6.5 -10.5 6.5 -16.5
c0 -14 -13.5 -27.833 -40.5 -41.5s-60.5 -20.5 -100.5 -20.5c-61.333 0 -108 17 -140 51s-48 78.667 -48 134z" />
    <glyph glyph-name="d" unicode="d" horiz-adv-x="476" 
d="M48 179l0.00195312 115.999c0 50.667 17.667 93.834 53 129.501s77.666 53.5 126.999 53.5c30.667 0 57.5 -7.16699 80.5 -21.5s40.5 -32.5 52.5 -54.5v343c0 6 2.33301 11 7 15s10.667 6 18 6c6.66699 0 12.334 -2 17.001 -6s7 -9 7 -15v-723
c0 -6 -2.33301 -11.167 -7 -15.5s-10.334 -6.5 -17.001 -6.5s-12.334 2.33301 -17.001 7s-7 9.66699 -7 15v48c-11.333 -21.333 -29.5 -39.333 -54.5 -54s-52.167 -22 -81.5 -22c-47.333 0 -88.833 18.667 -124.5 56s-53.5 80.333 -53.5 129zM97.002 178.999
c0 -36 13.333 -68.166 40 -96.499s57.667 -42.5 93 -42.5c34 0 64.333 12.667 91 38s40 47.666 40 66.999v150c0 40.667 -13.167 73.667 -39.5 99s-56.5 38 -90.5 38c-36 0 -67.333 -14 -94 -42s-40 -59.667 -40 -95v-116z" />
    <glyph glyph-name="e" unicode="e" horiz-adv-x="451" 
d="M48 179l-0.00195312 118.999c0 49.333 18 91.666 54 126.999s79.333 53 130 53c49.333 0 92 -17.333 128 -52s54 -77.667 54 -129c0 -18 -2.16699 -32.5 -6.5 -43.5s-11.166 -18.833 -20.499 -23.5s-17.833 -7.5 -25.5 -8.5s-18.5 -1.5 -32.5 -1.5h-232v-42
c0 -42 15 -75.667 45 -101s68.667 -38 116 -38c24 0 44.333 3.33301 61 10s29.334 13.334 38.001 20.001s15.334 10 20.001 10c6 0 11.333 -2.66699 16 -8s7 -10.666 7 -15.999c0 -12.667 -13.833 -26 -41.5 -40s-61.834 -21 -102.501 -21c-61.333 0 -111.333 17 -150 51
s-58 78.667 -58 134zM96.998 260.999l212.999 -0.000976562c22.667 0 37.667 2.33301 45 7s11 14.334 11 29.001c0 35.333 -12.667 67 -38 95s-57.333 42 -96 42c-37.333 0 -69.166 -13 -95.499 -39s-39.5 -57 -39.5 -93v-41z" />
    <glyph glyph-name="f" unicode="f" horiz-adv-x="296" 
d="M66 21l-0.000976562 564c0 48.667 17.667 91 53 127s77 54 125 54h17c6.66699 0 12.167 -2.33301 16.5 -7s6.5 -10.334 6.5 -17.001s-2.16699 -12 -6.5 -16s-9.83301 -6 -16.5 -6h-13c-37.333 0 -68.666 -13.167 -93.999 -39.5s-38.333 -57.5 -39 -93.5v-115h148
c6 0 11 -2.16699 15 -6.5s6 -9.16602 6 -14.499c0 -6 -2 -11.167 -6 -15.5s-9 -6.5 -15 -6.5h-148v-408c0 -6 -2.5 -11 -7.5 -15s-11.167 -6 -18.5 -6c-15.333 0 -23 7 -23 21z" />
    <glyph glyph-name="g" unicode="g" horiz-adv-x="448" 
d="M28 -104c0 52 29.3301 88.665 87.9971 109.998c-38.667 12.667 -58 36 -58 70c0 30.667 16.333 54.334 49 71.001c-35.333 31.333 -53 73.333 -53 126v41c0 48 15.333 87.333 46 118s70.667 46 120 46c48.667 0 88 -15 118 -45c9.33301 18.667 20.833 33.667 34.5 45
s26.5 17 38.5 17c8.66699 0 15.167 -2.33301 19.5 -7s6.5 -10 6.5 -16c0 -12 -6 -18.667 -18 -20c-23.333 -1.33301 -42.666 -16.333 -57.999 -45c17.333 -23.333 26 -54.333 26 -93v-41c0 -48 -15.667 -87.667 -47 -119s-71.666 -47 -120.999 -47
c-30 0 -56.333 6.33301 -79 19c-24 -12 -36 -26.667 -36 -44s10.833 -29.833 32.5 -37.5s47.834 -12.667 78.501 -15s61.334 -6.16602 92.001 -11.499s56.834 -17.333 78.501 -36s32.5 -44.667 32.5 -78c0 -44 -17.333 -78.167 -52 -102.5s-81.334 -36.5 -140.001 -36.5
s-106.334 12 -143.001 36s-55 55.667 -55 95zM75.9971 -99.002c0 -28.667 13.333 -51.833 40 -69.5s63.334 -26.5 110.001 -26.5c45.333 0 80.5 8.66699 105.5 26s37.5 41 37.5 71c0 14.667 -3.5 27.167 -10.5 37.5s-15.5 18.5 -25.5 24.5s-22.833 11 -38.5 15
s-29.334 6.5 -41.001 7.5s-26.167 2.16699 -43.5 3.5l-36 4c-65.333 -19.333 -98 -50.333 -98 -93zM101.997 273.999c0 -36.667 10.667 -66.833 32 -90.5s50.333 -35.5 87 -35.5c36 0 64.667 11.667 86 35s32 53.333 32 90v41c0 36 -10.667 65.5 -32 88.5
s-50.333 34.5 -87 34.5s-65.5 -11.5 -86.5 -34.5s-31.5 -52.5 -31.5 -88.5v-40z" />
    <glyph glyph-name="h" unicode="h" 
d="M66 22v723c0 6 2.33301 11 7 15s10.334 6 17.001 6c7.33301 0 13.333 -2 18 -6s7 -9 7 -15v-343c11.333 21.333 28.5 39.333 51.5 54s50.167 22 81.5 22c48.667 0 90.667 -18 126 -54s53 -79 53 -129v-273c0 -14.667 -8.33301 -22 -25 -22c-16 -0 -24 7.33301 -24 22v273
c0 35.333 -13.333 67 -40 95s-58 42 -94 42c-34 0 -64 -12.5 -90 -37.5s-39 -58.167 -39 -99.5v-273c0 -5.33301 -2.5 -10.333 -7.5 -15s-10.833 -7 -17.5 -7s-12.334 2.16699 -17.001 6.5s-7 9.5 -7 15.5z" />
    <glyph glyph-name="i" unicode="i" horiz-adv-x="181" 
d="M52 658c0 9.33301 3.66699 17.5 11 24.5s16.333 10.5 27 10.5c10 0 18.667 -3.5 26 -10.5s11 -15.167 11 -24.5c0 -10 -3.66699 -18.667 -11 -26s-16 -11 -26 -11c-10.667 0 -19.667 3.66699 -27 11s-11 16 -11 26zM66 22l0.000976562 430c0 13.333 8 20 24 20
c16.667 0 25 -6.66699 25 -20v-430c0 -5.33301 -2.5 -10.333 -7.5 -15s-10.833 -7 -17.5 -7s-12.334 2.16699 -17.001 6.5s-7 9.5 -7 15.5z" />
    <glyph glyph-name="j" unicode="j" horiz-adv-x="181" 
d="M-37 -211c0 6.66699 2.16699 11.999 6.5 15.999s9.83301 6 16.5 6c32 0 53.333 12 64 36s16 59.667 16 107v498c0 13.333 8 20 24 20c16.667 0 25 -6.66699 25 -20v-498c0 -126 -42.333 -189 -127 -189c-7.33301 0 -13.333 2.33301 -18 7s-7 10.334 -7 17.001z
M52 657.999c0 9.33301 3.66699 17.5 11 24.5s16.333 10.5 27 10.5c10 0 18.667 -3.5 26 -10.5s11 -15.167 11 -24.5c0 -10 -3.66699 -18.667 -11 -26s-16 -11 -26 -11c-10.667 0 -19.667 3.66699 -27 11s-11 16 -11 26z" />
    <glyph glyph-name="k" unicode="k" horiz-adv-x="445" 
d="M66 22l0.000976562 723c0 6 2.33301 11 7 15s10.334 6 17.001 6c7.33301 0 13.333 -2 18 -6s7 -9 7 -15v-503l258 226c3.33301 3.33301 7.33301 5 12 5c6.66699 0 12.667 -2 18 -6s8 -9.66699 8 -17c0 -6.66699 -2.33301 -12 -7 -16l-155 -135l180 -264
c2 -3.33301 3 -7 3 -11c0 -6 -2.5 -11.667 -7.5 -17s-10.833 -8 -17.5 -8s-12.334 3.33301 -17.001 10l-176 258l-99 -86v-159c0 -5.33301 -2.5 -10.333 -7.5 -15s-10.833 -7 -17.5 -7s-12.334 2.16699 -17.001 6.5s-7 9.5 -7 15.5z" />
    <glyph glyph-name="l" unicode="l" horiz-adv-x="197" 
d="M74 22v723c0 6 2.33301 11 7 15s10.334 6 17.001 6c7.33301 0 13.333 -2 18 -6s7 -9 7 -15v-723c0 -5.33301 -2.5 -10.333 -7.5 -15s-10.833 -7 -17.5 -7s-12.334 2.16699 -17.001 6.5s-7 9.5 -7 15.5z" />
    <glyph glyph-name="m" unicode="m" horiz-adv-x="774" 
d="M66 22l-0.000976562 430.001c0 13.333 8 20 24 20c6.66699 0 12.334 -1.83301 17.001 -5.5s7 -8.5 7 -14.5v-50c28.667 50.667 73.334 76 134.001 76c32.667 0 61.834 -9 87.501 -27s45.167 -42.333 58.5 -73c16.667 32.667 38.667 57.5 66 74.5s56 25.5 86 25.5
c45.333 0 84.333 -16.5 117 -49.5s49 -77.5 49 -133.5v-273c0 -5.33301 -2.5 -10.333 -7.5 -15s-10.833 -7 -17.5 -7s-12.334 2.33301 -17.001 7s-7 9.66699 -7 15v273c0 42.667 -12.5 76.167 -37.5 100.5s-53.5 36.5 -85.5 36.5c-33.333 0 -62.833 -12.333 -88.5 -37
s-38.5 -56.334 -38.5 -95.001v-279c0 -14 -8.33301 -21 -25 -21c-16 0 -24 7 -24 21v278c0 37.333 -11.833 68.833 -35.5 94.5s-52.5 38.5 -86.5 38.5c-33.333 0 -62.833 -12.5 -88.5 -37.5s-38.5 -58.167 -38.5 -99.5v-273c0 -5.33301 -2.5 -10.333 -7.5 -15
s-10.833 -7 -17.5 -7s-12.334 2.16699 -17.001 6.5s-7 9.5 -7 15.5z" />
    <glyph glyph-name="n" unicode="n" 
d="M66 22l0.00195312 430c0 13.333 8 20 24 20c6.66699 0 12.334 -1.83301 17.001 -5.5s7 -8.5 7 -14.5v-50c11.333 21.333 28.666 39.333 51.999 54s50.666 22 81.999 22c48.667 0 90.667 -18 126 -54s53 -79 53 -129v-273c0 -14.667 -8.33301 -22 -25 -22
c-16 -0 -24 7.33301 -24 22v273c0 35.333 -13.333 67 -40 95s-58 42 -94 42c-34 0 -64 -12.5 -90 -37.5s-39 -58.167 -39 -99.5v-273c0 -5.33301 -2.5 -10.333 -7.5 -15s-10.833 -7 -17.5 -7s-12.334 2.16699 -17.001 6.5s-7 9.5 -7 15.5z" />
    <glyph glyph-name="o" unicode="o" horiz-adv-x="461" 
d="M47 179l0.000976562 116.001c0 49.333 18 92.166 54 128.499s79 54.5 129 54.5c49.333 0 92.333 -18 129 -54s55 -79 55 -129v-116c0 -48.667 -18.5 -91.667 -55.5 -129s-79.833 -56 -128.5 -56s-91.334 18.5 -128.001 55.5s-55 80.167 -55 129.5zM96.001 179.001
c0 -36 13.167 -68.167 39.5 -96.5s57.833 -42.5 94.5 -42.5s68.334 14.167 95.001 42.5s40 60.5 40 96.5v116c0 35.333 -13.333 67 -40 95s-58.334 42 -95.001 42s-68.167 -14 -94.5 -42s-39.5 -59.667 -39.5 -95v-116z" />
    <glyph glyph-name="p" unicode="p" horiz-adv-x="475" 
d="M66 -213v665.001c0 13.333 8 20 24 20c6.66699 0 12.334 -1.83301 17.001 -5.5s7 -8.5 7 -14.5v-50c28.667 50.667 73.334 76 134.001 76c49.333 0 91.666 -17.833 126.999 -53.5s53 -78.834 53 -129.501v-116c0 -48.667 -17.833 -91.667 -53.5 -129
s-77.167 -56 -124.5 -56c-29.333 0 -56.333 7.33301 -81 22s-42.667 32.667 -54 54v-283c0 -5.33301 -2.5 -10.333 -7.5 -15s-10.833 -7 -17.5 -7s-12.334 2.16699 -17.001 6.5s-7 9.5 -7 15.5zM115 145.001c0 -19.333 13.333 -41.667 40 -67s57 -38 91 -38
c35.333 0 66.333 14.167 93 42.5s40 60.5 40 96.5v116c0 35.333 -13.5 67 -40.5 95s-58.5 42 -94.5 42c-34 0 -64 -12.5 -90 -37.5s-39 -58.167 -39 -99.5v-150z" />
    <glyph glyph-name="q" unicode="q" horiz-adv-x="476" 
d="M48 179l0.000976562 115.999c0 50.667 17.667 93.834 53 129.501s77.666 53.5 126.999 53.5c30.667 0 57.667 -7.33301 81 -22s41 -32.667 53 -54v50c0 6 2.33301 10.833 7 14.5s10.334 5.5 17.001 5.5c16 0 24 -6.66699 24 -20v-665c0 -6 -2.33301 -11.167 -7 -15.5
s-10.334 -6.5 -17.001 -6.5s-12.5 2.33301 -17.5 7s-7.5 9.66699 -7.5 15v283c-11.333 -21.333 -29.5 -39.333 -54.5 -54s-51.833 -22 -80.5 -22c-47.333 0 -88.833 18.667 -124.5 56s-53.5 80.333 -53.5 129zM97.001 178.999c0 -36 13.333 -68.166 40 -96.499
s57.667 -42.5 93 -42.5c34 0 64.333 12.667 91 38s40 47.666 40 66.999v150c0 41.333 -13 74.5 -39 99.5s-56.333 37.5 -91 37.5c-36 0 -67.333 -14 -94 -42s-40 -59.667 -40 -95v-116z" />
    <glyph glyph-name="r" unicode="r" horiz-adv-x="319" 
d="M66 22v430c0 13.333 8 20 24 20c6.66699 0 12.334 -1.83301 17.001 -5.5s7 -8.5 7 -14.5v-51c12 22 29.833 40.333 53.5 55s51.167 22 82.5 22h36c6 0 11.167 -2.16699 15.5 -6.5s6.5 -9.83301 6.5 -16.5s-2.16699 -12.167 -6.5 -16.5s-9.5 -6.5 -15.5 -6.5h-36
c-36 0 -67.5 -13.5 -94.5 -40.5s-40.5 -62.167 -40.5 -105.5v-264c0 -5.33301 -2.5 -10.333 -7.5 -15s-10.833 -7 -17.5 -7s-12.334 2.16699 -17.001 6.5s-7 9.5 -7 15.5z" />
    <glyph glyph-name="s" unicode="s" horiz-adv-x="379" 
d="M36 62c0 5.33301 1.83008 10.499 5.49707 15.499s7.83398 7.5 12.501 7.5c4 0.666992 9.33301 -1.66602 16 -6.99902l23 -16c8 -5.33301 20.333 -10.666 37 -15.999s35.334 -8 56.001 -8c37.333 0 65 7.16699 83 21.5s27 32.833 27 55.5c0 26.667 -8.5 47.667 -25.5 63
s-37.667 26.5 -62 33.5s-48.833 14.5 -73.5 22.5s-45.5 21 -62.5 39s-25.5 42.333 -25.5 73c0 34.667 12.833 65.334 38.5 92.001s63.5 40 113.5 40c31.333 0 60.5 -4.83301 87.5 -14.5s40.5 -19.834 40.5 -30.501c0 -5.33301 -2.33301 -11 -7 -17s-9.66699 -9 -15 -9
c-0.666992 0 -12.334 4.5 -35.001 13.5s-46 13.5 -70 13.5c-36 0 -62.833 -9 -80.5 -27s-26.5 -38 -26.5 -60c0 -22.667 8.5 -40.334 25.5 -53.001s37.833 -22.334 62.5 -29.001s49.334 -14.167 74.001 -22.5s45.5 -22.666 62.5 -42.999s25.5 -47.5 25.5 -81.5
c0 -38.667 -13.667 -69 -41 -91s-65.666 -33 -114.999 -33c-42.667 0 -78.5 7.5 -107.5 22.5s-43.5 30.167 -43.5 45.5z" />
    <glyph glyph-name="t" unicode="t" horiz-adv-x="284" 
d="M64 143v536.999c0 6 2.5 11 7.5 15s10.5 6 16.5 6c6.66699 0 12.5 -2 17.5 -6s7.5 -9 7.5 -15v-208h133c5.33301 0 9.83301 -2.16699 13.5 -6.5s5.5 -9.5 5.5 -15.5c0 -5.33301 -2 -10.166 -6 -14.499s-8.33301 -6.5 -13 -6.5h-133v-286
c0 -35.333 7.66699 -60.333 23 -75s42 -22 80 -22h25c6.66699 0 12.167 -2.16699 16.5 -6.5s6.5 -9.83301 6.5 -16.5c0 -6 -2.16699 -11.333 -6.5 -16s-9.83301 -7 -16.5 -7h-25c-101.333 0 -152 47.667 -152 143z" />
    <glyph glyph-name="u" unicode="u" 
d="M61 177l-0.000976562 273.998c0 5.33301 2.5 10.166 7.5 14.499s10.833 6.5 17.5 6.5c6 0 11.5 -2.16699 16.5 -6.5s7.5 -9.16602 7.5 -14.499v-274c0 -36 13.167 -67.833 39.5 -95.5s57.833 -41.5 94.5 -41.5s68.167 13.833 94.5 41.5s39.5 59.5 39.5 95.5v275
c0 5.33301 2.5 10 7.5 14s10.833 6 17.5 6s12.334 -2 17.001 -6s7 -8.66699 7 -14v-275c0 -49.333 -18 -92.166 -54 -128.499s-79 -54.5 -129 -54.5s-93 18.333 -129 55s-54 79.334 -54 128.001z" />
    <glyph glyph-name="v" unicode="v" horiz-adv-x="407" 
d="M18 450c0 6.66699 2.83105 12.167 8.49805 16.5s12.167 6.5 19.5 6.5c10.667 0 17.334 -4 20.001 -12l137 -378l137 372c4.66699 12 11.334 18 20.001 18c6.66699 0 13.167 -2.16699 19.5 -6.5s9.5 -9.5 9.5 -15.5l-4 -16l-158 -428
c-4.66699 -9.33301 -12.667 -14 -24 -14s-19 4.66699 -23 14l-158 428c-2.66699 8 -4 13 -4 15z" />
    <glyph glyph-name="w" unicode="w" horiz-adv-x="661" 
d="M18 450c0 6.66699 2.83398 12.167 8.50098 16.5s12.167 6.5 19.5 6.5c9.33301 0 16 -4 20 -12l135 -375l109 344c2.66699 10 10 15 22 15c11.333 0 18.333 -5 21 -15l106 -349l138 380c2 8 8.33301 12 19 12c7.33301 0 13.666 -2 18.999 -6s8 -9.33301 8 -16
c0 -6 -1.33301 -11 -4 -15l-156 -429c-4 -9.33301 -10.667 -14 -20 -14s-16 4.33301 -20 13l-111 352l-110 -347c-4 -12 -11.333 -18 -22 -18s-18 6 -22 18l-156 425c-2.66699 8 -4 12.667 -4 14z" />
    <glyph glyph-name="x" unicode="x" horiz-adv-x="394" 
d="M25 18c0 3.33301 1.33301 7 4 11l136 210l-135 204c-2 3.33301 -3 6.66602 -3 9.99902c0 6.66699 2.83301 12.5 8.5 17.5s12.167 7.5 19.5 7.5c8 0 13.667 -2.66699 17 -8l125 -192l126 191c4 6 9.33301 9 16 9s13 -2.5 19 -7.5s9 -10.833 9 -17.5
c0 -3.33301 -1 -6.66602 -3 -9.99902l-136 -205l137 -209c2.66699 -4 4 -7.66699 4 -11c0 -6 -3 -11.5 -9 -16.5s-12.333 -7.5 -19 -7.5c-7.33301 0 -13 2.66699 -17 8l-127 196l-126 -196c-5.33301 -5.33301 -11.333 -8 -18 -8s-13 2.5 -19 7.5s-9 10.5 -9 16.5z" />
    <glyph glyph-name="y" unicode="y" horiz-adv-x="408" 
d="M17 455c0 6.66699 3.00293 12.335 9.00293 17.002s12.667 7 20 7c10.667 0 17 -4.33301 19 -13l141 -385l137 385c4.66699 8.66699 11 13 19 13c6.66699 0 13 -2.33301 19 -7s9 -10.334 9 -17.001c0 -3.33301 -0.333008 -6 -1 -8l-158 -431l-21 -56
c-4 -10.667 -11.333 -28.5 -22 -53.5s-20.334 -43.667 -29.001 -56s-19.334 -26.333 -32.001 -42s-26.167 -26.834 -40.5 -33.501s-29.5 -10 -45.5 -10c-15.333 0 -23 7.66699 -23 23s6 23 18 23c55.333 0 103.666 68.333 144.999 205l-162 431c-1.33301 4 -2 6.66699 -2 8z
" />
    <glyph glyph-name="z" unicode="z" horiz-adv-x="393" 
d="M25 20c0 6.66699 2.33301 13.001 7 19.001l256 388h-232c-6 0 -11 2.16699 -15 6.5s-6 9.5 -6 15.5c0 6.66699 2 12.167 6 16.5s9 6.5 15 6.5h280c6 0 11 -2 15 -6s6 -9 6 -15s-2 -11.667 -6 -17l-257 -388h253c6 0 11 -2.33301 15 -7s6 -10.334 6 -17.001
c0 -6 -2 -11.167 -6 -15.5s-9 -6.5 -15 -6.5h-300c-6 0 -11.167 2 -15.5 6s-6.5 8.66699 -6.5 14z" />
    <glyph glyph-name="braceleft" unicode="{" horiz-adv-x="297" 
d="M32 384c0 8 3.16504 13.834 9.49805 17.501s13.166 5.66699 20.499 6s14.166 1.83301 20.499 4.5s9.5 7.66699 9.5 15c0 5.33301 -3.33301 33.666 -10 84.999s-10 82.333 -10 93c0 44 17.833 82.167 53.5 114.5s77.834 48.5 126.501 48.5c8 0 14.167 -2.33301 18.5 -7
s6.5 -10 6.5 -16s-2 -11.333 -6 -16s-8.66699 -7 -14 -7c-37.333 0 -69.166 -12.167 -95.499 -36.5s-39.5 -52.833 -39.5 -85.5c0 -10.667 3.33301 -41 10 -91s10 -78 10 -84c0 -10 -3.83301 -18.833 -11.5 -26.5s-15.167 -12.5 -22.5 -14.5
c8 -2.66699 15.667 -7.5 23 -14.5s11 -15.5 11 -25.5c0 -6.66699 -3.33301 -40.5 -10 -101.5s-10 -98.167 -10 -111.5c0 -36 14.833 -62.5 44.5 -79.5s59.834 -25.5 90.501 -25.5c13.333 0 20 -7.33301 20 -22c0 -16 -8.33301 -24 -25 -24
c-50.667 0 -93.334 14.167 -128.001 42.5s-52 64.5 -52 108.5c0 12 3.33301 48.833 10 110.5s10 95.167 10 100.5c0 7.33301 -3.16699 12.333 -9.5 15s-13.166 4 -20.499 4s-14.166 1.83301 -20.499 5.5s-9.5 9.5 -9.5 17.5z" />
    <glyph glyph-name="bar" unicode="|" horiz-adv-x="192" 
d="M71 0v746.999c0 14 8.33301 21 25 21c6.66699 0 12.5 -2 17.5 -6s7.5 -9 7.5 -15v-747c0 -5.33301 -2.5 -10.166 -7.5 -14.499s-10.833 -6.5 -17.5 -6.5c-7.33301 0 -13.333 2 -18 6s-7 9 -7 15z" />
    <glyph glyph-name="braceright" unicode="}" horiz-adv-x="297" 
d="M20 4c0 14.667 6.99805 22 20.998 22c30.667 0 60.834 8.5 90.501 25.5s44.5 43.5 44.5 79.5c0 13.333 -3.5 50.5 -10.5 111.5s-10.5 94.833 -10.5 101.5c0 10 3.66699 18.5 11 25.5s15 11.833 23 14.5c-8 2 -15.667 6.66699 -23 14s-11 16.333 -11 27
c0 6 3.5 34 10.5 84s10.5 80.333 10.5 91c0 32.667 -13.167 61.167 -39.5 85.5s-58.166 36.5 -95.499 36.5c-6 0 -11 2.33301 -15 7s-6 10 -6 16s2.33301 11.333 7 16s11 7 19 7c48.667 0 90.834 -16.167 126.501 -48.5s53.5 -70.5 53.5 -114.5
c0 -10.667 -3.5 -41.667 -10.5 -93s-10.5 -79.666 -10.5 -84.999c0 -7.33301 3.16699 -12.333 9.5 -15s13.166 -4.16699 20.499 -4.5s14.166 -2.33301 20.499 -6s9.5 -9.5 9.5 -17.5s-3.16699 -13.833 -9.5 -17.5s-13.166 -5.5 -20.499 -5.5s-14.166 -1.33301 -20.499 -4
s-9.5 -7.66699 -9.5 -15c0 -5.33301 3.5 -38.833 10.5 -100.5s10.5 -98.5 10.5 -110.5c0 -44 -17.333 -80.167 -52 -108.5s-77.334 -42.5 -128.001 -42.5c-7.33301 0 -13.5 2.16699 -18.5 6.5s-7.5 10.166 -7.5 17.499z" />
    <glyph glyph-name="asciitilde" unicode="~" horiz-adv-x="401" 
d="M49 243c0 14.667 10.167 27.333 30.5 38s39.833 16 58.5 16c16.667 0 38 -6 64 -18s47.667 -18 65 -18s32 5.16699 44 15.5s19.667 15.5 23 15.5c4.66699 0 8.66699 -2 12 -6s5 -8.33301 5 -13c0 -16 -9.5 -29 -28.5 -39s-37.5 -15 -55.5 -15c-16.667 0 -38 6 -64 18
s-48.333 18 -67 18c-16.667 0 -32 -5.5 -46 -16.5s-22.333 -16.5 -25 -16.5c-10.667 0 -16 7 -16 21z" />
    <glyph glyph-name="uni00A0" unicode="&#xa0;" horiz-adv-x="200" 
 />
    <glyph glyph-name="exclamdown" unicode="&#xa1;" horiz-adv-x="198" 
d="M59 705c0 11.333 3.83301 21 11.5 29s17.167 12 28.5 12c10.667 0 20 -4 28 -12s12 -17.667 12 -29s-4 -21 -12 -29s-17.333 -12 -28 -12c-11.333 0 -20.833 4 -28.5 12s-11.5 17.667 -11.5 29zM67 29c0 57.333 1.83496 146.666 5.50195 267.999s5.5 211 5.5 269
c0 5.33301 2.16699 9.83301 6.5 13.5s9.16602 5.5 14.499 5.5s10.166 -1.83301 14.499 -5.5s6.5 -8.16699 6.5 -13.5c0 -58 1.83301 -147.667 5.5 -269s5.5 -210.666 5.5 -267.999c0 -11.333 -3 -20 -9 -26s-13.667 -9 -23 -9s-17 3 -23 9s-9 14.667 -9 26z" />
    <glyph glyph-name="cent" unicode="&#xa2;" horiz-adv-x="408" 
d="M38 357v19.002c0 48.667 12.333 89.5 37 122.5s61.667 53.167 111 60.5v115c0 5.33301 2 10 6 14s9 6 15 6c5.33301 0 10.166 -2 14.499 -6s6.5 -8.66699 6.5 -14v-113c37.333 -0.666992 69.666 -7 96.999 -19s41 -25.667 41 -41c0 -6.66699 -2.33301 -12.334 -7 -17.001
s-10.334 -7 -17.001 -7c-3.33301 0 -9.16602 3.16699 -17.499 9.5s-20.666 12.833 -36.999 19.5s-36.166 10 -59.499 10v-298c23.333 0 43.166 3.33301 59.499 10s28.5 13.167 36.5 19.5s14 9.5 18 9.5c6.66699 0 12.5 -2.33301 17.5 -7s7.5 -10.334 7.5 -17.001
c0 -16 -14.333 -30 -43 -42s-60.667 -18.333 -96 -19v-112c0 -5.33301 -2.16699 -10 -6.5 -14s-9.16602 -6 -14.499 -6c-6 0 -11 2 -15 6s-6 8.66699 -6 14v114c-48.667 7.33301 -85.5 27.333 -110.5 60s-37.5 73.667 -37.5 123zM84 357.002c0 -78 34 -123.333 102 -136v291
c-68 -14 -102 -59.333 -102 -136v-19z" />
    <glyph glyph-name="sterling" unicode="&#xa3;" horiz-adv-x="473" 
d="M25 24c0 6.66699 2 12.335 6 17.002s9.33301 7 16 7h61l44 319h-81c-12.667 0 -19 7 -19 21c0 15.333 6.33301 23 19 23h88l25 174c7.33301 50 31.5 93 72.5 129s86.833 54 137.5 54h16c7.33301 0 13 -2.33301 17 -7s6 -10.334 6 -17.001c0 -6 -2 -11.333 -6 -16
s-9.66699 -7 -17 -7h-21c-38.667 0 -73 -13.5 -103 -40.5s-47.667 -58.833 -53 -95.5l-25 -174h156c12.667 0 19 -7.66699 19 -23c0 -14 -6.33301 -21 -19 -21h-163l-45 -319h258c6 0 10.667 -2.33301 14 -7s5 -10.334 5 -17.001s-1.66699 -12.334 -5 -17.001s-8 -7 -14 -7
h-367c-6.66699 0 -12 2.33301 -16 7s-6 10.334 -6 17.001z" />
    <glyph glyph-name="currency" unicode="&#xa4;" horiz-adv-x="483" 
d="M65 318c0 4.66699 1.66504 8.66895 4.99805 12.002l33 33c-24.667 33.333 -37 69.666 -37 108.999s12 75.333 36 108l-26 27c-3.33301 3.33301 -5 7.66602 -5 12.999c0 4.66699 2 8.83398 6 12.501s8.66699 5.5 14 5.5c4.66699 0 8.66699 -1.66699 12 -5l25 -25
c34 29.333 72.333 44 115 44c40 0 76.667 -13.333 110 -40l27 27c3.33301 3.33301 8 5 14 5c4.66699 0 8.83398 -1.83301 12.501 -5.5s5.5 -7.83398 5.5 -12.501c0 -5.33301 -1.66699 -9.66602 -5 -12.999l-28 -28c28 -32 42 -69.667 42 -113
c0 -42.667 -14.333 -80.334 -43 -113.001l29 -29c3.33301 -4.66699 5 -8.66699 5 -12c0 -4.66699 -1.83301 -8.83398 -5.5 -12.501s-7.83398 -5.5 -12.501 -5.5c-5.33301 0 -9.66602 1.66699 -12.999 5l-28 27c-33.333 -28 -70 -42 -110 -42
c-41.333 0 -79.666 15.333 -114.999 46l-32 -31c-3.33301 -3.33301 -7.33301 -5 -12 -5s-9 1.83301 -13 5.5s-6 7.83398 -6 12.501zM108.998 472.002c0 -36 13.167 -68.167 39.5 -96.5s57.833 -42.5 94.5 -42.5s68.334 14.167 95.001 42.5s40 60.5 40 96.5
c0 35.333 -13.333 67 -40 95s-58.334 42 -95.001 42s-68.167 -13.833 -94.5 -41.5s-39.5 -59.5 -39.5 -95.5z" />
    <glyph glyph-name="yen" unicode="&#xa5;" horiz-adv-x="490" 
d="M25 709c0 5.33301 2.66699 10.5 8 15.5s11.333 7.5 18 7.5c8.66699 0 15.334 -4.33301 20.001 -13l170 -335l179 335c5.33301 8.66699 12 13 20 13c6 0 11.667 -2.33301 17 -7s8 -10 8 -16c0 -2.66699 -0.666992 -5.33398 -2 -8.00098l-186 -348h114
c5.33301 0 10.166 -2.16699 14.499 -6.5s6.5 -9.5 6.5 -15.5s-2.16699 -11 -6.5 -15s-9.16602 -6 -14.499 -6h-126v-76h126c5.33301 0 10.166 -2.16699 14.499 -6.5s6.5 -9.5 6.5 -15.5s-2.16699 -11 -6.5 -15s-9.16602 -6 -14.499 -6h-126v-170c0 -6 -2.33301 -11 -7 -15
s-10.334 -6 -17.001 -6s-12.5 2 -17.5 6s-7.5 9 -7.5 15v170h-119c-13.333 0 -20 7 -20 21c0 6 1.83301 11.167 5.5 15.5s8.5 6.5 14.5 6.5h119v76h-119c-13.333 0 -20 7 -20 21c0 14.667 6.66699 22 20 22h107l-177 348c-1.33301 2.66699 -2 5.33398 -2 8.00098z" />
    <glyph glyph-name="brokenbar" unicode="&#xa6;" horiz-adv-x="193" 
d="M72 0v277c0 5.33301 2.33301 10 7 14s10.334 6 17.001 6s12.5 -2 17.5 -6s7.5 -8.66699 7.5 -14v-277c0 -5.33301 -2.5 -10.166 -7.5 -14.499s-10.833 -6.5 -17.5 -6.5s-12.334 2.16699 -17.001 6.5s-7 9.16602 -7 14.499zM72 470v277c0 6 2.33301 11 7 15
s10.334 6 17.001 6s12.5 -2 17.5 -6s7.5 -9 7.5 -15v-277c0 -5.33301 -2.5 -10 -7.5 -14s-10.833 -6 -17.5 -6s-12.334 2 -17.001 6s-7 8.66699 -7 14z" />
    <glyph glyph-name="section" unicode="&#xa7;" horiz-adv-x="463" 
d="M50 99c0 16.667 8.33398 24.998 25.001 24.998c14.667 0 22 -7 22 -21c0 -17.333 3 -34.5 9 -51.5s19.167 -33.167 39.5 -48.5s46.5 -23 78.5 -23c43.333 0 76.5 11.5 99.5 34.5s34.5 55.833 34.5 98.5c0 32 -10 57.333 -30 76s-44.333 32.5 -73 41.5
s-57.334 18.833 -86.001 29.5s-53 28.667 -73 54s-30 59 -30 101v128c0 36 5.33301 67 16 93s24.667 45.5 42 58.5s35 22.333 53 28s37 8.5 57 8.5c50 0 88.5 -14.667 115.5 -44s40.5 -67.666 40.5 -114.999c0 -18 -7.66699 -27 -23 -27c-16.667 0 -25 9.33301 -25 28
c0 11.333 -1.5 22.833 -4.5 34.5s-8.16699 23.667 -15.5 36s-18.333 22.333 -33 30s-32.334 11.5 -53.001 11.5c-33.333 0 -62 -11 -86 -33s-36 -56.667 -36 -104c0 -32 10.167 -57.5 30.5 -76.5s44.833 -33 73.5 -42s57.334 -18.833 86.001 -29.5s53.167 -28.667 73.5 -54
s30.5 -59 30.5 -101v-126c0 -62.667 -16.5 -109.167 -49.5 -139.5s-75.5 -45.5 -127.5 -45.5c-54 0 -97.667 15.833 -131 47.5s-50 70.834 -50 117.501zM113.001 412.998c0 -34.667 9.83398 -62.332 29.501 -82.999s42.167 -34.5 67.5 -41.5s53.166 -16.833 83.499 -29.5
s53.166 -27.667 68.499 -45v32c0 28 -6.16699 51.167 -18.5 69.5s-28.666 32.166 -48.999 41.499s-41.166 17.333 -62.499 24s-43.333 15.167 -66 25.5s-40.334 22.833 -53.001 37.5v-31z" />
    <glyph glyph-name="dieresis" unicode="&#xa8;" horiz-adv-x="182" 
d="M0 630c0 9.33301 3.16699 17 9.5 23s14.166 9 23.499 9s17 -3 23 -9s9 -13.667 9 -23s-3 -17.166 -9 -23.499s-13.667 -9.5 -23 -9.5s-17.166 3.16699 -23.499 9.5s-9.5 14.166 -9.5 23.499zM117 630c0 9.33301 3 17 9 23s14 9 24 9c9.33301 0 17 -3 23 -9
s9 -13.667 9 -23s-3 -17.166 -9 -23.499s-13.667 -9.5 -23 -9.5c-10 0 -18 3.16699 -24 9.5s-9 14.166 -9 23.499z" />
    <glyph glyph-name="copyright" unicode="&#xa9;" horiz-adv-x="724" 
d="M55 358c0 53.333 9.5 101.5 28.5 144.5s43.833 77.333 74.5 103s63.834 45.334 99.501 59.001s71.5 20.5 107.5 20.5s71.667 -6.83301 107 -20.5s67.833 -33.334 97.5 -59.001s53.667 -59.667 72 -102s27.5 -89.5 27.5 -141.5c0 -53.333 -9.5 -101.5 -28.5 -144.5
s-43.833 -77.333 -74.5 -103s-63.834 -45.334 -99.501 -59.001s-71.5 -20.5 -107.5 -20.5s-71.667 6.83301 -107 20.5s-67.833 33.334 -97.5 59.001s-53.667 59.667 -72 102s-27.5 89.5 -27.5 141.5zM94 358c0 -83.333 24.5 -151.5 73.5 -204.5s112.833 -79.5 191.5 -79.5
s143.5 26.667 194.5 80s76.5 122.666 76.5 207.999c0 83.333 -24.5 151.5 -73.5 204.5s-112.833 79.5 -191.5 79.5s-143.5 -26.667 -194.5 -80s-76.5 -122.666 -76.5 -207.999zM262 285l-0.000976562 162.998c0 40 9.33301 69.667 28 89s43 29 73 29
c30.667 0 55.334 -9 74.001 -27s28 -40.333 28 -67c0 -9.33301 -1.5 -15.666 -4.5 -18.999s-8.5 -5 -16.5 -5c-12.667 0 -19.667 5.33301 -21 16c-2 42 -21.667 63 -59 63c-40.667 0 -61 -26.333 -61 -79v-163c0 -52.667 20.667 -79 62 -79c12 0 22 2 30 6
s13.833 9.83301 17.5 17.5s6.16699 14.5 7.5 20.5s2.33301 13.333 3 22c0.666992 10 7.66699 15 21 15c8 0 13.5 -1.66699 16.5 -5s4.5 -9.66602 4.5 -18.999c0 -27.333 -9.33301 -50 -28 -68s-43.667 -27 -75 -27c-30 0 -54.167 9.5 -72.5 28.5s-27.5 48.5 -27.5 88.5z" />
    <glyph glyph-name="ordfeminine" unicode="&#xaa;" horiz-adv-x="311" 
d="M37 513c0 32.667 12.668 55.332 38.001 67.999s61.666 19 108.999 19h31v14c0 22.667 -6 42.334 -18 59.001s-30 25 -54 25c-17.333 0 -32.833 -3.16699 -46.5 -9.5s-20.834 -9.5 -21.501 -9.5c-5.33301 0 -9.5 2.5 -12.5 7.5s-4.5 10.167 -4.5 15.5
c0 8 9.16699 15.5 27.5 22.5s37.833 10.5 58.5 10.5c39.333 0 68.333 -11.5 87 -34.5s28 -51.833 28 -86.5v-162c0 -4.66699 -2 -8.66699 -6 -12s-9.33301 -5 -16 -5c-5.33301 0 -10 1.66699 -14 5s-6 7.33301 -6 12v26c-28 -31.333 -61 -47 -99 -47
c-23.333 0 -42.666 7.16699 -57.999 21.5s-23 34.5 -23 60.5zM81.001 516.998c0 -16.667 4.83496 -29.334 14.502 -38.001s22.5 -13 38.5 -13c19.333 0 37.666 7.33301 54.999 22s26 29.334 26 44.001v38h-29c-32.667 0 -58.334 -3.66699 -77.001 -11s-28 -21.333 -28 -42z
" />
    <glyph glyph-name="guillemotleft" unicode="&#xab;" horiz-adv-x="381" 
d="M37 277c0 6 2.66602 13.332 7.99902 21.999l92 172c4.66699 6.66699 11.334 10 20.001 10c6.66699 0 12.667 -2.5 18 -7.5s8 -10.5 8 -16.5c0 -3.33301 -1 -6.66602 -3 -9.99902l-92 -170l92 -169c2 -2.66699 3 -6 3 -10c0 -6 -2.83301 -11.5 -8.5 -16.5
s-12.167 -7.5 -19.5 -7.5c-8 0 -14 3.33301 -18 10l-92 171c-5.33301 8.66699 -8 16 -8 22zM194.999 276.999c0 6 2.66602 13.332 7.99902 21.999l92 172c4.66699 6.66699 11.334 10 20.001 10c6.66699 0 12.667 -2.5 18 -7.5s8 -10.5 8 -16.5
c0 -3.33301 -1 -6.66602 -3 -9.99902l-92 -170l92 -169c2 -2.66699 3 -6 3 -10c0 -6 -2.83301 -11.5 -8.5 -16.5s-12.167 -7.5 -19.5 -7.5s-13.333 3.33301 -18 10l-92 171c-5.33301 8.66699 -8 16 -8 22z" />
    <glyph glyph-name="logicalnot" unicode="&#xac;" horiz-adv-x="483" 
d="M58 240c0 6.66699 2.00195 12.167 6.00195 16.5s9 6.5 15 6.5h314c5.33301 0 10.166 -2.33301 14.499 -7s6.5 -10 6.5 -16v-156c0 -6 -2.33301 -11 -7 -15s-10.334 -6 -17.001 -6c-7.33301 0 -13.333 2 -18 6s-7 9 -7 15v134h-286c-6 0 -11 2 -15 6s-6 9.33301 -6 16z
" />
    <glyph glyph-name="uni00AD" unicode="&#xad;" horiz-adv-x="460" 
d="M49 240c0 6.66699 2 12.167 6 16.5s9 6.5 15 6.5h320c5.33301 0 10.166 -2.16699 14.499 -6.5s6.5 -9.83301 6.5 -16.5s-2.16699 -12 -6.5 -16s-9.16602 -6 -14.499 -6h-320c-6 0 -11 2 -15 6s-6 9.33301 -6 16z" />
    <glyph glyph-name="registered" unicode="&#xae;" horiz-adv-x="724" 
d="M55 358c0 53.333 9.5 101.5 28.5 144.5s43.833 77.333 74.5 103s63.834 45.334 99.501 59.001s71.5 20.5 107.5 20.5s71.667 -6.83301 107 -20.5s67.833 -33.334 97.5 -59.001s53.667 -59.667 72 -102s27.5 -89.5 27.5 -141.5c0 -53.333 -9.5 -101.5 -28.5 -144.5
s-43.833 -77.333 -74.5 -103s-63.834 -45.334 -99.501 -59.001s-71.5 -20.5 -107.5 -20.5s-71.667 6.83301 -107 20.5s-67.833 33.334 -97.5 59.001s-53.667 59.667 -72 102s-27.5 89.5 -27.5 141.5zM94 358c0 -83.333 24.5 -151.5 73.5 -204.5s112.833 -79.5 191.5 -79.5
s143.5 26.667 194.5 80s76.5 122.666 76.5 207.999c0 83.333 -24.5 151.5 -73.5 204.5s-112.833 79.5 -191.5 79.5s-143.5 -26.667 -194.5 -80s-76.5 -122.666 -76.5 -207.999zM270 186v361c0 8.66699 5 13.667 15 15h86c68.667 0 103 -35.667 103 -107
c0 -58.667 -23 -93.334 -69 -104.001l68 -153c1.33301 -4 2 -6.33301 2 -7c0 -5.33301 -2.5 -10.166 -7.5 -14.499s-10.5 -6.5 -16.5 -6.5s-11.667 6 -17 18l-72 158h-51v-160c0 -10 -6.66699 -15 -20 -15c-14 0 -21 5 -21 15zM311 381h60c42 0 63 23.667 63 71
c0 48 -21 72 -63 72h-60v-143z" />
    <glyph glyph-name="macron" unicode="&#xaf;" horiz-adv-x="260" 
d="M0 662c0 14.667 7 22 21 22h217c5.33301 0 10.333 -2.16699 15 -6.5s7 -9.5 7 -15.5s-2.16699 -10.833 -6.5 -14.5s-9.5 -5.5 -15.5 -5.5h-217c-14 0 -21 6.66699 -21 20z" />
    <glyph glyph-name="degree" unicode="&#xb0;" horiz-adv-x="425" 
d="M35 588c0 48 17.499 89.999 52.499 125.999s76.5 54 124.5 54s89.667 -17.667 125 -53s53 -77.666 53 -126.999c0 -48 -17.833 -90.333 -53.5 -127s-77.167 -55 -124.5 -55s-88.666 18.333 -123.999 55s-53 79 -53 127zM77.999 587.999c0 -36 13.167 -68.167 39.5 -96.5
s57.833 -42.5 94.5 -42.5s68.334 14.167 95.001 42.5s40 60.5 40 96.5c0 35.333 -13.333 67 -40 95s-58.334 42 -95.001 42s-68.167 -13.833 -94.5 -41.5s-39.5 -59.5 -39.5 -95.5z" />
    <glyph glyph-name="plusminus" unicode="&#xb1;" horiz-adv-x="475" 
d="M56 85c0 6.66699 2 12.167 6 16.5s9 6.5 15 6.5h320c6 0 11.167 -2.33301 15.5 -7s6.5 -10 6.5 -16s-2.16699 -11.167 -6.5 -15.5s-9.5 -6.5 -15.5 -6.5h-320c-6 0 -11 2 -15 6s-6 9.33301 -6 16zM56 349c0 6.66699 2 12.167 6 16.5s9 6.5 15 6.5h138v135
c0 6 2.16699 11.167 6.5 15.5s9.83301 6.5 16.5 6.5c6 0 11.167 -2.16699 15.5 -6.5s6.5 -9.5 6.5 -15.5v-135h137c6 0 11.167 -2.33301 15.5 -7s6.5 -10 6.5 -16c0 -6.66699 -2.16699 -12.167 -6.5 -16.5s-9.5 -6.5 -15.5 -6.5h-137v-136c0 -6 -2 -11 -6 -15
s-9.33301 -6 -16 -6s-12.167 2 -16.5 6s-6.5 9 -6.5 15v136h-138c-14 0 -21 7.66699 -21 23z" />
    <glyph glyph-name="uni00B2" unicode="&#xb2;" horiz-adv-x="303" 
d="M35 375l-0.00195312 49.001c0 18.667 9.83301 37.167 29.5 55.5s41.5 34 65.5 47s45.833 28.833 65.5 47.5s29.5 37.334 29.5 56.001c0 16.667 -6.5 31.167 -19.5 43.5s-31.167 18.5 -54.5 18.5c-20 0 -36 -4.83301 -48 -14.5s-18 -23.5 -18 -41.5
c0 -4 -2 -7.66699 -6 -11s-9.33301 -5 -16 -5c-12.667 0 -19 8 -19 24c0 25.333 10.333 46.166 31 62.499s46.334 24.5 77.001 24.5c32.667 0 59.834 -9.5 81.501 -28.5s32.5 -42.5 32.5 -70.5c0 -20 -6.5 -38.833 -19.5 -56.5s-28.667 -32.834 -47 -45.501
s-36.833 -24.5 -55.5 -35.5s-34.5 -22.5 -47.5 -34.5s-19.5 -24 -19.5 -36v-26h178c4 0 7.5 -1.83301 10.5 -5.5s4.5 -8.16699 4.5 -13.5s-1.5 -9.83301 -4.5 -13.5s-6.5 -5.5 -10.5 -5.5h-201c-4.66699 0 -9 1.5 -13 4.5s-6 6.5 -6 10.5z" />
    <glyph glyph-name="uni00B3" unicode="&#xb3;" horiz-adv-x="309" 
d="M32 443c0 7.33301 1.50098 12.333 4.50098 15s7.83301 4 14.5 4c14.667 0 22 -5.33301 22 -16c0 -12.667 6.16699 -24.334 18.5 -35.001s31.833 -16 58.5 -16c53.333 0 80 23.667 80 71v9c0 41.333 -26.333 62 -79 62c-10.667 0 -16 5.66699 -16 17
c0 12 5.33301 18 16 18c22.667 0 39.667 4.5 51 13.5s17 24.833 17 47.5c0 40.667 -22 61 -66 61c-25.333 0 -43.333 -5 -54 -15s-16 -21.667 -16 -35c0 -12 -6.66699 -18 -20 -18c-8.66699 0 -14.334 1.5 -17.001 4.5s-4 8.5 -4 16.5c0 20.667 8.66699 39.834 26 57.501
s46 26.5 86 26.5c70 0 105 -30 105 -90c0 -44 -15.333 -72.333 -46 -85c38 -14 57 -41 57 -81v-9c0 -37.333 -11 -64.833 -33 -82.5s-50.667 -26.5 -86 -26.5c-37.333 0 -66.5 8.83301 -87.5 26.5s-31.5 37.5 -31.5 59.5z" />
    <glyph glyph-name="acute" unicode="&#xb4;" horiz-adv-x="143" 
d="M0 619c0 7.33301 2.99902 12.334 8.99902 15.001l107 61c2.66699 1.33301 5.33398 2 8.00098 2c6 0 10.667 -2.33301 14 -7s5 -10 5 -16c0 -8.66699 -3.66699 -15.334 -11 -20.001l-100 -55c-2.66699 -2 -6 -3 -10 -3c-6 0 -11.167 2.33301 -15.5 7s-6.5 10 -6.5 16z" />
    <glyph glyph-name="uni00B5" unicode="&#xb5;" horiz-adv-x="483" 
d="M74 -214v665.001c0 5.33301 2.33301 10.166 7 14.499s10.334 6.5 17.001 6.5s12.5 -2.16699 17.5 -6.5s7.5 -9.16602 7.5 -14.499v-295c0 -23.333 14.5 -48.5 43.5 -75.5s59.833 -40.5 92.5 -40.5c33.333 0 62.833 14.167 88.5 42.5s38.5 59.833 38.5 94.5v274
c0 14 8 21 24 21c16.667 0 25 -7 25 -21v-274c0 -50.667 -17.167 -93.834 -51.5 -129.501s-76.5 -53.5 -126.5 -53.5c-30 0 -57.167 6.66699 -81.5 20s-42.5 30 -54.5 50v-278c0 -6 -2.33301 -11 -7 -15s-10 -6 -16 -6c-6.66699 0 -12.334 2 -17.001 6s-7 9 -7 15z" />
    <glyph glyph-name="paragraph" unicode="&#xb6;" horiz-adv-x="517" 
d="M35 513v12.001c0 71.333 17.833 123.5 53.5 156.5s83.167 49.5 142.5 49.5h185c14 0 21 -7.33301 21 -22v-688c0 -14 -7 -21 -21 -21c-14.667 0 -22 7 -22 21v670h-76v-669c0 -14.667 -7 -22 -21 -22c-14.667 0 -22 7.33301 -22 22v284h-44
c-59.333 0 -106.833 16.667 -142.5 50s-53.5 85.666 -53.5 156.999z" />
    <glyph glyph-name="periodcentered" unicode="&#xb7;" horiz-adv-x="177" 
d="M48 300c0 11.333 3.83301 20.833 11.5 28.5s17.5 11.5 29.5 11.5c11.333 0 20.833 -4 28.5 -12s11.5 -17.333 11.5 -28s-4 -20 -12 -28s-17.333 -12 -28 -12c-12 0 -21.833 4 -29.5 12s-11.5 17.333 -11.5 28z" />
    <glyph glyph-name="cedilla" unicode="&#xb8;" horiz-adv-x="161" 
d="M0 -184c0 4 1.33301 8.50195 4 13.502s6 7.5 10 7.5l18 -7c12 -4 24.667 -6 38 -6c36 0 54 13.333 54 40c0 26 -22.333 40.667 -67 44l-33 2l25 99h35l-18 -72c32 -0.666992 55.833 -7.83398 71.5 -21.501s23.5 -30.167 23.5 -49.5c0 -20 -7.5 -37.333 -22.5 -52
s-35.833 -22 -62.5 -22c-16 0 -32.667 2.16699 -50 6.5s-26 10.166 -26 17.499z" />
    <glyph glyph-name="uni00B9" unicode="&#xb9;" horiz-adv-x="163" 
d="M21 651c0 6 2.66699 11.667 8 17l49 57c5.33301 4 10.333 6 15 6c4 0 7.83301 -1.5 11.5 -4.5s5.5 -6.5 5.5 -10.5v-341c0 -10 -6.66699 -15 -20 -15c-14 0 -21 5 -21 15v293l-22 -28c-2.66699 -4 -6 -6 -10 -6c-10.667 0 -16 5.66699 -16 17z" />
    <glyph glyph-name="ordmasculine" unicode="&#xba;" horiz-adv-x="325" 
d="M42 550v66.999c0 32 11.833 59.667 35.5 83s52.167 35 85.5 35c32 0 60 -11.667 84 -35s36 -51 36 -83v-67c0 -31.333 -12 -59.166 -36 -83.499s-52 -36.5 -84 -36.5c-32.667 0 -61 12 -85 36s-36 52 -36 84zM86 549.999c0 -21.333 7.5 -40 22.5 -56s33.167 -24 54.5 -24
c20.667 0 38.5 8.16699 53.5 24.5s22.5 34.833 22.5 55.5v67c0 20.667 -7.33301 38.834 -22 54.501s-32.667 23.5 -54 23.5s-39.5 -7.83301 -54.5 -23.5s-22.5 -33.834 -22.5 -54.501v-67z" />
    <glyph glyph-name="guillemotright" unicode="&#xbb;" horiz-adv-x="381" 
d="M40 98c0 4 0.999023 7.33398 2.99902 10.001l92 169l-92 170c-2 3.33301 -3 6.66602 -3 9.99902c0 6 2.66699 11.5 8 16.5s11.333 7.5 18 7.5c8.66699 0 15.334 -3.33301 20.001 -10l92 -172c5.33301 -8.66699 8 -16 8 -22s-2.66699 -13.333 -8 -22l-92 -171
c-4 -6.66699 -10 -10 -18 -10c-6.66699 0 -13 2.5 -19 7.5s-9 10.5 -9 16.5zM197.999 98.001c0 4 1 7.33203 3 9.99902l92 169l-92 170c-2 3.33301 -3 6.66602 -3 9.99902c0 6 2.66699 11.5 8 16.5s11.333 7.5 18 7.5c10 0 16.667 -3.33301 20 -10l93 -172
c4.66699 -9.33301 7 -16.666 7 -21.999s-2.33301 -12.666 -7 -21.999l-93 -171c-4 -6.66699 -10 -10 -18 -10c-6.66699 0 -13 2.5 -19 7.5s-9 10.5 -9 16.5z" />
    <glyph glyph-name="onequarter" unicode="&#xbc;" horiz-adv-x="589" 
d="M33 651c0 6 2.66699 11.667 8 17l49 57c5.33301 4 10.333 6 15 6c4 0 7.83301 -1.5 11.5 -4.5s5.5 -6.5 5.5 -10.5v-341c0 -10 -6.66699 -15 -20 -15c-14 0 -21 5 -21 15v293l-22 -28c-2.66699 -4 -6 -6 -10 -6c-10.667 0 -16 5.66699 -16 17zM69 -4
c0 4.66699 0.666016 8.33301 1.99902 11l387 751c2.66699 6.66699 8 10 16 10c5.33301 0 10.5 -2.16699 15.5 -6.5s7.5 -9.83301 7.5 -16.5c0 -3.33301 -1 -7 -3 -11l-384 -744c-4 -8.66699 -10.667 -13 -20 -13c-5.33301 0 -10.166 2 -14.499 6s-6.5 8.33301 -6.5 13z
M317.999 101.999c0 2 0.666992 5 2 9l141 247c4 8.66699 10.333 13 19 13c4.66699 0 9.16699 -1.66699 13.5 -5s6.5 -7.33301 6.5 -12c0 -2 -0.666992 -4.33301 -2 -7l-127 -222h105v87c0 9.33301 6.66699 14 20 14c14 0 21 -4.66699 21 -14v-87h31
c10.667 0 16 -6.66699 16 -20c0 -4.66699 -1.66699 -9 -5 -13s-7 -6 -11 -6h-31v-71c0 -10 -7 -15 -21 -15c-13.333 0 -20 5 -20 15v71h-143c-10 0 -15 5.33301 -15 16z" />
    <glyph glyph-name="onehalf" unicode="&#xbd;" horiz-adv-x="613" 
d="M36 651c0 6 2.66699 11.667 8 17l49 57c5.33301 4 10.333 6 15 6c4 0 7.83301 -1.5 11.5 -4.5s5.5 -6.5 5.5 -10.5v-341c0 -10 -6.66699 -15 -20 -15c-14 0 -21 5 -21 15v293l-22 -28c-2.66699 -4 -6 -6 -10 -6c-10.667 0 -16 5.66699 -16 17zM56 -4
c0 4.66699 0.666016 8.33301 1.99902 11l387 751c2.66699 6.66699 8 10 16 10c5.33301 0 10.5 -2.16699 15.5 -6.5s7.5 -9.83301 7.5 -16.5c0 -3.33301 -1 -7 -3 -11l-384 -744c-4 -8.66699 -10.667 -13 -20 -13c-5.33301 0 -10.166 2 -14.499 6s-6.5 8.33301 -6.5 13z
M342.999 14.999l-0.00195312 49.001c0 18.667 9.83301 37.167 29.5 55.5s41.5 34 65.5 47s45.833 28.833 65.5 47.5s29.5 37.334 29.5 56.001c0 16.667 -6.5 31.167 -19.5 43.5s-31.167 18.5 -54.5 18.5c-20 0 -36 -4.83301 -48 -14.5s-18 -23.5 -18 -41.5
c0 -4 -2 -7.66699 -6 -11s-9.33301 -5 -16 -5c-12.667 0 -19 8 -19 24c0 25.333 10.333 46.166 31 62.499s46.334 24.5 77.001 24.5c32.667 0 59.834 -9.5 81.501 -28.5s32.5 -42.5 32.5 -70.5c0 -20 -6.5 -38.833 -19.5 -56.5s-28.833 -32.834 -47.5 -45.501
s-37.167 -24.5 -55.5 -35.5s-34 -22.5 -47 -34.5s-19.5 -23.667 -19.5 -35v-27h178c4 0 7.5 -1.83301 10.5 -5.5s4.5 -8.16699 4.5 -13.5c0 -4.66699 -1.5 -9 -4.5 -13s-6.5 -6 -10.5 -6h-201c-4.66699 0 -9 1.5 -13 4.5s-6 6.5 -6 10.5z" />
    <glyph glyph-name="threequarters" unicode="&#xbe;" horiz-adv-x="720" 
d="M34 443c0 7.33301 1.50098 12.333 4.50098 15s7.83301 4 14.5 4c14.667 0 22 -5.33301 22 -16c0 -12.667 6.16699 -24.334 18.5 -35.001s31.833 -16 58.5 -16c53.333 0 80 23.667 80 71v9c0 41.333 -26.333 62 -79 62c-10.667 0 -16 5.66699 -16 17
c0 12 5.33301 18 16 18c22.667 0 39.667 4.5 51 13.5s17 24.833 17 47.5c0 40.667 -22 61 -66 61c-25.333 0 -43.333 -5 -54 -15s-16 -21.667 -16 -35c0 -12 -6.66699 -18 -20 -18c-8.66699 0 -14.334 1.5 -17.001 4.5s-4 8.5 -4 16.5c0 20.667 8.66699 39.834 26 57.501
s46 26.5 86 26.5c70 0 105 -30 105 -90c0 -44 -15.333 -72.333 -46 -85c38 -14 57 -41 57 -81v-9c0 -37.333 -11 -64.833 -33 -82.5s-50.667 -26.5 -86 -26.5c-37.333 0 -66.5 8.83301 -87.5 26.5s-31.5 37.5 -31.5 59.5zM193.001 -4c0 4.66699 0.666016 8.33301 1.99902 11
l387 751c2.66699 6.66699 8 10 16 10c5.33301 0 10.5 -2.16699 15.5 -6.5s7.5 -9.83301 7.5 -16.5c0 -3.33301 -1 -7 -3 -11l-384 -744c-4 -8.66699 -10.667 -13 -20 -13c-5.33301 0 -10.166 2 -14.499 6s-6.5 8.33301 -6.5 13zM449 101.999c0 2 0.666992 5 2 9l141 247
c4 8.66699 10.333 13 19 13c4.66699 0 9.16699 -1.66699 13.5 -5s6.5 -7.33301 6.5 -12c0 -2 -0.666992 -4.33301 -2 -7l-127 -222h105v87c0 9.33301 6.66699 14 20 14c14 0 21 -4.66699 21 -14v-87h31c10.667 0 16 -6.66699 16 -20c0 -4.66699 -1.66699 -9 -5 -13
s-7 -6 -11 -6h-31v-71c0 -10 -7 -15 -21 -15c-13.333 0 -20 5 -20 15v71h-143c-10 0 -15 5.33301 -15 16z" />
    <glyph glyph-name="questiondown" unicode="&#xbf;" horiz-adv-x="390" 
d="M36 174c0 30 5.66895 58.4971 17.002 85.4971s23.333 47.5 36 61.5s28.667 30.333 48 49s31.666 31.334 36.999 38.001c13.333 15.333 21.666 33.833 24.999 55.5s5 55.5 5 101.5c0 13.333 7.33301 20 22 20c14 0 21 -7.66699 21 -23c0 -54 -3 -93.5 -9 -118.5
s-15.667 -44.833 -29 -59.5c-6 -6.66699 -18.333 -18.667 -37 -36s-33.334 -32.166 -44.001 -44.499s-21 -30 -31 -53s-15 -47.5 -15 -73.5c0 -44 12.167 -78.167 36.5 -102.5s59.833 -36.5 106.5 -36.5c25.333 0 46.5 3.66699 63.5 11s29.833 14.833 38.5 22.5
s15.334 11.5 20.001 11.5s9 -2.16699 13 -6.5s6 -9.5 6 -15.5c0 -15.333 -14.667 -30.333 -44 -45s-63 -22 -101 -22c-60 0 -105.833 16.833 -137.5 50.5s-47.5 76.834 -47.5 129.501zM186.002 704.997c0 11.333 3.83301 21 11.5 29s17.167 12 28.5 12s20.833 -4 28.5 -12
s11.5 -17.667 11.5 -29s-4 -21 -12 -29s-17.333 -12 -28 -12s-20 4 -28 12s-12 17.667 -12 29z" />
    <glyph glyph-name="Agrave" unicode="&#xc0;" horiz-adv-x="530" 
d="M23 22c0 2.66699 0.333008 4.66699 1 6l214 691c4 12 13.333 18 28 18s24 -6 28 -18l212 -691c0 -0.666992 0.166992 -1.5 0.5 -2.5s0.5 -2.16699 0.5 -3.5c0 -6 -3 -11.167 -9 -15.5s-12.667 -6.5 -20 -6.5c-10.667 0 -17.334 5 -20.001 15l-49 159h-288l-48 -159
c-3.33301 -10 -10.666 -15 -21.999 -15c-7.33301 0 -13.833 2 -19.5 6s-8.5 9.33301 -8.5 16zM134 220h261l-129 427zM192 931c0 6 1.83301 11.332 5.5 15.999s8.5 7 14.5 7c2 0 4.33301 -0.666992 7 -2l107 -61c6 -2.66699 9 -7.66699 9 -15
c0 -6 -2.16699 -11.333 -6.5 -16s-9.5 -7 -15.5 -7c-2.66699 0 -6 1 -10 3l-100 55c-7.33301 4.66699 -11 11.334 -11 20.001z" />
    <glyph glyph-name="Aacute" unicode="&#xc1;" horiz-adv-x="530" 
d="M23 22c0 2.66699 0.333008 4.66699 1 6l214 691c4 12 13.333 18 28 18s24 -6 28 -18l212 -691c0 -0.666992 0.166992 -1.5 0.5 -2.5s0.5 -2.16699 0.5 -3.5c0 -6 -3 -11.167 -9 -15.5s-12.667 -6.5 -20 -6.5c-10.667 0 -17.334 5 -20.001 15l-49 159h-288l-48 -159
c-3.33301 -10 -10.666 -15 -21.999 -15c-7.33301 0 -13.833 2 -19.5 6s-8.5 9.33301 -8.5 16zM134 220h261l-129 427zM198 876c0 7.33301 2.99902 12.334 8.99902 15.001l107 61c2.66699 1.33301 5.33398 2 8.00098 2c6 0 10.667 -2.33301 14 -7s5 -10 5 -16
c0 -8.66699 -3.66699 -15.334 -11 -20.001l-100 -55c-2.66699 -2 -6 -3 -10 -3c-6 0 -11.167 2.33301 -15.5 7s-6.5 10 -6.5 16z" />
    <glyph glyph-name="Acircumflex" unicode="&#xc2;" horiz-adv-x="530" 
d="M23 22c0 2.66699 0.333008 4.66699 1 6l214 691c4 12 13.333 18 28 18s24 -6 28 -18l212 -691c0 -0.666992 0.166992 -1.5 0.5 -2.5s0.5 -2.16699 0.5 -3.5c0 -6 -3 -11.167 -9 -15.5s-12.667 -6.5 -20 -6.5c-10.667 0 -17.334 5 -20.001 15l-49 159h-288l-48 -159
c-3.33301 -10 -10.666 -15 -21.999 -15c-7.33301 0 -13.833 2 -19.5 6s-8.5 9.33301 -8.5 16zM133 876c0 8 3.66699 13.667 11 17l104 56c5.33301 3.33301 11 5 17 5s11.667 -1.66699 17 -5l104 -55c7.33301 -4 11 -10.667 11 -20c0 -5.33301 -1.83301 -10 -5.5 -14
s-8.16699 -6 -13.5 -6l-9 3l-104 55l-104 -56c-0.666992 0 -2 -0.5 -4 -1.5s-3.33301 -1.5 -4 -1.5c-5.33301 0 -10 2.16699 -14 6.5s-6 9.83301 -6 16.5zM134 220h261l-129 427z" />
    <glyph glyph-name="Atilde" unicode="&#xc3;" horiz-adv-x="530" 
d="M23 22c0 2.66699 0.333008 4.66699 1 6l214 691c4 12 13.333 18 28 18s24 -6 28 -18l212 -691c0 -0.666992 0.166992 -1.5 0.5 -2.5s0.5 -2.16699 0.5 -3.5c0 -6 -3 -11.167 -9 -15.5s-12.667 -6.5 -20 -6.5c-10.667 0 -17.334 5 -20.001 15l-49 159h-288l-48 -159
c-3.33301 -10 -10.666 -15 -21.999 -15c-7.33301 0 -13.833 2 -19.5 6s-8.5 9.33301 -8.5 16zM115 895c0 14.667 10.167 27.333 30.5 38s39.833 16 58.5 16c16.667 0 38 -6 64 -18s47.667 -18 65 -18s32 5.16699 44 15.5s19.667 15.5 23 15.5c4.66699 0 8.66699 -2 12 -6
s5 -8.33301 5 -13c0 -16 -9.5 -29 -28.5 -39s-37.5 -15 -55.5 -15c-16.667 0 -38 6 -64 18s-48.333 18 -67 18c-16.667 0 -32 -5.5 -46 -16.5s-22.333 -16.5 -25 -16.5c-10.667 0 -16 7 -16 21zM134 219.999h261l-129 427z" />
    <glyph glyph-name="Adieresis" unicode="&#xc4;" horiz-adv-x="530" 
d="M23 22c0 2.66699 0.333008 4.66699 1 6l214 691c4 12 13.333 18 28 18s24 -6 28 -18l212 -691c0 -0.666992 0.166992 -1.5 0.5 -2.5s0.5 -2.16699 0.5 -3.5c0 -6 -3 -11.167 -9 -15.5s-12.667 -6.5 -20 -6.5c-10.667 0 -17.334 5 -20.001 15l-49 159h-288l-48 -159
c-3.33301 -10 -10.666 -15 -21.999 -15c-7.33301 0 -13.833 2 -19.5 6s-8.5 9.33301 -8.5 16zM134 220h261l-129 427zM174 887c0 9.33301 3.16699 17 9.5 23s14.166 9 23.499 9s17 -3 23 -9s9 -13.667 9 -23s-3 -17.166 -9 -23.499s-13.667 -9.5 -23 -9.5
s-17.166 3.16699 -23.499 9.5s-9.5 14.166 -9.5 23.499zM291 887c0 9.33301 3 17 9 23s14 9 24 9c9.33301 0 17 -3 23 -9s9 -13.667 9 -23s-3 -17.166 -9 -23.499s-13.667 -9.5 -23 -9.5c-10 0 -18 3.16699 -24 9.5s-9 14.166 -9 23.499z" />
    <glyph glyph-name="Aring" unicode="&#xc5;" horiz-adv-x="530" 
d="M23 22c0 2.66699 0.333008 4.66699 1 6l214 691c4 12 13.333 18 28 18s24 -6 28 -18l212 -691c0 -0.666992 0.166992 -1.5 0.5 -2.5s0.5 -2.16699 0.5 -3.5c0 -6 -3 -11.167 -9 -15.5s-12.667 -6.5 -20 -6.5c-10.667 0 -17.334 5 -20.001 15l-49 159h-288l-48 -159
c-3.33301 -10 -10.666 -15 -21.999 -15c-7.33301 0 -13.833 2 -19.5 6s-8.5 9.33301 -8.5 16zM134 220h261l-129 427zM174 933c0 24.667 8.83301 46.167 26.5 64.5s39.167 27.5 64.5 27.5c24 0 45.167 -9.16699 63.5 -27.5s27.5 -39.833 27.5 -64.5
s-9.16699 -46.5 -27.5 -65.5s-39.5 -28.5 -63.5 -28.5c-24.667 0 -46 9.33301 -64 28s-27 40.667 -27 66zM202 933c0 -16.667 6.33301 -32 19 -46s27.334 -21 44.001 -21s31.167 6.83301 43.5 20.5s18.5 29.167 18.5 46.5c0 15.333 -6.16699 29.5 -18.5 42.5
s-26.833 19.5 -43.5 19.5s-31.334 -6.5 -44.001 -19.5s-19 -27.167 -19 -42.5z" />
    <glyph glyph-name="AE" unicode="&#xc6;" horiz-adv-x="697" 
d="M76 27l-0.000976562 494c0 72.667 18.333 125.834 55 159.501s85.334 50.5 146.001 50.5h373c13.333 0 20 -7.66699 20 -23c0 -16.667 -6.66699 -25 -20 -25h-236v-294h154c6 0 11 -2.33301 15 -7s6 -10.334 6 -17.001c0 -14.667 -7 -22 -21 -22h-154v-295h236
c13.333 0 20 -8.33301 20 -25c0 -15.333 -6.66699 -23 -20 -23h-262c-16 -0 -24 7.33301 -24 22v321h-239v-316c0 -18 -8.33301 -27 -25 -27c-16 0 -24 9 -24 27zM124.999 389h239v294h-87c-48.667 0 -86.167 -13.5 -112.5 -40.5s-39.5 -67.5 -39.5 -121.5v-132z" />
    <glyph glyph-name="Ccedilla" unicode="&#xc7;" horiz-adv-x="517" 
d="M72 204l-0.000976562 317.004c0 72 18.833 125 56.5 159s86.834 51 147.501 51c61.333 0 109.833 -15.833 145.5 -47.5s53.5 -69.834 53.5 -114.501c0 -12.667 -2 -21.334 -6 -26.001s-10.333 -7 -19 -7c-16.667 0 -25 7 -25 21c-0.666992 14 -3.16699 27.167 -7.5 39.5
s-11.333 25.666 -21 39.999s-24.834 25.666 -45.501 33.999s-45.667 12.5 -75 12.5c-102.667 0 -154 -54 -154 -162v-317c0 -108 52.333 -162 157 -162c24 0 44.833 3 62.5 9s31.334 12.833 41.001 20.5s17.667 18.334 24 32.001s10.5 24.5 12.5 32.5s4 19 6 33
c1.33301 14 9.33301 21 24 21c9.33301 0 16 -2.33301 20 -7s6 -13.667 6 -27c0 -39.333 -14.833 -74.166 -44.5 -104.499s-70.167 -48.5 -121.5 -54.5l-15 -60c32 -0.666992 55.833 -7.83398 71.5 -21.501s23.5 -30.167 23.5 -49.5c0 -20 -7.5 -37.333 -22.5 -52
s-35.833 -22 -62.5 -22c-16 0 -32.667 2.16699 -50 6.5s-26 10.166 -26 17.499c0 4 1.33301 8.5 4 13.5s6 7.5 10 7.5l18 -7c12 -4 24.667 -6 38 -6c36 0 54 13.333 54 40c0 26 -22.333 40.667 -67 44l-33 2l21 84c-60 0 -108.5 17 -145.5 51s-55.5 87 -55.5 159z" />
    <glyph glyph-name="Egrave" unicode="&#xc8;" horiz-adv-x="503" 
d="M79 22v687.001c0 14.667 8 22 24 22h356c14 0 21 -7.66699 21 -23c0 -6.66699 -2 -12.5 -6 -17.5s-9 -7.5 -15 -7.5h-330v-294h159c6 0 11 -2.33301 15 -7s6 -10.334 6 -17.001c0 -14.667 -7 -22 -21 -22h-159v-295h330c6 0 11 -2.5 15 -7.5s6 -10.833 6 -17.5
c0 -15.333 -7 -23 -21 -23h-356c-16 -0 -24 7.33301 -24 22zM207 931.001c0 6 1.83301 11.332 5.5 15.999s8.5 7 14.5 7c2 0 4.33301 -0.666992 7 -2l107 -61c6 -2.66699 9 -7.66699 9 -15c0 -6 -2.16699 -11.333 -6.5 -16s-9.5 -7 -15.5 -7c-2.66699 0 -6 1 -10 3l-100 55
c-7.33301 4.66699 -11 11.334 -11 20.001z" />
    <glyph glyph-name="Eacute" unicode="&#xc9;" horiz-adv-x="503" 
d="M79 22v687.001c0 14.667 8 22 24 22h356c14 0 21 -7.66699 21 -23c0 -6.66699 -2 -12.5 -6 -17.5s-9 -7.5 -15 -7.5h-330v-294h159c6 0 11 -2.33301 15 -7s6 -10.334 6 -17.001c0 -14.667 -7 -22 -21 -22h-159v-295h330c6 0 11 -2.5 15 -7.5s6 -10.833 6 -17.5
c0 -15.333 -7 -23 -21 -23h-356c-16 -0 -24 7.33301 -24 22zM210 876.001c0 7.33301 2.99902 12.334 8.99902 15.001l107 61c2.66699 1.33301 5.33398 2 8.00098 2c6 0 10.667 -2.33301 14 -7s5 -10 5 -16c0 -8.66699 -3.66699 -15.334 -11 -20.001l-100 -55
c-2.66699 -2 -6 -3 -10 -3c-6 0 -11.167 2.33301 -15.5 7s-6.5 10 -6.5 16z" />
    <glyph glyph-name="Ecircumflex" unicode="&#xca;" horiz-adv-x="503" 
d="M79 22v687.001c0 14.667 8 22 24 22h356c14 0 21 -7.66699 21 -23c0 -6.66699 -2 -12.5 -6 -17.5s-9 -7.5 -15 -7.5h-330v-294h159c6 0 11 -2.33301 15 -7s6 -10.334 6 -17.001c0 -14.667 -7 -22 -21 -22h-159v-295h330c6 0 11 -2.5 15 -7.5s6 -10.833 6 -17.5
c0 -15.333 -7 -23 -21 -23h-356c-16 -0 -24 7.33301 -24 22zM148 876.001c0 8 3.66699 13.667 11 17l104 56c5.33301 3.33301 11 5 17 5s11.667 -1.66699 17 -5l104 -55c7.33301 -4 11 -10.667 11 -20c0 -5.33301 -1.83301 -10 -5.5 -14s-8.16699 -6 -13.5 -6l-9 3l-104 55
l-104 -56c-0.666992 0 -2 -0.5 -4 -1.5s-3.33301 -1.5 -4 -1.5c-5.33301 0 -10 2.16699 -14 6.5s-6 9.83301 -6 16.5z" />
    <glyph glyph-name="Edieresis" unicode="&#xcb;" horiz-adv-x="503" 
d="M79 22v687.001c0 14.667 8 22 24 22h356c14 0 21 -7.66699 21 -23c0 -6.66699 -2 -12.5 -6 -17.5s-9 -7.5 -15 -7.5h-330v-294h159c6 0 11 -2.33301 15 -7s6 -10.334 6 -17.001c0 -14.667 -7 -22 -21 -22h-159v-295h330c6 0 11 -2.5 15 -7.5s6 -10.833 6 -17.5
c0 -15.333 -7 -23 -21 -23h-356c-16 -0 -24 7.33301 -24 22zM188 887.001c0 9.33301 3.16699 17 9.5 23s14.166 9 23.499 9s17 -3 23 -9s9 -13.667 9 -23s-3 -17.166 -9 -23.499s-13.667 -9.5 -23 -9.5s-17.166 3.16699 -23.499 9.5s-9.5 14.166 -9.5 23.499zM305 887.001
c0 9.33301 3 17 9 23s14 9 24 9c9.33301 0 17 -3 23 -9s9 -13.667 9 -23s-3 -17.166 -9 -23.499s-13.667 -9.5 -23 -9.5c-10 0 -18 3.16699 -24 9.5s-9 14.166 -9 23.499z" />
    <glyph glyph-name="Igrave" unicode="&#xcc;" horiz-adv-x="208" 
d="M31 931c0 6 1.83301 11.332 5.5 15.999s8.5 7 14.5 7c2 0 4.33301 -0.666992 7 -2l107 -61c6 -2.66699 9 -7.66699 9 -15c0 -6 -2.16699 -11.333 -6.5 -16s-9.5 -7 -15.5 -7c-2.66699 0 -6 1 -10 3l-100 55c-7.33301 4.66699 -11 11.334 -11 20.001zM79 21.999v688
c0 14 8.33301 21 25 21s25 -7 25 -21v-688c0 -14.667 -8.33301 -22 -25 -22s-25 7.33301 -25 22z" />
    <glyph glyph-name="Iacute" unicode="&#xcd;" horiz-adv-x="208" 
d="M33 876c0 7.33301 2.99805 12.334 8.99805 15.001l107 61c2.66699 1.33301 5.33398 2 8.00098 2c6 0 10.667 -2.33301 14 -7s5 -10 5 -16c0 -8.66699 -3.66699 -15.334 -11 -20.001l-100 -55c-3.33301 -2 -6.66602 -3 -9.99902 -3c-6 0 -11.167 2.33301 -15.5 7
s-6.5 10 -6.5 16zM78.998 22.001v688c0 14 8.33301 21 25 21s25 -7 25 -21v-688c0 -14.667 -8.33301 -22 -25 -22s-25 7.33301 -25 22z" />
    <glyph glyph-name="Icircumflex" unicode="&#xce;" horiz-adv-x="208" 
d="M-27 876c0 8 3.66699 13.667 11 17l104 56c5.33301 3.33301 11 5 17 5s11.667 -1.66699 17 -5l104 -55c7.33301 -4 11 -10.667 11 -20c0 -5.33301 -1.83301 -10 -5.5 -14s-8.16699 -6 -13.5 -6l-9 3l-104 55l-104 -56c-0.666992 0 -2 -0.5 -4 -1.5s-3.33301 -1.5 -4 -1.5
c-5.33301 0 -10 2.16699 -14 6.5s-6 9.83301 -6 16.5zM79 22v688c0 14 8.33301 21 25 21s25 -7 25 -21v-688c0 -14.667 -8.33301 -22 -25 -22s-25 7.33301 -25 22z" />
    <glyph glyph-name="Idieresis" unicode="&#xcf;" horiz-adv-x="208" 
d="M13 887c0 9.33301 3.16699 17 9.5 23s14.166 9 23.499 9s17 -3 23 -9s9 -13.667 9 -23s-3 -17.166 -9 -23.499s-13.667 -9.5 -23 -9.5s-17.166 3.16699 -23.499 9.5s-9.5 14.166 -9.5 23.499zM79 22v688c0 14 8.33301 21 25 21s25 -7 25 -21v-688
c0 -14.667 -8.33301 -22 -25 -22s-25 7.33301 -25 22zM130 887c0 9.33301 3 17 9 23s14 9 24 9c9.33301 0 17 -3 23 -9s9 -13.667 9 -23s-3 -17.166 -9 -23.499s-13.667 -9.5 -23 -9.5c-10 0 -18 3.16699 -24 9.5s-9 14.166 -9 23.499z" />
    <glyph glyph-name="Eth" unicode="&#xd0;" horiz-adv-x="564" 
d="M1 384c0 6 1.83301 11.1709 5.5 15.5039s8.5 6.5 14.5 6.5h68v304c0 5.33301 2.33301 10.166 7 14.499s10.334 6.5 17.001 6.5h177c60.667 0 109.5 -16.833 146.5 -50.5s55.5 -86.834 55.5 -159.501v-311c0 -72.667 -18.5 -125.834 -55.5 -159.501
s-85.833 -50.5 -146.5 -50.5h-177c-6.66699 0 -12.334 2.16699 -17.001 6.5s-7 9.16602 -7 14.499v341h-68c-6 0 -10.833 2.16699 -14.5 6.5s-5.5 9.5 -5.5 15.5zM139 48.0039h151c48.667 0 86.167 13.5 112.5 40.5s39.5 67.5 39.5 121.5v311c0 54 -13.167 94.5 -39.5 121.5
s-63.833 40.5 -112.5 40.5h-151v-277h123c5.33301 0 10 -2.16699 14 -6.5s6 -9.5 6 -15.5s-2 -11.167 -6 -15.5s-8.66699 -6.5 -14 -6.5h-123v-314z" />
    <glyph glyph-name="Ntilde" unicode="&#xd1;" horiz-adv-x="563" 
d="M79 22l-0.000976562 688c0 14 8.33301 21 25 21c12.667 0 26.334 -13.667 41.001 -41l289 -571v591c0 14 8.33301 21 25 21s25 -7 25 -21v-688c0 -14.667 -8.33301 -22 -25 -22c-10.667 -0 -22.667 12.333 -36 37l-294 576v-591c0 -14.667 -8.33301 -22 -25 -22
s-25 7.33301 -25 22zM129.999 895c0 14.667 10.167 27.333 30.5 38s39.833 16 58.5 16c16.667 0 38 -6 64 -18s47.667 -18 65 -18s32 5.16699 44 15.5s19.667 15.5 23 15.5c4.66699 0 8.66699 -2 12 -6s5 -8.33301 5 -13c0 -16 -9.5 -29 -28.5 -39s-37.5 -15 -55.5 -15
c-16.667 0 -38 6 -64 18s-48.333 18 -67 18c-16.667 0 -32 -5.5 -46 -16.5s-22.333 -16.5 -25 -16.5c-10.667 0 -16 7 -16 21z" />
    <glyph glyph-name="Ograve" unicode="&#xd2;" horiz-adv-x="547" 
d="M72 204v317c0 72.667 18.167 125.834 54.5 159.501s85.166 50.5 146.499 50.5c60.667 0 109.5 -16.833 146.5 -50.5s55.5 -86.834 55.5 -159.501v-317c0 -72.667 -18.5 -125.834 -55.5 -159.501s-85.833 -50.5 -146.5 -50.5c-61.333 0 -110.166 16.833 -146.499 50.5
s-54.5 86.834 -54.5 159.501zM122 204c0 -108 50.333 -162 151 -162c48.667 0 86.167 13.5 112.5 40.5s39.5 67.5 39.5 121.5v317c0 54 -13.167 94.5 -39.5 121.5s-63.833 40.5 -112.5 40.5c-100.667 0 -151 -54 -151 -162v-317zM200 931c0 6 1.83301 11.332 5.5 15.999
s8.5 7 14.5 7c2 0 4.33301 -0.666992 7 -2l107 -61c6 -2.66699 9 -7.66699 9 -15c0 -6 -2.16699 -11.333 -6.5 -16s-9.5 -7 -15.5 -7c-2.66699 0 -6 1 -10 3l-100 55c-7.33301 4.66699 -11 11.334 -11 20.001z" />
    <glyph glyph-name="Oacute" unicode="&#xd3;" horiz-adv-x="547" 
d="M72 204v317c0 72.667 18.167 125.834 54.5 159.501s85.166 50.5 146.499 50.5c60.667 0 109.5 -16.833 146.5 -50.5s55.5 -86.834 55.5 -159.501v-317c0 -72.667 -18.5 -125.834 -55.5 -159.501s-85.833 -50.5 -146.5 -50.5c-61.333 0 -110.166 16.833 -146.499 50.5
s-54.5 86.834 -54.5 159.501zM122 204c0 -108 50.333 -162 151 -162c48.667 0 86.167 13.5 112.5 40.5s39.5 67.5 39.5 121.5v317c0 54 -13.167 94.5 -39.5 121.5s-63.833 40.5 -112.5 40.5c-100.667 0 -151 -54 -151 -162v-317zM207 876
c0 7.33301 2.99805 12.334 8.99805 15.001l107 61c2.66699 1.33301 5.33398 2 8.00098 2c6 0 10.667 -2.33301 14 -7s5 -10 5 -16c0 -8.66699 -3.66699 -15.334 -11 -20.001l-100 -55c-3.33301 -2 -6.66602 -3 -9.99902 -3c-6 0 -11.167 2.33301 -15.5 7s-6.5 10 -6.5 16z
" />
    <glyph glyph-name="Ocircumflex" unicode="&#xd4;" horiz-adv-x="547" 
d="M72 204v317c0 72.667 18.167 125.834 54.5 159.501s85.166 50.5 146.499 50.5c60.667 0 109.5 -16.833 146.5 -50.5s55.5 -86.834 55.5 -159.501v-317c0 -72.667 -18.5 -125.834 -55.5 -159.501s-85.833 -50.5 -146.5 -50.5c-61.333 0 -110.166 16.833 -146.499 50.5
s-54.5 86.834 -54.5 159.501zM122 204c0 -108 50.333 -162 151 -162c48.667 0 86.167 13.5 112.5 40.5s39.5 67.5 39.5 121.5v317c0 54 -13.167 94.5 -39.5 121.5s-63.833 40.5 -112.5 40.5c-100.667 0 -151 -54 -151 -162v-317zM141 876c0 8 3.66699 13.667 11 17l104 56
c5.33301 3.33301 11 5 17 5s11.667 -1.66699 17 -5l104 -55c7.33301 -4 11 -10.667 11 -20c0 -5.33301 -1.83301 -10 -5.5 -14s-8.16699 -6 -13.5 -6l-9 3l-104 55l-104 -56c-0.666992 0 -2 -0.5 -4 -1.5s-3.33301 -1.5 -4 -1.5c-5.33301 0 -10 2.16699 -14 6.5
s-6 9.83301 -6 16.5z" />
    <glyph glyph-name="Otilde" unicode="&#xd5;" horiz-adv-x="547" 
d="M72 204v317c0 72.667 18.167 125.834 54.5 159.501s85.166 50.5 146.499 50.5c60.667 0 109.5 -16.833 146.5 -50.5s55.5 -86.834 55.5 -159.501v-317c0 -72.667 -18.5 -125.834 -55.5 -159.501s-85.833 -50.5 -146.5 -50.5c-61.333 0 -110.166 16.833 -146.499 50.5
s-54.5 86.834 -54.5 159.501zM122 204c0 -108 50.333 -162 151 -162c48.667 0 86.167 13.5 112.5 40.5s39.5 67.5 39.5 121.5v317c0 54 -13.167 94.5 -39.5 121.5s-63.833 40.5 -112.5 40.5c-100.667 0 -151 -54 -151 -162v-317zM122 895c0 14.667 10.167 27.333 30.5 38
s39.833 16 58.5 16c16.667 0 38 -6 64 -18s47.667 -18 65 -18s32 5.16699 44 15.5s19.667 15.5 23 15.5c4.66699 0 8.66699 -2 12 -6s5 -8.33301 5 -13c0 -16 -9.5 -29 -28.5 -39s-37.5 -15 -55.5 -15c-16.667 0 -38 6 -64 18s-48.333 18 -67 18
c-16.667 0 -32 -5.5 -46 -16.5s-22.333 -16.5 -25 -16.5c-10.667 0 -16 7 -16 21z" />
    <glyph glyph-name="Odieresis" unicode="&#xd6;" horiz-adv-x="547" 
d="M72 204v317c0 72.667 18.167 125.834 54.5 159.501s85.166 50.5 146.499 50.5c60.667 0 109.5 -16.833 146.5 -50.5s55.5 -86.834 55.5 -159.501v-317c0 -72.667 -18.5 -125.834 -55.5 -159.501s-85.833 -50.5 -146.5 -50.5c-61.333 0 -110.166 16.833 -146.499 50.5
s-54.5 86.834 -54.5 159.501zM122 204c0 -108 50.333 -162 151 -162c48.667 0 86.167 13.5 112.5 40.5s39.5 67.5 39.5 121.5v317c0 54 -13.167 94.5 -39.5 121.5s-63.833 40.5 -112.5 40.5c-100.667 0 -151 -54 -151 -162v-317zM182 887c0 9.33301 3.16699 17 9.5 23
s14.166 9 23.499 9s17 -3 23 -9s9 -13.667 9 -23s-3 -17.166 -9 -23.499s-13.667 -9.5 -23 -9.5s-17.166 3.16699 -23.499 9.5s-9.5 14.166 -9.5 23.499zM299 887c0 9.33301 3 17 9 23s14 9 24 9c9.33301 0 17 -3 23 -9s9 -13.667 9 -23s-3 -17.166 -9 -23.499
s-13.667 -9.5 -23 -9.5c-10 0 -18 3.16699 -24 9.5s-9 14.166 -9 23.499z" />
    <glyph glyph-name="multiply" unicode="&#xd7;" horiz-adv-x="395" 
d="M62 164c0 4 2.00098 8.66699 6.00098 14l99 97l-99 97c-3.33301 3.33301 -5 8.33301 -5 15c0 6 2.33301 11.333 7 16s10 7 16 7c5.33301 0 10.333 -1.66699 15 -5l96 -98l97 98c4.66699 3.33301 9.66699 5 15 5c6 0 11.333 -2.33301 16 -7s7 -10 7 -16
c0 -6.66699 -1.66699 -11.667 -5 -15l-99 -97l99 -97c4 -5.33301 6 -10 6 -14c0 -6 -2.5 -11.5 -7.5 -16.5s-10.5 -7.5 -16.5 -7.5c-4.66699 0 -9.33398 2 -14.001 6l-98 97l-97 -97c-5.33301 -4 -10 -6 -14 -6c-6 0 -11.5 2.5 -16.5 7.5s-7.5 10.5 -7.5 16.5z" />
    <glyph glyph-name="Oslash" unicode="&#xd8;" horiz-adv-x="547" 
d="M60 -4c0 4.66699 0.666992 8.33301 2 11l37 73c-18 32.667 -27 74 -27 124v317c0 72.667 18.167 125.834 54.5 159.501s85.166 50.5 146.499 50.5c58 0 104 -14.667 138 -44l37 71c3.33301 6.66699 9 10 17 10c5.33301 0 10.5 -2.16699 15.5 -6.5s7.5 -9.83301 7.5 -16.5
c0 -4 -1.33301 -7.66699 -4 -11l-42 -82c22 -33.333 33 -77 33 -131v-317c0 -72.667 -18.5 -125.834 -55.5 -159.501s-85.833 -50.5 -146.5 -50.5c-63.333 0 -111.666 16.333 -144.999 49l-27 -53c-4.66699 -8.66699 -11.667 -13 -21 -13c-5.33301 0 -10 1.83301 -14 5.5
s-6 8.16699 -6 13.5zM122 203.999c0 -23.333 2.66699 -45 8 -65l257 501c-26 28.667 -64 43 -114 43c-100.667 0 -151 -54 -151 -162v-317zM153 90.999c26 -32.667 66 -49 120 -49c48.667 0 86.167 13.5 112.5 40.5s39.5 67.5 39.5 121.5v317c0 28.667 -4 53.667 -12 75z
" />
    <glyph glyph-name="Ugrave" unicode="&#xd9;" horiz-adv-x="557" 
d="M76 204l-0.000976562 506c0 14 8.33301 21 25 21s25 -7 25 -21v-506c0 -54 13.167 -94.5 39.5 -121.5s63.833 -40.5 112.5 -40.5s86.334 13.5 113.001 40.5s40 67.5 40 121.5v506c0 14 8.33301 21 25 21s25 -7 25 -21v-506c0 -72.667 -18.5 -125.834 -55.5 -159.501
s-86.167 -50.5 -147.5 -50.5s-110.333 16.833 -147 50.5s-55 86.834 -55 159.501zM203.999 931c0 6 1.83301 11.332 5.5 15.999s8.5 7 14.5 7c2 0 4.33301 -0.666992 7 -2l107 -61c6 -2.66699 9 -7.66699 9 -15c0 -6 -2.16699 -11.333 -6.5 -16s-9.5 -7 -15.5 -7
c-2.66699 0 -6 1 -10 3l-100 55c-7.33301 4.66699 -11 11.334 -11 20.001z" />
    <glyph glyph-name="Uacute" unicode="&#xda;" horiz-adv-x="557" 
d="M76 204l-0.000976562 506c0 14 8.33301 21 25 21s25 -7 25 -21v-506c0 -54 13.167 -94.5 39.5 -121.5s63.833 -40.5 112.5 -40.5s86.334 13.5 113.001 40.5s40 67.5 40 121.5v506c0 14 8.33301 21 25 21s25 -7 25 -21v-506c0 -72.667 -18.5 -125.834 -55.5 -159.501
s-86.167 -50.5 -147.5 -50.5s-110.333 16.833 -147 50.5s-55 86.834 -55 159.501zM209.999 876c0 7.33301 2.99902 12.334 8.99902 15.001l107 61c2.66699 1.33301 5.33398 2 8.00098 2c6 0 10.667 -2.33301 14 -7s5 -10 5 -16c0 -8.66699 -3.66699 -15.334 -11 -20.001
l-100 -55c-2.66699 -2 -6 -3 -10 -3c-6 0 -11.167 2.33301 -15.5 7s-6.5 10 -6.5 16z" />
    <glyph glyph-name="Ucircumflex" unicode="&#xdb;" horiz-adv-x="557" 
d="M76 204l-0.000976562 506c0 14 8.33301 21 25 21s25 -7 25 -21v-506c0 -54 13.167 -94.5 39.5 -121.5s63.833 -40.5 112.5 -40.5s86.334 13.5 113.001 40.5s40 67.5 40 121.5v506c0 14 8.33301 21 25 21s25 -7 25 -21v-506c0 -72.667 -18.5 -125.834 -55.5 -159.501
s-86.167 -50.5 -147.5 -50.5s-110.333 16.833 -147 50.5s-55 86.834 -55 159.501zM144.999 876c0 8 3.66699 13.667 11 17l104 56c5.33301 3.33301 11 5 17 5s11.667 -1.66699 17 -5l104 -55c7.33301 -4 11 -10.667 11 -20c0 -5.33301 -1.83301 -10 -5.5 -14
s-8.16699 -6 -13.5 -6l-9 3l-104 55l-104 -56c-0.666992 0 -2 -0.5 -4 -1.5s-3.33301 -1.5 -4 -1.5c-5.33301 0 -10 2.16699 -14 6.5s-6 9.83301 -6 16.5z" />
    <glyph glyph-name="Udieresis" unicode="&#xdc;" horiz-adv-x="557" 
d="M76 204l-0.000976562 506c0 14 8.33301 21 25 21s25 -7 25 -21v-506c0 -54 13.167 -94.5 39.5 -121.5s63.833 -40.5 112.5 -40.5s86.334 13.5 113.001 40.5s40 67.5 40 121.5v506c0 14 8.33301 21 25 21s25 -7 25 -21v-506c0 -72.667 -18.5 -125.834 -55.5 -159.501
s-86.167 -50.5 -147.5 -50.5s-110.333 16.833 -147 50.5s-55 86.834 -55 159.501zM186.999 887c0 9.33301 3.16699 17 9.5 23s14.166 9 23.499 9s17 -3 23 -9s9 -13.667 9 -23s-3 -17.166 -9 -23.499s-13.667 -9.5 -23 -9.5s-17.166 3.16699 -23.499 9.5
s-9.5 14.166 -9.5 23.499zM303.999 887c0 9.33301 3 17 9 23s14 9 24 9c9.33301 0 17 -3 23 -9s9 -13.667 9 -23s-3 -17.166 -9 -23.499s-13.667 -9.5 -23 -9.5c-10 0 -18 3.16699 -24 9.5s-9 14.166 -9 23.499z" />
    <glyph glyph-name="Yacute" unicode="&#xdd;" horiz-adv-x="520" 
d="M21 709c0 6.66699 2.33105 11.998 6.99805 15.998s10.334 6 17.001 6c8.66699 0 16.334 -6 23.001 -18l192 -385l193 385c6 12 13.667 18 23 18c6 0 11.167 -2 15.5 -6s6.5 -9.33301 6.5 -16c0 -7.33301 -1.33301 -13.666 -4 -18.999l-208 -407
c-0.666992 -1.33301 -1 -3.66602 -1 -6.99902v-254c0 -14.667 -8.33301 -22 -25 -22s-25 7.33301 -25 22v254c0 2 -0.666992 4.33301 -2 7l-207 407c-3.33301 8.66699 -5 15 -5 19zM189.998 875.998c0 7.33301 2.99902 12.334 8.99902 15.001l107 61
c2.66699 1.33301 5.33398 2 8.00098 2c6 0 10.667 -2.33301 14 -7s5 -10 5 -16c0 -8.66699 -3.66699 -15.334 -11 -20.001l-100 -55c-2.66699 -2 -6 -3 -10 -3c-6 0 -11.167 2.33301 -15.5 7s-6.5 10 -6.5 16z" />
    <glyph glyph-name="Thorn" unicode="&#xde;" 
d="M79 22l0.000976562 691c0 13.333 8 20 24 20c16.667 0 25 -7 25 -21v-169c29.333 50.667 76.333 76 141 76c47.333 0 87.833 -13.833 121.5 -41.5s50.5 -64.834 50.5 -111.501v-178c0 -46.667 -17 -84 -51 -112s-72.667 -42 -116 -42c-32 0 -62.167 7.33301 -90.5 22
s-46.833 33.334 -55.5 56.001v-190c0 -5.33301 -2.33301 -10.333 -7 -15s-10.334 -7 -17.001 -7s-12.5 2.33301 -17.5 7s-7.5 9.66699 -7.5 15zM128.001 287c0 -26.667 13.333 -51.167 40 -73.5s59 -33.5 97 -33.5c34 0 63.667 9.5 89 28.5s38 45.5 38 79.5v178
c0 33.333 -12.5 59.333 -37.5 78s-54.833 28 -89.5 28c-37.333 0 -69.5 -10 -96.5 -30s-40.5 -45.333 -40.5 -76v-179z" />
    <glyph glyph-name="germandbls" unicode="&#xdf;" horiz-adv-x="539" 
d="M7 450c0 6 1.83203 11.165 5.49902 15.498s8.5 6.5 14.5 6.5h77v114c0 53.333 13 97 39 131s66 51 120 51c49.333 0 89 -15.167 119 -45.5s45 -75.166 45 -134.499c0 -38.667 -6.33301 -74.5 -19 -107.5s-30.334 -54.833 -53.001 -65.5
c35.333 -6.66699 67.833 -29.334 97.5 -68.001s44.5 -82.334 44.5 -131.001v-18c0 -70.667 -17 -124.667 -51 -162s-74.667 -56 -122 -56c-23.333 0 -47.166 3 -71.499 9s-36.5 16.333 -36.5 31c0 6 1.83301 11.333 5.5 16s7.83398 7 12.501 7
c1.33301 0 10.5 -3.33301 27.5 -10s34.833 -10 53.5 -10c42 0 75.167 14.833 99.5 44.5s36.5 72.5 36.5 128.5v19c0 42.667 -13 80.834 -39 114.501s-66.667 52.834 -122 57.501c-8 0.666992 -13.833 1.5 -17.5 2.5s-7 3 -10 6s-4.5 7.5 -4.5 13.5c0 14 11 21.667 33 23
c60 3.33301 90 50.333 90 141c0 46.667 -9.83301 83 -29.5 109s-48.5 39 -86.5 39c-39.333 0 -67.833 -12.667 -85.5 -38s-26.5 -57.666 -26.5 -96.999v-565c0 -6 -2.5 -11 -7.5 -15s-11.167 -6 -18.5 -6c-15.333 0 -23 7 -23 21v408h-77c-13.333 0 -20 7 -20 21z" />
    <glyph glyph-name="agrave" unicode="&#xe0;" horiz-adv-x="431" 
d="M33 126c0 50 19.835 84.833 59.502 104.5s97.5 29.5 173.5 29.5h54v26c0 40 -10.5 74.5 -31.5 103.5s-52.5 43.5 -94.5 43.5c-25.333 0 -49 -4.66699 -71 -14s-33.333 -14 -34 -14c-6.66699 0 -12 3 -16 9s-6 12 -6 18c0 11.333 13.833 21.833 41.5 31.5
s56.834 14.5 87.501 14.5c59.333 0 103 -18.167 131 -54.5s42 -82.166 42 -137.499v-264c0 -6 -2.33301 -11.167 -7 -15.5s-10.334 -6.5 -17.001 -6.5s-12.334 2.16699 -17.001 6.5s-7 9.5 -7 15.5v48c-44 -50.667 -94 -76 -150 -76c-40.667 0 -73.834 11.167 -99.501 33.5
s-38.5 55.166 -38.5 98.499zM82.002 128c0 -30 8.83105 -52.499 26.498 -67.499s40.834 -22.5 69.501 -22.5c34 0 66.167 12.167 96.5 36.5s45.5 48.166 45.5 71.499v74h-49c-28.667 0 -52.667 -1 -72 -3s-38.666 -5.83301 -57.999 -11.5s-34 -15 -44 -28
s-15 -29.5 -15 -49.5zM129 674.001c0 6 1.83301 11.332 5.5 15.999s8.5 7 14.5 7c2 0 4.33301 -0.666992 7 -2l107 -61c6 -2.66699 9 -7.66699 9 -15c0 -6 -2.16699 -11.333 -6.5 -16s-9.5 -7 -15.5 -7c-2.66699 0 -6 1 -10 3l-100 55
c-7.33301 4.66699 -11 11.334 -11 20.001z" />
    <glyph glyph-name="aacute" unicode="&#xe1;" horiz-adv-x="431" 
d="M33 126c0 50 19.835 84.833 59.502 104.5s97.5 29.5 173.5 29.5h54v26c0 40 -10.5 74.5 -31.5 103.5s-52.5 43.5 -94.5 43.5c-25.333 0 -49 -4.66699 -71 -14s-33.333 -14 -34 -14c-6.66699 0 -12 3 -16 9s-6 12 -6 18c0 11.333 13.833 21.833 41.5 31.5
s56.834 14.5 87.501 14.5c59.333 0 103 -18.167 131 -54.5s42 -82.166 42 -137.499v-264c0 -6 -2.33301 -11.167 -7 -15.5s-10.334 -6.5 -17.001 -6.5s-12.334 2.16699 -17.001 6.5s-7 9.5 -7 15.5v48c-44 -50.667 -94 -76 -150 -76c-40.667 0 -73.834 11.167 -99.501 33.5
s-38.5 55.166 -38.5 98.499zM82.002 128c0 -30 8.83105 -52.499 26.498 -67.499s40.834 -22.5 69.501 -22.5c34 0 66.167 12.167 96.5 36.5s45.5 48.166 45.5 71.499v74h-49c-28.667 0 -52.667 -1 -72 -3s-38.666 -5.83301 -57.999 -11.5s-34 -15 -44 -28
s-15 -29.5 -15 -49.5zM132 619.001c0 7.33301 2.99902 12.334 8.99902 15.001l107 61c2.66699 1.33301 5.33398 2 8.00098 2c6 0 10.667 -2.33301 14 -7s5 -10 5 -16c0 -8.66699 -3.66699 -15.334 -11 -20.001l-100 -55c-2.66699 -2 -6 -3 -10 -3
c-6 0 -11.167 2.33301 -15.5 7s-6.5 10 -6.5 16z" />
    <glyph glyph-name="acircumflex" unicode="&#xe2;" horiz-adv-x="431" 
d="M33 126c0 50 19.835 84.833 59.502 104.5s97.5 29.5 173.5 29.5h54v26c0 40 -10.5 74.5 -31.5 103.5s-52.5 43.5 -94.5 43.5c-25.333 0 -49 -4.66699 -71 -14s-33.333 -14 -34 -14c-6.66699 0 -12 3 -16 9s-6 12 -6 18c0 11.333 13.833 21.833 41.5 31.5
s56.834 14.5 87.501 14.5c59.333 0 103 -18.167 131 -54.5s42 -82.166 42 -137.499v-264c0 -6 -2.33301 -11.167 -7 -15.5s-10.334 -6.5 -17.001 -6.5s-12.334 2.16699 -17.001 6.5s-7 9.5 -7 15.5v48c-44 -50.667 -94 -76 -150 -76c-40.667 0 -73.834 11.167 -99.501 33.5
s-38.5 55.166 -38.5 98.499zM72.002 619c0 7.33301 3.66699 13 11 17l104 56c5.33301 3.33301 11 5 17 5s11.667 -1.66699 17 -5l104 -55c7.33301 -4 11 -10.667 11 -20c0 -5.33301 -1.83301 -10 -5.5 -14s-8.16699 -6 -13.5 -6l-9 3l-104 55l-104 -56
c-0.666992 0 -2 -0.5 -4 -1.5s-3.33301 -1.5 -4 -1.5c-5.33301 0 -10 2.16699 -14 6.5s-6 9.83301 -6 16.5zM82.002 128c0 -30 8.83105 -52.499 26.498 -67.499s40.834 -22.5 69.501 -22.5c34 0 66.167 12.167 96.5 36.5s45.5 48.166 45.5 71.499v74h-49
c-28.667 0 -52.667 -1 -72 -3s-38.666 -5.83301 -57.999 -11.5s-34 -15 -44 -28s-15 -29.5 -15 -49.5z" />
    <glyph glyph-name="atilde" unicode="&#xe3;" horiz-adv-x="431" 
d="M33 126c0 50 19.835 84.833 59.502 104.5s97.5 29.5 173.5 29.5h54v26c0 40 -10.5 74.5 -31.5 103.5s-52.5 43.5 -94.5 43.5c-25.333 0 -49 -4.66699 -71 -14s-33.333 -14 -34 -14c-6.66699 0 -12 3 -16 9s-6 12 -6 18c0 11.333 13.833 21.833 41.5 31.5
s56.834 14.5 87.501 14.5c59.333 0 103 -18.167 131 -54.5s42 -82.166 42 -137.499v-264c0 -6 -2.33301 -11.167 -7 -15.5s-10.334 -6.5 -17.001 -6.5s-12.334 2.16699 -17.001 6.5s-7 9.5 -7 15.5v48c-44 -50.667 -94 -76 -150 -76c-40.667 0 -73.834 11.167 -99.501 33.5
s-38.5 55.166 -38.5 98.499zM50.002 638c0 14.667 10.167 27.333 30.5 38s39.833 16 58.5 16c16.667 0 38 -6 64 -18s47.667 -18 65 -18s32 5.16699 44 15.5s19.667 15.5 23 15.5c4.66699 0 8.66699 -2 12 -6s5 -8.33301 5 -13c0 -16 -9.5 -29 -28.5 -39
s-37.5 -15 -55.5 -15c-16.667 0 -38 6 -64 18s-48.333 18 -67 18c-16.667 0 -32 -5.5 -46 -16.5s-22.333 -16.5 -25 -16.5c-10.667 0 -16 7 -16 21zM82.002 127.999c0 -30 8.83105 -52.499 26.498 -67.499s40.834 -22.5 69.501 -22.5c34 0 66.167 12.167 96.5 36.5
s45.5 48.166 45.5 71.499v74h-49c-28.667 0 -52.667 -1 -72 -3s-38.666 -5.83301 -57.999 -11.5s-34 -15 -44 -28s-15 -29.5 -15 -49.5z" />
    <glyph glyph-name="adieresis" unicode="&#xe4;" horiz-adv-x="431" 
d="M33 126c0 50 19.835 84.833 59.502 104.5s97.5 29.5 173.5 29.5h54v26c0 40 -10.5 74.5 -31.5 103.5s-52.5 43.5 -94.5 43.5c-25.333 0 -49 -4.66699 -71 -14s-33.333 -14 -34 -14c-6.66699 0 -12 3 -16 9s-6 12 -6 18c0 11.333 13.833 21.833 41.5 31.5
s56.834 14.5 87.501 14.5c59.333 0 103 -18.167 131 -54.5s42 -82.166 42 -137.499v-264c0 -6 -2.33301 -11.167 -7 -15.5s-10.334 -6.5 -17.001 -6.5s-12.334 2.16699 -17.001 6.5s-7 9.5 -7 15.5v48c-44 -50.667 -94 -76 -150 -76c-40.667 0 -73.834 11.167 -99.501 33.5
s-38.5 55.166 -38.5 98.499zM82.002 128c0 -30 8.83105 -52.499 26.498 -67.499s40.834 -22.5 69.501 -22.5c34 0 66.167 12.167 96.5 36.5s45.5 48.166 45.5 71.499v74h-49c-28.667 0 -52.667 -1 -72 -3s-38.666 -5.83301 -57.999 -11.5s-34 -15 -44 -28
s-15 -29.5 -15 -49.5zM110 630.001c0 9.33301 3.16699 17 9.5 23s14.166 9 23.499 9s17 -3 23 -9s9 -13.667 9 -23s-3 -17.166 -9 -23.499s-13.667 -9.5 -23 -9.5s-17.166 3.16699 -23.499 9.5s-9.5 14.166 -9.5 23.499zM227 630.001c0 9.33301 3 17 9 23s14 9 24 9
c9.33301 0 17 -3 23 -9s9 -13.667 9 -23s-3 -17.166 -9 -23.499s-13.667 -9.5 -23 -9.5c-10 0 -18 3.16699 -24 9.5s-9 14.166 -9 23.499z" />
    <glyph glyph-name="aring" unicode="&#xe5;" horiz-adv-x="431" 
d="M33 126c0 50 19.835 84.833 59.502 104.5s97.5 29.5 173.5 29.5h54v26c0 40 -10.5 74.5 -31.5 103.5s-52.5 43.5 -94.5 43.5c-25.333 0 -49 -4.66699 -71 -14s-33.333 -14 -34 -14c-6.66699 0 -12 3 -16 9s-6 12 -6 18c0 11.333 13.833 21.833 41.5 31.5
s56.834 14.5 87.501 14.5c59.333 0 103 -18.167 131 -54.5s42 -82.166 42 -137.499v-264c0 -6 -2.33301 -11.167 -7 -15.5s-10.334 -6.5 -17.001 -6.5s-12.334 2.16699 -17.001 6.5s-7 9.5 -7 15.5v48c-44 -50.667 -94 -76 -150 -76c-40.667 0 -73.834 11.167 -99.501 33.5
s-38.5 55.166 -38.5 98.499zM82.002 128c0 -30 8.83105 -52.499 26.498 -67.499s40.834 -22.5 69.501 -22.5c34 0 66.167 12.167 96.5 36.5s45.5 48.166 45.5 71.499v74h-49c-28.667 0 -52.667 -1 -72 -3s-38.666 -5.83301 -57.999 -11.5s-34 -15 -44 -28
s-15 -29.5 -15 -49.5zM111 676.001c0 24.667 8.83301 46.167 26.5 64.5s39.167 27.5 64.5 27.5c24 0 45.167 -9.16699 63.5 -27.5s27.5 -39.833 27.5 -64.5s-9.16699 -46.5 -27.5 -65.5s-39.5 -28.5 -63.5 -28.5c-24.667 0 -46 9.33301 -64 28s-27 40.667 -27 66z
M139 676.001c0 -16.667 6.33301 -32 19 -46s27.334 -21 44.001 -21s31.167 6.83301 43.5 20.5s18.5 29.167 18.5 46.5c0 15.333 -6.16699 29.5 -18.5 42.5s-26.833 19.5 -43.5 19.5s-31.334 -6.5 -44.001 -19.5s-19 -27.167 -19 -42.5z" />
    <glyph glyph-name="ae" unicode="&#xe6;" horiz-adv-x="723" 
d="M33 125c0 50.667 19.498 85.832 58.498 105.499s96.5 29.5 172.5 29.5h54v27c0 40.667 -10.5 75.334 -31.5 104.001s-53.167 43 -96.5 43c-24 0 -47.167 -4.66699 -69.5 -14s-33.833 -14 -34.5 -14c-5.33301 0 -10.166 3.16699 -14.499 9.5s-6.5 12.166 -6.5 17.499
c0 11.333 13.833 21.833 41.5 31.5s57.167 14.5 88.5 14.5c74.667 0 125.334 -32.333 152.001 -97c15.333 28.667 37 51.834 65 69.501s58.333 26.5 91 26.5c46.667 0 88.667 -16.167 126 -48.5s56 -80.5 56 -144.5c0 -27.333 -5.5 -45 -16.5 -53s-33.5 -12 -67.5 -12h-230
v-42c0 -42 14.667 -75.667 44 -101s67 -38 113 -38c23.333 0 43.5 3.33301 60.5 10s30.167 13.334 39.5 20.001s16.333 10 21 10c5.33301 0 10.333 -2.5 15 -7.5s7 -10.5 7 -16.5c0 -14.667 -16.667 -28.5 -50 -41.5s-68 -19.5 -104 -19.5c-38 0 -72.833 9 -104.5 27
s-55.167 43 -70.5 75c-19.333 -34.667 -44.5 -60.334 -75.5 -77.001s-62.5 -25 -94.5 -25c-40 0 -73.167 11.167 -99.5 33.5s-39.5 54.833 -39.5 97.5zM81.998 125.998c0 -28.667 8.83301 -50.4961 26.5 -65.4961s40.5 -22.5 68.5 -22.5c36 0 68.5 12.167 97.5 36.5
s43.5 48.166 43.5 71.499v74h-49c-22.667 0 -42 -0.5 -58 -1.5s-32.833 -3.33301 -50.5 -7s-31.667 -8.83398 -42 -15.501s-19 -15.834 -26 -27.501s-10.5 -25.834 -10.5 -42.501zM370.998 261.002h211c23.333 0 38.333 2.33301 45 7s10 13.667 10 27
c0 37.333 -12.5 69.833 -37.5 97.5s-56.833 41.5 -95.5 41.5c-37.333 0 -68.833 -12.833 -94.5 -38.5s-38.5 -56.5 -38.5 -92.5v-42z" />
    <glyph glyph-name="ccedilla" unicode="&#xe7;" horiz-adv-x="406" 
d="M49 179l-0.00195312 114.002c0 54.667 15.833 99.167 47.5 133.5s78.5 51.5 140.5 51.5c38 0 70 -6.83301 96 -20.5s39 -27.167 39 -40.5c0 -6 -2.33301 -11.5 -7 -16.5s-10 -7.5 -16 -7.5c-3.33301 0 -9.16602 3.16699 -17.499 9.5s-20.5 12.833 -36.5 19.5
s-35 10 -57 10c-44.667 0 -79.167 -12.333 -103.5 -37s-36.5 -58.667 -36.5 -102v-114c0 -44 12 -78.167 36 -102.5s59 -36.5 105 -36.5c23.333 0 43.333 3.33301 60 10s29.334 13.334 38.001 20.001s15 10 19 10c6 0 11.167 -2.5 15.5 -7.5s6.5 -10.5 6.5 -16.5
c0 -12.667 -11.833 -25.5 -35.5 -38.5s-53.834 -20.5 -90.501 -22.5l-14 -58c32 -0.666992 55.833 -7.83398 71.5 -21.501s23.5 -30.167 23.5 -49.5c0 -20 -7.5 -37.333 -22.5 -52s-35.833 -22 -62.5 -22c-16 0 -32.667 2.16699 -50 6.5s-26 10.166 -26 17.499
c0 4 1.33301 8.5 4 13.5s6 7.5 10 7.5l18 -7c12 -4 24.667 -6 38 -6c36 0 54 13.333 54 40c0 26 -22.333 40.667 -67 44l-33 2l21 85c-55.333 3.33301 -97.166 21.666 -125.499 54.999s-42.5 76.333 -42.5 129z" />
    <glyph glyph-name="egrave" unicode="&#xe8;" horiz-adv-x="451" 
d="M48 179l-0.00195312 118.999c0 49.333 18 91.666 54 126.999s79.333 53 130 53c49.333 0 92 -17.333 128 -52s54 -77.667 54 -129c0 -18 -2.16699 -32.5 -6.5 -43.5s-11.166 -18.833 -20.499 -23.5s-17.833 -7.5 -25.5 -8.5s-18.5 -1.5 -32.5 -1.5h-232v-42
c0 -42 15 -75.667 45 -101s68.667 -38 116 -38c24 0 44.333 3.33301 61 10s29.334 13.334 38.001 20.001s15.334 10 20.001 10c6 0 11.333 -2.66699 16 -8s7 -10.666 7 -15.999c0 -12.667 -13.833 -26 -41.5 -40s-61.834 -21 -102.501 -21c-61.333 0 -111.333 17 -150 51
s-58 78.667 -58 134zM96.998 260.999l212.999 -0.000976562c22.667 0 37.667 2.33301 45 7s11 14.334 11 29.001c0 35.333 -12.667 67 -38 95s-57.333 42 -96 42c-37.333 0 -69.166 -13 -95.499 -39s-39.5 -57 -39.5 -93v-41zM157.997 673.998
c0 6 1.83301 11.332 5.5 15.999s8.5 7 14.5 7c2 0 4.33301 -0.666992 7 -2l107 -61c6 -2.66699 9 -7.66699 9 -15c0 -6 -2.16699 -11.333 -6.5 -16s-9.5 -7 -15.5 -7c-2.66699 0 -6 1 -10 3l-100 55c-7.33301 4.66699 -11 11.334 -11 20.001z" />
    <glyph glyph-name="eacute" unicode="&#xe9;" horiz-adv-x="451" 
d="M48 179l-0.00195312 118.999c0 49.333 18 91.666 54 126.999s79.333 53 130 53c49.333 0 92 -17.333 128 -52s54 -77.667 54 -129c0 -18 -2.16699 -32.5 -6.5 -43.5s-11.166 -18.833 -20.499 -23.5s-17.833 -7.5 -25.5 -8.5s-18.5 -1.5 -32.5 -1.5h-232v-42
c0 -42 15 -75.667 45 -101s68.667 -38 116 -38c24 0 44.333 3.33301 61 10s29.334 13.334 38.001 20.001s15.334 10 20.001 10c6 0 11.333 -2.66699 16 -8s7 -10.666 7 -15.999c0 -12.667 -13.833 -26 -41.5 -40s-61.834 -21 -102.501 -21c-61.333 0 -111.333 17 -150 51
s-58 78.667 -58 134zM96.998 260.999l212.999 -0.000976562c22.667 0 37.667 2.33301 45 7s11 14.334 11 29.001c0 35.333 -12.667 67 -38 95s-57.333 42 -96 42c-37.333 0 -69.166 -13 -95.499 -39s-39.5 -57 -39.5 -93v-41zM159.997 618.998
c0 7.33301 2.99902 12.334 8.99902 15.001l107 61c2.66699 1.33301 5.33398 2 8.00098 2c6 0 10.667 -2.33301 14 -7s5 -10 5 -16c0 -8.66699 -3.66699 -15.334 -11 -20.001l-100 -55c-2.66699 -2 -6 -3 -10 -3c-6 0 -11.167 2.33301 -15.5 7s-6.5 10 -6.5 16z" />
    <glyph glyph-name="ecircumflex" unicode="&#xea;" horiz-adv-x="451" 
d="M48 179l-0.00195312 118.999c0 49.333 18 91.666 54 126.999s79.333 53 130 53c49.333 0 92 -17.333 128 -52s54 -77.667 54 -129c0 -18 -2.16699 -32.5 -6.5 -43.5s-11.166 -18.833 -20.499 -23.5s-17.833 -7.5 -25.5 -8.5s-18.5 -1.5 -32.5 -1.5h-232v-42
c0 -42 15 -75.667 45 -101s68.667 -38 116 -38c24 0 44.333 3.33301 61 10s29.334 13.334 38.001 20.001s15.334 10 20.001 10c6 0 11.333 -2.66699 16 -8s7 -10.666 7 -15.999c0 -12.667 -13.833 -26 -41.5 -40s-61.834 -21 -102.501 -21c-61.333 0 -111.333 17 -150 51
s-58 78.667 -58 134zM96.998 260.999l212.999 -0.000976562c22.667 0 37.667 2.33301 45 7s11 14.334 11 29.001c0 35.333 -12.667 67 -38 95s-57.333 42 -96 42c-37.333 0 -69.166 -13 -95.499 -39s-39.5 -57 -39.5 -93v-41zM98.9971 618.998c0 7.33301 3.66699 13 11 17
l104 56c5.33301 3.33301 11 5 17 5s11.667 -1.66699 17 -5l104 -55c7.33301 -4 11 -10.667 11 -20c0 -5.33301 -1.83301 -10 -5.5 -14s-8.16699 -6 -13.5 -6l-9 3l-104 55l-104 -56c-0.666992 0 -2 -0.5 -4 -1.5s-3.33301 -1.5 -4 -1.5c-5.33301 0 -10 2.16699 -14 6.5
s-6 9.83301 -6 16.5z" />
    <glyph glyph-name="edieresis" unicode="&#xeb;" horiz-adv-x="451" 
d="M48 179l-0.00195312 118.999c0 49.333 18 91.666 54 126.999s79.333 53 130 53c49.333 0 92 -17.333 128 -52s54 -77.667 54 -129c0 -18 -2.16699 -32.5 -6.5 -43.5s-11.166 -18.833 -20.499 -23.5s-17.833 -7.5 -25.5 -8.5s-18.5 -1.5 -32.5 -1.5h-232v-42
c0 -42 15 -75.667 45 -101s68.667 -38 116 -38c24 0 44.333 3.33301 61 10s29.334 13.334 38.001 20.001s15.334 10 20.001 10c6 0 11.333 -2.66699 16 -8s7 -10.666 7 -15.999c0 -12.667 -13.833 -26 -41.5 -40s-61.834 -21 -102.501 -21c-61.333 0 -111.333 17 -150 51
s-58 78.667 -58 134zM96.998 260.999l212.999 -0.000976562c22.667 0 37.667 2.33301 45 7s11 14.334 11 29.001c0 35.333 -12.667 67 -38 95s-57.333 42 -96 42c-37.333 0 -69.166 -13 -95.499 -39s-39.5 -57 -39.5 -93v-41zM139.997 629.998c0 9.33301 3.16699 17 9.5 23
s14.166 9 23.499 9s17 -3 23 -9s9 -13.667 9 -23s-3 -17.166 -9 -23.499s-13.667 -9.5 -23 -9.5s-17.166 3.16699 -23.499 9.5s-9.5 14.166 -9.5 23.499zM256.997 629.998c0 9.33301 3 17 9 23s14 9 24 9c9.33301 0 17 -3 23 -9s9 -13.667 9 -23s-3 -17.166 -9 -23.499
s-13.667 -9.5 -23 -9.5c-10 0 -18 3.16699 -24 9.5s-9 14.166 -9 23.499z" />
    <glyph glyph-name="igrave" unicode="&#xec;" horiz-adv-x="181" 
d="M15 674c0 6 1.83301 11.332 5.5 15.999s8.5 7 14.5 7c2 0 4.33301 -0.666992 7 -2l107 -61c6 -2.66699 9 -7.66699 9 -15c0 -6 -2.16699 -11.333 -6.5 -16s-9.5 -7 -15.5 -7c-2.66699 0 -6 1 -10 3l-100 55c-7.33301 4.66699 -11 11.334 -11 20.001zM66 21.999
l0.000976562 430c0 13.333 8 20 24 20c16.667 0 25 -6.66699 25 -20v-430c0 -5.33301 -2.5 -10.333 -7.5 -15s-10.833 -7 -17.5 -7s-12.334 2.16699 -17.001 6.5s-7 9.5 -7 15.5z" />
    <glyph glyph-name="iacute" unicode="&#xed;" horiz-adv-x="181" 
d="M20 619c0 7.33301 2.99902 12.334 8.99902 15.001l107 61c2.66699 1.33301 5.33398 2 8.00098 2c6 0 10.667 -2.33301 14 -7s5 -10 5 -16c0 -8.66699 -3.66699 -15.334 -11 -20.001l-100 -55c-2.66699 -2 -6 -3 -10 -3c-6 0 -11.167 2.33301 -15.5 7s-6.5 10 -6.5 16z
M65.999 22.001l0.000976562 430c0 13.333 8 20 24 20c16.667 0 25 -6.66699 25 -20v-430c0 -5.33301 -2.5 -10.333 -7.5 -15s-10.833 -7 -17.5 -7s-12.334 2.16699 -17.001 6.5s-7 9.5 -7 15.5z" />
    <glyph glyph-name="icircumflex" unicode="&#xee;" horiz-adv-x="181" 
d="M-42 619c0 7.33301 3.66699 13 11 17l104 56c5.33301 3.33301 11 5 17 5s11.667 -1.66699 17 -5l104 -55c7.33301 -4 11 -10.667 11 -20c0 -5.33301 -1.83301 -10 -5.5 -14s-8.16699 -6 -13.5 -6l-9 3l-104 55l-104 -56c-0.666992 0 -2 -0.5 -4 -1.5
s-3.33301 -1.5 -4 -1.5c-5.33301 0 -10 2.16699 -14 6.5s-6 9.83301 -6 16.5zM66 22l0.000976562 430c0 13.333 8 20 24 20c16.667 0 25 -6.66699 25 -20v-430c0 -5.33301 -2.5 -10.333 -7.5 -15s-10.833 -7 -17.5 -7s-12.334 2.16699 -17.001 6.5s-7 9.5 -7 15.5z" />
    <glyph glyph-name="idieresis" unicode="&#xef;" horiz-adv-x="181" 
d="M0 630c0 9.33301 3.16699 17 9.5 23s14.166 9 23.499 9s17 -3 23 -9s9 -13.667 9 -23s-3 -17.166 -9 -23.499s-13.667 -9.5 -23 -9.5s-17.166 3.16699 -23.499 9.5s-9.5 14.166 -9.5 23.499zM66 22l0.000976562 430c0 13.333 8 20 24 20c16.667 0 25 -6.66699 25 -20
v-430c0 -5.33301 -2.5 -10.333 -7.5 -15s-10.833 -7 -17.5 -7s-12.334 2.16699 -17.001 6.5s-7 9.5 -7 15.5zM117.001 630c0 9.33301 3 17 9 23s14 9 24 9c9.33301 0 17 -3 23 -9s9 -13.667 9 -23s-3 -17.166 -9 -23.499s-13.667 -9.5 -23 -9.5c-10 0 -18 3.16699 -24 9.5
s-9 14.166 -9 23.499z" />
    <glyph glyph-name="eth" unicode="&#xf0;" horiz-adv-x="475" 
d="M48 179l-0.00390625 116.001c0 49.333 17.333 92.166 52 128.499s76.334 54.5 125.001 54.5c30 0 58.833 -7.66699 86.5 -23s45.834 -35.666 54.501 -60.999c-8.66699 95.333 -34.667 172.666 -78 231.999l-91 -52c-2.66699 -2.66699 -6 -4 -10 -4
c-5.33301 0 -10.166 2.5 -14.499 7.5s-6.5 10.5 -6.5 16.5c0 8 3.33301 13.333 10 16l85 49c-37.333 39.333 -78 59 -122 59c-9.33301 2 -14 9 -14 21c0 18 10 27 30 27c52 0 102 -27 150 -81l76 44c4 1.33301 6.66699 2 8 2c5.33301 0 10.333 -2.33301 15 -7
s7 -9.66699 7 -15c0 -7.33301 -3.33301 -13 -10 -17l-71 -41c56.667 -80 85 -176.333 85 -289v-183c0 -48.667 -18.5 -91.667 -55.5 -129s-79.833 -56 -128.5 -56c-49.333 0 -92.166 18.5 -128.499 55.5s-54.5 80.167 -54.5 129.5zM96.9961 179.001
c0 -36 13.166 -68.167 39.499 -96.5s57.833 -42.5 94.5 -42.5s68.334 14.167 95.001 42.5s40 60.5 40 96.5v120c0 34.667 -13.5 65.5 -40.5 92.5s-58.833 40.5 -95.5 40.5s-68 -14 -94 -42s-39 -59.667 -39 -95v-116z" />
    <glyph glyph-name="ntilde" unicode="&#xf1;" 
d="M66 22l0.00195312 430c0 13.333 8 20 24 20c6.66699 0 12.334 -1.83301 17.001 -5.5s7 -8.5 7 -14.5v-50c11.333 21.333 28.666 39.333 51.999 54s50.666 22 81.999 22c48.667 0 90.667 -18 126 -54s53 -79 53 -129v-273c0 -14.667 -8.33301 -22 -25 -22
c-16 -0 -24 7.33301 -24 22v273c0 35.333 -13.333 67 -40 95s-58 42 -94 42c-34 0 -64 -12.5 -90 -37.5s-39 -58.167 -39 -99.5v-273c0 -5.33301 -2.5 -10.333 -7.5 -15s-10.833 -7 -17.5 -7s-12.334 2.16699 -17.001 6.5s-7 9.5 -7 15.5zM91.002 638
c0 14.667 10.167 27.333 30.5 38s39.833 16 58.5 16c16.667 0 38 -6 64 -18s47.667 -18 65 -18s32 5.16699 44 15.5s19.667 15.5 23 15.5c4.66699 0 8.66699 -2 12 -6s5 -8.33301 5 -13c0 -16 -9.5 -29 -28.5 -39s-37.5 -15 -55.5 -15c-16.667 0 -38 6 -64 18
s-48.333 18 -67 18c-16.667 0 -32 -5.5 -46 -16.5s-22.333 -16.5 -25 -16.5c-10.667 0 -16 7 -16 21z" />
    <glyph glyph-name="ograve" unicode="&#xf2;" horiz-adv-x="461" 
d="M47 179l0.000976562 116.001c0 49.333 18 92.166 54 128.499s79 54.5 129 54.5c49.333 0 92.333 -18 129 -54s55 -79 55 -129v-116c0 -48.667 -18.5 -91.667 -55.5 -129s-79.833 -56 -128.5 -56s-91.334 18.5 -128.001 55.5s-55 80.167 -55 129.5zM96.001 179.001
c0 -36 13.167 -68.167 39.5 -96.5s57.833 -42.5 94.5 -42.5s68.334 14.167 95.001 42.5s40 60.5 40 96.5v116c0 35.333 -13.333 67 -40 95s-58.334 42 -95.001 42s-68.167 -14 -94.5 -42s-39.5 -59.667 -39.5 -95v-116zM157.001 674.001c0 6 1.83301 11.332 5.5 15.999
s8.5 7 14.5 7c2 0 4.33301 -0.666992 7 -2l107 -61c6 -2.66699 9 -7.66699 9 -15c0 -6 -2.16699 -11.333 -6.5 -16s-9.5 -7 -15.5 -7c-2.66699 0 -6 1 -10 3l-100 55c-7.33301 4.66699 -11 11.334 -11 20.001z" />
    <glyph glyph-name="oacute" unicode="&#xf3;" horiz-adv-x="461" 
d="M47 179l0.000976562 116.001c0 49.333 18 92.166 54 128.499s79 54.5 129 54.5c49.333 0 92.333 -18 129 -54s55 -79 55 -129v-116c0 -48.667 -18.5 -91.667 -55.5 -129s-79.833 -56 -128.5 -56s-91.334 18.5 -128.001 55.5s-55 80.167 -55 129.5zM96.001 179.001
c0 -36 13.167 -68.167 39.5 -96.5s57.833 -42.5 94.5 -42.5s68.334 14.167 95.001 42.5s40 60.5 40 96.5v116c0 35.333 -13.333 67 -40 95s-58.334 42 -95.001 42s-68.167 -14 -94.5 -42s-39.5 -59.667 -39.5 -95v-116zM159.001 619.001
c0 7.33301 2.99805 12.334 8.99805 15.001l107 61c2.66699 1.33301 5.33398 2 8.00098 2c6 0 10.667 -2.33301 14 -7s5 -10 5 -16c0 -8.66699 -3.66699 -15.334 -11 -20.001l-100 -55c-3.33301 -2 -6.66602 -3 -9.99902 -3c-6 0 -11.167 2.33301 -15.5 7s-6.5 10 -6.5 16z
" />
    <glyph glyph-name="ocircumflex" unicode="&#xf4;" horiz-adv-x="461" 
d="M47 179l0.000976562 116.001c0 49.333 18 92.166 54 128.499s79 54.5 129 54.5c49.333 0 92.333 -18 129 -54s55 -79 55 -129v-116c0 -48.667 -18.5 -91.667 -55.5 -129s-79.833 -56 -128.5 -56s-91.334 18.5 -128.001 55.5s-55 80.167 -55 129.5zM96.001 179.001
c0 -36 13.167 -68.167 39.5 -96.5s57.833 -42.5 94.5 -42.5s68.334 14.167 95.001 42.5s40 60.5 40 96.5v116c0 35.333 -13.333 67 -40 95s-58.334 42 -95.001 42s-68.167 -14 -94.5 -42s-39.5 -59.667 -39.5 -95v-116zM98.001 619.001c0 7.33301 3.66699 13 11 17l104 56
c5.33301 3.33301 11 5 17 5s11.667 -1.66699 17 -5l104 -55c7.33301 -4 11 -10.667 11 -20c0 -5.33301 -1.83301 -10 -5.5 -14s-8.16699 -6 -13.5 -6l-9 3l-104 55l-104 -56c-0.666992 0 -2 -0.5 -4 -1.5s-3.33301 -1.5 -4 -1.5c-5.33301 0 -10 2.16699 -14 6.5
s-6 9.83301 -6 16.5z" />
    <glyph glyph-name="otilde" unicode="&#xf5;" horiz-adv-x="461" 
d="M47 179l0.000976562 116.001c0 49.333 18 92.166 54 128.499s79 54.5 129 54.5c49.333 0 92.333 -18 129 -54s55 -79 55 -129v-116c0 -48.667 -18.5 -91.667 -55.5 -129s-79.833 -56 -128.5 -56s-91.334 18.5 -128.001 55.5s-55 80.167 -55 129.5zM80.001 638.001
c0 14.667 10.167 27.333 30.5 38s39.833 16 58.5 16c16.667 0 38 -6 64 -18s47.667 -18 65 -18s32 5.16699 44 15.5s19.667 15.5 23 15.5c4.66699 0 8.66699 -2 12 -6s5 -8.33301 5 -13c0 -16 -9.5 -29 -28.5 -39s-37.5 -15 -55.5 -15c-16.667 0 -38 6 -64 18
s-48.333 18 -67 18c-16.667 0 -32 -5.5 -46 -16.5s-22.333 -16.5 -25 -16.5c-10.667 0 -16 7 -16 21zM96.001 179c0 -36 13.167 -68.167 39.5 -96.5s57.833 -42.5 94.5 -42.5s68.334 14.167 95.001 42.5s40 60.5 40 96.5v116c0 35.333 -13.333 67 -40 95
s-58.334 42 -95.001 42s-68.167 -14 -94.5 -42s-39.5 -59.667 -39.5 -95v-116z" />
    <glyph glyph-name="odieresis" unicode="&#xf6;" horiz-adv-x="461" 
d="M47 179l0.000976562 116.001c0 49.333 18 92.166 54 128.499s79 54.5 129 54.5c49.333 0 92.333 -18 129 -54s55 -79 55 -129v-116c0 -48.667 -18.5 -91.667 -55.5 -129s-79.833 -56 -128.5 -56s-91.334 18.5 -128.001 55.5s-55 80.167 -55 129.5zM96.001 179.001
c0 -36 13.167 -68.167 39.5 -96.5s57.833 -42.5 94.5 -42.5s68.334 14.167 95.001 42.5s40 60.5 40 96.5v116c0 35.333 -13.333 67 -40 95s-58.334 42 -95.001 42s-68.167 -14 -94.5 -42s-39.5 -59.667 -39.5 -95v-116zM139.001 630.001c0 9.33301 3.16699 17 9.5 23
s14.166 9 23.499 9s17 -3 23 -9s9 -13.667 9 -23s-3 -17.166 -9 -23.499s-13.667 -9.5 -23 -9.5s-17.166 3.16699 -23.499 9.5s-9.5 14.166 -9.5 23.499zM256.001 630.001c0 9.33301 3 17 9 23s14 9 24 9c9.33301 0 17 -3 23 -9s9 -13.667 9 -23s-3 -17.166 -9 -23.499
s-13.667 -9.5 -23 -9.5c-10 0 -18 3.16699 -24 9.5s-9 14.166 -9 23.499z" />
    <glyph glyph-name="divide" unicode="&#xf7;" horiz-adv-x="458" 
d="M48 240c0 6.66699 2 12.167 6 16.5s9 6.5 15 6.5h319c5.33301 0 10.333 -2.16699 15 -6.5s7 -9.83301 7 -16.5c0 -6 -2.16699 -11.167 -6.5 -15.5s-9.5 -6.5 -15.5 -6.5h-319c-6 0 -11 2 -15 6s-6 9.33301 -6 16zM179 78c0 12.667 4.66699 23.5 14 32.5
s20.333 13.5 33 13.5c12 0 22.5 -4.5 31.5 -13.5s13.5 -19.833 13.5 -32.5c0 -12 -4.5 -22.5 -13.5 -31.5s-19.5 -13.5 -31.5 -13.5c-12.667 0 -23.667 4.5 -33 13.5s-14 19.5 -14 31.5zM179 402c0 12.667 4.66699 23.5 14 32.5s20.333 13.5 33 13.5
c12 0 22.5 -4.5 31.5 -13.5s13.5 -19.833 13.5 -32.5c0 -12 -4.5 -22.5 -13.5 -31.5s-19.5 -13.5 -31.5 -13.5c-12.667 0 -23.667 4.5 -33 13.5s-14 19.5 -14 31.5z" />
    <glyph glyph-name="oslash" unicode="&#xf8;" horiz-adv-x="461" 
d="M47 179l0.000976562 116.002c0 49.333 18 92.166 54 128.499s79 54.5 129 54.5c32 0 62.667 -8.66699 92 -26l27 49c2.66699 5.33301 7.33398 8 14.001 8c4.66699 0 9.16699 -2 13.5 -6s6.5 -8.66699 6.5 -14c0 -4 -1.33301 -8.33301 -4 -13l-26 -47
c40.667 -36 61 -80.667 61 -134v-116c0 -48.667 -18.5 -91.667 -55.5 -129s-79.833 -56 -128.5 -56c-34.667 0 -67.334 10 -98.001 30l-24 -45c-4 -7.33301 -9.66699 -11 -17 -11c-4.66699 0 -8.83398 1.66699 -12.501 5s-5.5 7.33301 -5.5 12
c0 3.33301 1 6.66602 3 9.99902l28 52c-38 36.667 -57 80.667 -57 132zM96.001 179.002c0 -32 10.666 -61.333 31.999 -88l172 320c-21.333 14 -44.666 21 -69.999 21c-36.667 0 -68.167 -14 -94.5 -42s-39.5 -59.667 -39.5 -95v-116zM155 65.002
c22 -16.667 46.999 -25 74.999 -25c36.667 0 68.334 14.167 95.001 42.5s40 60.5 40 96.5v116c0 32.667 -12 62.667 -36 90z" />
    <glyph glyph-name="ugrave" unicode="&#xf9;" 
d="M61 177l-0.000976562 273.998c0 5.33301 2.5 10.166 7.5 14.499s10.833 6.5 17.5 6.5c6 0 11.5 -2.16699 16.5 -6.5s7.5 -9.16602 7.5 -14.499v-274c0 -36 13.167 -67.833 39.5 -95.5s57.833 -41.5 94.5 -41.5s68.167 13.833 94.5 41.5s39.5 59.5 39.5 95.5v275
c0 5.33301 2.5 10 7.5 14s10.833 6 17.5 6s12.334 -2 17.001 -6s7 -8.66699 7 -14v-275c0 -49.333 -18 -92.166 -54 -128.499s-79 -54.5 -129 -54.5s-93 18.333 -129 55s-54 79.334 -54 128.001zM169.999 673.998c0 6 1.83301 11.332 5.5 15.999s8.5 7 14.5 7
c2 0 4.33301 -0.666992 7 -2l107 -61c6 -2.66699 9 -7.66699 9 -15c0 -6 -2.16699 -11.333 -6.5 -16s-9.5 -7 -15.5 -7c-2.66699 0 -6 1 -10 3l-100 55c-7.33301 4.66699 -11 11.334 -11 20.001z" />
    <glyph glyph-name="uacute" unicode="&#xfa;" 
d="M61 177l-0.000976562 273.998c0 5.33301 2.5 10.166 7.5 14.499s10.833 6.5 17.5 6.5c6 0 11.5 -2.16699 16.5 -6.5s7.5 -9.16602 7.5 -14.499v-274c0 -36 13.167 -67.833 39.5 -95.5s57.833 -41.5 94.5 -41.5s68.167 13.833 94.5 41.5s39.5 59.5 39.5 95.5v275
c0 5.33301 2.5 10 7.5 14s10.833 6 17.5 6s12.334 -2 17.001 -6s7 -8.66699 7 -14v-275c0 -49.333 -18 -92.166 -54 -128.499s-79 -54.5 -129 -54.5s-93 18.333 -129 55s-54 79.334 -54 128.001zM173.999 618.998c0 7.33301 2.99902 12.334 8.99902 15.001l107 61
c2.66699 1.33301 5.33398 2 8.00098 2c6 0 10.667 -2.33301 14 -7s5 -10 5 -16c0 -8.66699 -3.66699 -15.334 -11 -20.001l-100 -55c-2.66699 -2 -6 -3 -10 -3c-6 0 -11.167 2.33301 -15.5 7s-6.5 10 -6.5 16z" />
    <glyph glyph-name="ucircumflex" unicode="&#xfb;" 
d="M61 177l-0.000976562 273.998c0 5.33301 2.5 10.166 7.5 14.499s10.833 6.5 17.5 6.5c6 0 11.5 -2.16699 16.5 -6.5s7.5 -9.16602 7.5 -14.499v-274c0 -36 13.167 -67.833 39.5 -95.5s57.833 -41.5 94.5 -41.5s68.167 13.833 94.5 41.5s39.5 59.5 39.5 95.5v275
c0 5.33301 2.5 10 7.5 14s10.833 6 17.5 6s12.334 -2 17.001 -6s7 -8.66699 7 -14v-275c0 -49.333 -18 -92.166 -54 -128.499s-79 -54.5 -129 -54.5s-93 18.333 -129 55s-54 79.334 -54 128.001zM111.999 618.998c0 7.33301 3.66699 13 11 17l104 56
c5.33301 3.33301 11 5 17 5s11.667 -1.66699 17 -5l104 -55c7.33301 -4 11 -10.667 11 -20c0 -5.33301 -1.83301 -10 -5.5 -14s-8.16699 -6 -13.5 -6l-9 3l-104 55l-104 -56c-0.666992 0 -2 -0.5 -4 -1.5s-3.33301 -1.5 -4 -1.5c-5.33301 0 -10 2.16699 -14 6.5
s-6 9.83301 -6 16.5z" />
    <glyph glyph-name="udieresis" unicode="&#xfc;" 
d="M61 177l-0.000976562 273.998c0 5.33301 2.5 10.166 7.5 14.499s10.833 6.5 17.5 6.5c6 0 11.5 -2.16699 16.5 -6.5s7.5 -9.16602 7.5 -14.499v-274c0 -36 13.167 -67.833 39.5 -95.5s57.833 -41.5 94.5 -41.5s68.167 13.833 94.5 41.5s39.5 59.5 39.5 95.5v275
c0 5.33301 2.5 10 7.5 14s10.833 6 17.5 6s12.334 -2 17.001 -6s7 -8.66699 7 -14v-275c0 -49.333 -18 -92.166 -54 -128.499s-79 -54.5 -129 -54.5s-93 18.333 -129 55s-54 79.334 -54 128.001zM152.999 629.998c0 9.33301 3.16699 17 9.5 23s14.166 9 23.499 9
s17 -3 23 -9s9 -13.667 9 -23s-3 -17.166 -9 -23.499s-13.667 -9.5 -23 -9.5s-17.166 3.16699 -23.499 9.5s-9.5 14.166 -9.5 23.499zM269.999 629.998c0 9.33301 3 17 9 23s14 9 24 9c9.33301 0 17 -3 23 -9s9 -13.667 9 -23s-3 -17.166 -9 -23.499s-13.667 -9.5 -23 -9.5
c-10 0 -18 3.16699 -24 9.5s-9 14.166 -9 23.499z" />
    <glyph glyph-name="yacute" unicode="&#xfd;" horiz-adv-x="408" 
d="M17 455c0 6.66699 3.00293 12.335 9.00293 17.002s12.667 7 20 7c10.667 0 17 -4.33301 19 -13l141 -385l137 385c4.66699 8.66699 11 13 19 13c6.66699 0 13 -2.33301 19 -7s9 -10.334 9 -17.001c0 -3.33301 -0.333008 -6 -1 -8l-158 -431l-21 -56
c-4 -10.667 -11.333 -28.5 -22 -53.5s-20.334 -43.667 -29.001 -56s-19.334 -26.333 -32.001 -42s-26.167 -26.834 -40.5 -33.501s-29.5 -10 -45.5 -10c-15.333 0 -23 7.66699 -23 23s6 23 18 23c55.333 0 103.666 68.333 144.999 205l-162 431c-1.33301 4 -2 6.66699 -2 8z
M138.003 619.001c0 7.33301 2.99902 12.334 8.99902 15.001l107 61c2.66699 1.33301 5.33398 2 8.00098 2c6 0 10.667 -2.33301 14 -7s5 -10 5 -16c0 -8.66699 -3.66699 -15.334 -11 -20.001l-100 -55c-2.66699 -2 -6 -3 -10 -3c-6 0 -11.167 2.33301 -15.5 7
s-6.5 10 -6.5 16z" />
    <glyph glyph-name="thorn" unicode="&#xfe;" horiz-adv-x="475" 
d="M66 -213l0.000976562 958.001c0 6 2.33301 11 7 15s10.334 6 17.001 6c7.33301 0 13.333 -2 18 -6s7 -9 7 -15v-343c12 22 29.5 40.167 52.5 54.5s49.833 21.5 80.5 21.5c49.333 0 91.666 -17.833 126.999 -53.5s53 -78.834 53 -129.501v-116
c0 -48.667 -17.833 -91.667 -53.5 -129s-77.167 -56 -124.5 -56c-29.333 0 -56.333 7.33301 -81 22s-42.667 32.667 -54 54v-283c0 -5.33301 -2.5 -10.333 -7.5 -15s-10.833 -7 -17.5 -7s-12.334 2.16699 -17.001 6.5s-7 9.5 -7 15.5zM115.001 145.001
c0 -19.333 13.333 -41.667 40 -67s57 -38 91 -38c35.333 0 66.333 14.167 93 42.5s40 60.5 40 96.5v116c0 35.333 -13.5 67 -40.5 95s-58.5 42 -94.5 42c-34 0 -64 -12.5 -90 -37.5s-39 -58.167 -39 -99.5v-150z" />
    <glyph glyph-name="ydieresis" unicode="&#xff;" horiz-adv-x="408" 
d="M17 455c0 6.66699 3.00293 12.335 9.00293 17.002s12.667 7 20 7c10.667 0 17 -4.33301 19 -13l141 -385l137 385c4.66699 8.66699 11 13 19 13c6.66699 0 13 -2.33301 19 -7s9 -10.334 9 -17.001c0 -3.33301 -0.333008 -6 -1 -8l-158 -431l-21 -56
c-4 -10.667 -11.333 -28.5 -22 -53.5s-20.334 -43.667 -29.001 -56s-19.334 -26.333 -32.001 -42s-26.167 -26.834 -40.5 -33.501s-29.5 -10 -45.5 -10c-15.333 0 -23 7.66699 -23 23s6 23 18 23c55.333 0 103.666 68.333 144.999 205l-162 431c-1.33301 4 -2 6.66699 -2 8z
M114.003 630.001c0 9.33301 3.16699 17 9.5 23s14.166 9 23.499 9s17 -3 23 -9s9 -13.667 9 -23s-3 -17.166 -9 -23.499s-13.667 -9.5 -23 -9.5s-17.166 3.16699 -23.499 9.5s-9.5 14.166 -9.5 23.499zM231.003 630.001c0 9.33301 3 17 9 23s14 9 24 9
c9.33301 0 17 -3 23 -9s9 -13.667 9 -23s-3 -17.166 -9 -23.499s-13.667 -9.5 -23 -9.5c-10 0 -18 3.16699 -24 9.5s-9 14.166 -9 23.499z" />
    <glyph glyph-name="Amacron" unicode="&#x100;" horiz-adv-x="530" 
d="M23 22c0 2.66699 0.333008 4.66699 1 6l214 691c4 12 13.333 18 28 18s24 -6 28 -18l212 -691c0 -0.666992 0.166992 -1.5 0.5 -2.5s0.5 -2.16699 0.5 -3.5c0 -6 -3 -11.167 -9 -15.5s-12.667 -6.5 -20 -6.5c-10.667 0 -17.334 5 -20.001 15l-49 159h-288l-48 -159
c-3.33301 -10 -10.666 -15 -21.999 -15c-7.33301 0 -13.833 2 -19.5 6s-8.5 9.33301 -8.5 16zM134 220h261l-129 427zM136 919c0 14.667 7 22 21 22h217c5.33301 0 10.333 -2.16699 15 -6.5s7 -9.5 7 -15.5s-2.16699 -10.833 -6.5 -14.5s-9.5 -5.5 -15.5 -5.5h-217
c-14 0 -21 6.66699 -21 20z" />
    <glyph glyph-name="amacron" unicode="&#x101;" horiz-adv-x="431" 
d="M33 126c0 50 19.835 84.833 59.502 104.5s97.5 29.5 173.5 29.5h54v26c0 40 -10.5 74.5 -31.5 103.5s-52.5 43.5 -94.5 43.5c-25.333 0 -49 -4.66699 -71 -14s-33.333 -14 -34 -14c-6.66699 0 -12 3 -16 9s-6 12 -6 18c0 11.333 13.833 21.833 41.5 31.5
s56.834 14.5 87.501 14.5c59.333 0 103 -18.167 131 -54.5s42 -82.166 42 -137.499v-264c0 -6 -2.33301 -11.167 -7 -15.5s-10.334 -6.5 -17.001 -6.5s-12.334 2.16699 -17.001 6.5s-7 9.5 -7 15.5v48c-44 -50.667 -94 -76 -150 -76c-40.667 0 -73.834 11.167 -99.501 33.5
s-38.5 55.166 -38.5 98.499zM80.002 662c0 14.667 7 22 21 22h217c5.33301 0 10.333 -2.16699 15 -6.5s7 -9.5 7 -15.5s-2.16699 -10.833 -6.5 -14.5s-9.5 -5.5 -15.5 -5.5h-217c-14 0 -21 6.66699 -21 20zM82.002 128c0 -30 8.83105 -52.499 26.498 -67.499
s40.834 -22.5 69.501 -22.5c34 0 66.167 12.167 96.5 36.5s45.5 48.166 45.5 71.499v74h-49c-28.667 0 -52.667 -1 -72 -3s-38.666 -5.83301 -57.999 -11.5s-34 -15 -44 -28s-15 -29.5 -15 -49.5z" />
    <glyph glyph-name="Abreve" unicode="&#x102;" horiz-adv-x="530" 
d="M23 22c0 2.66699 0.333008 4.66699 1 6l214 691c4 12 13.333 18 28 18s24 -6 28 -18l212 -691c0 -0.666992 0.166992 -1.5 0.5 -2.5s0.5 -2.16699 0.5 -3.5c0 -6 -3 -11.167 -9 -15.5s-12.667 -6.5 -20 -6.5c-10.667 0 -17.334 5 -20.001 15l-49 159h-288l-48 -159
c-3.33301 -10 -10.666 -15 -21.999 -15c-7.33301 0 -13.833 2 -19.5 6s-8.5 9.33301 -8.5 16zM134 220h261l-129 427zM153 969h37.999c0 -22.667 7.33301 -42 22 -58s32.334 -24 53.001 -24c20 0 37.333 8 52 24s22 35.333 22 58h38c0 -30 -11.333 -56.333 -34 -79
s-48.667 -34 -78 -34c-30 0 -56.333 11.167 -79 33.5s-34 48.833 -34 79.5z" />
    <glyph glyph-name="abreve" unicode="&#x103;" horiz-adv-x="431" 
d="M33 126c0 50 19.835 84.833 59.502 104.5s97.5 29.5 173.5 29.5h54v26c0 40 -10.5 74.5 -31.5 103.5s-52.5 43.5 -94.5 43.5c-25.333 0 -49 -4.66699 -71 -14s-33.333 -14 -34 -14c-6.66699 0 -12 3 -16 9s-6 12 -6 18c0 11.333 13.833 21.833 41.5 31.5
s56.834 14.5 87.501 14.5c59.333 0 103 -18.167 131 -54.5s42 -82.166 42 -137.499v-264c0 -6 -2.33301 -11.167 -7 -15.5s-10.334 -6.5 -17.001 -6.5s-12.334 2.16699 -17.001 6.5s-7 9.5 -7 15.5v48c-44 -50.667 -94 -76 -150 -76c-40.667 0 -73.834 11.167 -99.501 33.5
s-38.5 55.166 -38.5 98.499zM82.002 128c0 -30 8.83105 -52.499 26.498 -67.499s40.834 -22.5 69.501 -22.5c34 0 66.167 12.167 96.5 36.5s45.5 48.166 45.5 71.499v74h-49c-28.667 0 -52.667 -1 -72 -3s-38.666 -5.83301 -57.999 -11.5s-34 -15 -44 -28
s-15 -29.5 -15 -49.5zM98 712.001h37.999c0 -22.667 7.33301 -42 22 -58s32.334 -24 53.001 -24c20 0 37.333 8 52 24s22 35.333 22 58h38c0 -30 -11.333 -56.333 -34 -79s-48.667 -34 -78 -34c-30 0 -56.333 11.167 -79 33.5s-34 48.833 -34 79.5z" />
    <glyph glyph-name="Aogonek" unicode="&#x104;" horiz-adv-x="530" 
d="M23 22c0 2.66699 0.332031 4.66602 0.999023 5.99902l214 691c4 12 13.333 18 28 18s24 -6 28 -18l212 -691c0 -0.666992 0.166992 -1.5 0.5 -2.5s0.5 -2.16699 0.5 -3.5c0 -8 -5.33301 -14.333 -16 -19c-48.667 -45.333 -73 -87.666 -73 -126.999
c0 -28.667 21 -43 63 -43c12 0 18 -5.33301 18 -16c0 -10 -8 -15 -24 -15c-24.667 0 -46 5.66699 -64 17s-27 29.333 -27 54c0 50.667 24.667 98 74 142l-49 159h-288l-48 -159c-3.33301 -10 -10.666 -15 -21.999 -15c-7.33301 0 -13.833 2 -19.5 6s-8.5 9.33301 -8.5 16z
M133.999 219.999h261l-129 427z" />
    <glyph glyph-name="aogonek" unicode="&#x105;" horiz-adv-x="431" 
d="M33 126c0 50 19.833 84.833 59.5 104.5s97.5 29.5 173.5 29.5h54v26c0 40 -10.5 74.5 -31.5 103.5s-52.5 43.5 -94.5 43.5c-25.333 0 -49 -4.66699 -71 -14s-33.333 -14 -34 -14c-6.66699 0 -12 3 -16 9s-6 12 -6 18c0 11.333 13.833 21.833 41.5 31.5
s56.834 14.5 87.501 14.5c59.333 0 103 -18.167 131 -54.5s42 -82.166 42 -137.499v-264c0 -10 -4.33301 -16.667 -13 -20c-48 -43.333 -72 -85.333 -72 -126c0 -28.667 21 -43 63 -43c12 0 18 -5.33301 18 -16c0 -10 -8 -15 -24 -15c-24.667 0 -46 5.66699 -64 17
s-27 29.333 -27 54c0 49.333 24 96.333 72 141c-0.666992 1.33301 -1 4 -1 8v48c-44 -50.667 -94 -76 -150 -76c-40.667 0 -73.834 11.167 -99.501 33.5s-38.5 55.166 -38.5 98.499zM82 128c0 -30 8.83105 -52.499 26.498 -67.499s40.834 -22.5 69.501 -22.5
c34 0 66.167 12.167 96.5 36.5s45.5 48.166 45.5 71.499v74h-49c-28.667 0 -52.667 -1 -72 -3s-38.666 -5.83301 -57.999 -11.5s-34 -15 -44 -28s-15 -29.5 -15 -49.5z" />
    <glyph glyph-name="Cacute" unicode="&#x106;" horiz-adv-x="517" 
d="M72 204l-0.000976562 317.003c0 72 18.833 125 56.5 159s86.834 51 147.501 51c61.333 0 109.833 -15.833 145.5 -47.5s53.5 -69.834 53.5 -114.501c0 -12.667 -2 -21.334 -6 -26.001s-10.333 -7 -19 -7c-16.667 0 -25 7 -25 21c-0.666992 14 -3.16699 27.167 -7.5 39.5
s-11.333 25.666 -21 39.999s-24.834 25.666 -45.501 33.999s-45.667 12.5 -75 12.5c-102.667 0 -154 -54 -154 -162v-317c0 -108 52.333 -162 157 -162c24 0 44.833 3 62.5 9s31.334 12.833 41.001 20.5s17.667 18.334 24 32.001s10.5 24.5 12.5 32.5s4 19 6 33
c1.33301 14 9.33301 21 24 21c9.33301 0 16 -2.33301 20 -7s6 -13.667 6 -27c0 -44 -18.167 -82 -54.5 -114s-85.5 -48 -147.5 -48c-60 0 -108.5 17 -145.5 51s-55.5 87 -55.5 159zM203.999 876.003c0 7.33301 2.99902 12.334 8.99902 15.001l107 61
c2.66699 1.33301 5.33398 2 8.00098 2c6 0 10.667 -2.33301 14 -7s5 -10 5 -16c0 -8.66699 -3.66699 -15.334 -11 -20.001l-100 -55c-2.66699 -2 -6 -3 -10 -3c-6 0 -11.167 2.33301 -15.5 7s-6.5 10 -6.5 16z" />
    <glyph glyph-name="cacute" unicode="&#x107;" horiz-adv-x="406" 
d="M49 179l-0.00195312 113.999c0 54.667 15.833 99.167 47.5 133.5s78.5 51.5 140.5 51.5c38 0 70 -6.83301 96 -20.5s39 -27.167 39 -40.5c0 -6 -2.33301 -11.5 -7 -16.5s-10 -7.5 -16 -7.5c-3.33301 0 -9.16602 3.16699 -17.499 9.5s-20.5 12.833 -36.5 19.5
s-35 10 -57 10c-44.667 0 -79.167 -12.333 -103.5 -37s-36.5 -58.667 -36.5 -102v-114c0 -44 12 -78.167 36 -102.5s59 -36.5 105 -36.5c23.333 0 43.333 3.33301 60 10s29.334 13.334 38.001 20.001s15 10 19 10c6 0 11.167 -2.5 15.5 -7.5s6.5 -10.5 6.5 -16.5
c0 -14 -13.5 -27.833 -40.5 -41.5s-60.5 -20.5 -100.5 -20.5c-61.333 0 -108 17 -140 51s-48 78.667 -48 134zM143.998 618.999c0 7.33301 2.99902 12.334 8.99902 15.001l107 61c2.66699 1.33301 5.33398 2 8.00098 2c6 0 10.667 -2.33301 14 -7s5 -10 5 -16
c0 -8.66699 -3.66699 -15.334 -11 -20.001l-100 -55c-2.66699 -2 -6 -3 -10 -3c-6 0 -11.167 2.33301 -15.5 7s-6.5 10 -6.5 16z" />
    <glyph glyph-name="Ccircumflex" unicode="&#x108;" horiz-adv-x="517" 
d="M72 204l-0.000976562 317.003c0 72 18.833 125 56.5 159s86.834 51 147.501 51c61.333 0 109.833 -15.833 145.5 -47.5s53.5 -69.834 53.5 -114.501c0 -12.667 -2 -21.334 -6 -26.001s-10.333 -7 -19 -7c-16.667 0 -25 7 -25 21c-0.666992 14 -3.16699 27.167 -7.5 39.5
s-11.333 25.666 -21 39.999s-24.834 25.666 -45.501 33.999s-45.667 12.5 -75 12.5c-102.667 0 -154 -54 -154 -162v-317c0 -108 52.333 -162 157 -162c24 0 44.833 3 62.5 9s31.334 12.833 41.001 20.5s17.667 18.334 24 32.001s10.5 24.5 12.5 32.5s4 19 6 33
c1.33301 14 9.33301 21 24 21c9.33301 0 16 -2.33301 20 -7s6 -13.667 6 -27c0 -44 -18.167 -82 -54.5 -114s-85.5 -48 -147.5 -48c-60 0 -108.5 17 -145.5 51s-55.5 87 -55.5 159zM140.999 876.003c0 8 3.66699 13.667 11 17l104 56c5.33301 3.33301 11 5 17 5
s11.667 -1.66699 17 -5l104 -55c7.33301 -4 11 -10.667 11 -20c0 -5.33301 -1.83301 -10 -5.5 -14s-8.16699 -6 -13.5 -6l-9 3l-104 55l-104 -56c-0.666992 0 -2 -0.5 -4 -1.5s-3.33301 -1.5 -4 -1.5c-5.33301 0 -10 2.16699 -14 6.5s-6 9.83301 -6 16.5z" />
    <glyph glyph-name="ccircumflex" unicode="&#x109;" horiz-adv-x="406" 
d="M49 179l-0.00195312 113.999c0 54.667 15.833 99.167 47.5 133.5s78.5 51.5 140.5 51.5c38 0 70 -6.83301 96 -20.5s39 -27.167 39 -40.5c0 -6 -2.33301 -11.5 -7 -16.5s-10 -7.5 -16 -7.5c-3.33301 0 -9.16602 3.16699 -17.499 9.5s-20.5 12.833 -36.5 19.5
s-35 10 -57 10c-44.667 0 -79.167 -12.333 -103.5 -37s-36.5 -58.667 -36.5 -102v-114c0 -44 12 -78.167 36 -102.5s59 -36.5 105 -36.5c23.333 0 43.333 3.33301 60 10s29.334 13.334 38.001 20.001s15 10 19 10c6 0 11.167 -2.5 15.5 -7.5s6.5 -10.5 6.5 -16.5
c0 -14 -13.5 -27.833 -40.5 -41.5s-60.5 -20.5 -100.5 -20.5c-61.333 0 -108 17 -140 51s-48 78.667 -48 134zM82.998 618.999c0 7.33301 3.66699 13 11 17l104 56c5.33301 3.33301 11 5 17 5s11.667 -1.66699 17 -5l104 -55c7.33301 -4 11 -10.667 11 -20
c0 -5.33301 -1.83301 -10 -5.5 -14s-8.16699 -6 -13.5 -6l-9 3l-104 55l-104 -56c-0.666992 0 -2 -0.5 -4 -1.5s-3.33301 -1.5 -4 -1.5c-5.33301 0 -10 2.16699 -14 6.5s-6 9.83301 -6 16.5z" />
    <glyph glyph-name="Cdotaccent" unicode="&#x10a;" horiz-adv-x="517" 
d="M72 204l-0.000976562 317.003c0 72 18.833 125 56.5 159s86.834 51 147.501 51c61.333 0 109.833 -15.833 145.5 -47.5s53.5 -69.834 53.5 -114.501c0 -12.667 -2 -21.334 -6 -26.001s-10.333 -7 -19 -7c-16.667 0 -25 7 -25 21c-0.666992 14 -3.16699 27.167 -7.5 39.5
s-11.333 25.666 -21 39.999s-24.834 25.666 -45.501 33.999s-45.667 12.5 -75 12.5c-102.667 0 -154 -54 -154 -162v-317c0 -108 52.333 -162 157 -162c24 0 44.833 3 62.5 9s31.334 12.833 41.001 20.5s17.667 18.334 24 32.001s10.5 24.5 12.5 32.5s4 19 6 33
c1.33301 14 9.33301 21 24 21c9.33301 0 16 -2.33301 20 -7s6 -13.667 6 -27c0 -44 -18.167 -82 -54.5 -114s-85.5 -48 -147.5 -48c-60 0 -108.5 17 -145.5 51s-55.5 87 -55.5 159zM239.999 887.003c0 9.33301 3.16699 17 9.5 23s14.166 9 23.499 9s17.166 -3 23.499 -9
s9.5 -13.667 9.5 -23s-3.16699 -17.166 -9.5 -23.499s-14.166 -9.5 -23.499 -9.5s-17.166 3.16699 -23.499 9.5s-9.5 14.166 -9.5 23.499z" />
    <glyph glyph-name="cdotaccent" unicode="&#x10b;" horiz-adv-x="406" 
d="M49 179l-0.00195312 113.999c0 54.667 15.833 99.167 47.5 133.5s78.5 51.5 140.5 51.5c38 0 70 -6.83301 96 -20.5s39 -27.167 39 -40.5c0 -6 -2.33301 -11.5 -7 -16.5s-10 -7.5 -16 -7.5c-3.33301 0 -9.16602 3.16699 -17.499 9.5s-20.5 12.833 -36.5 19.5
s-35 10 -57 10c-44.667 0 -79.167 -12.333 -103.5 -37s-36.5 -58.667 -36.5 -102v-114c0 -44 12 -78.167 36 -102.5s59 -36.5 105 -36.5c23.333 0 43.333 3.33301 60 10s29.334 13.334 38.001 20.001s15 10 19 10c6 0 11.167 -2.5 15.5 -7.5s6.5 -10.5 6.5 -16.5
c0 -14 -13.5 -27.833 -40.5 -41.5s-60.5 -20.5 -100.5 -20.5c-61.333 0 -108 17 -140 51s-48 78.667 -48 134zM180.998 629.999c0 9.33301 3.16699 17 9.5 23s14.166 9 23.499 9s17.166 -3 23.499 -9s9.5 -13.667 9.5 -23s-3.16699 -17.166 -9.5 -23.499
s-14.166 -9.5 -23.499 -9.5s-17.166 3.16699 -23.499 9.5s-9.5 14.166 -9.5 23.499z" />
    <glyph glyph-name="Ccaron" unicode="&#x10c;" horiz-adv-x="517" 
d="M72 204l-0.000976562 317.003c0 72 18.833 125 56.5 159s86.834 51 147.501 51c61.333 0 109.833 -15.833 145.5 -47.5s53.5 -69.834 53.5 -114.501c0 -12.667 -2 -21.334 -6 -26.001s-10.333 -7 -19 -7c-16.667 0 -25 7 -25 21c-0.666992 14 -3.16699 27.167 -7.5 39.5
s-11.333 25.666 -21 39.999s-24.834 25.666 -45.501 33.999s-45.667 12.5 -75 12.5c-102.667 0 -154 -54 -154 -162v-317c0 -108 52.333 -162 157 -162c24 0 44.833 3 62.5 9s31.334 12.833 41.001 20.5s17.667 18.334 24 32.001s10.5 24.5 12.5 32.5s4 19 6 33
c1.33301 14 9.33301 21 24 21c9.33301 0 16 -2.33301 20 -7s6 -13.667 6 -27c0 -44 -18.167 -82 -54.5 -114s-85.5 -48 -147.5 -48c-60 0 -108.5 17 -145.5 51s-55.5 87 -55.5 159zM140.999 969.003c0 4.66699 1.66699 9 5 13s7.33301 6 12 6
c5.33301 0 10.333 -2.33301 15 -7l99 -98l98 98c4.66699 4.66699 10 7 16 7c4.66699 0 8.66699 -2 12 -6s5 -8.33301 5 -13s-3.33301 -11 -10 -19l-101 -96c-8 -6.66699 -14.667 -10 -20 -10c-7.33301 0 -14.333 3.33301 -21 10l-100 96c-6.66699 6.66699 -10 13 -10 19z
" />
    <glyph glyph-name="ccaron" unicode="&#x10d;" horiz-adv-x="406" 
d="M49 179l-0.00195312 113.999c0 54.667 15.833 99.167 47.5 133.5s78.5 51.5 140.5 51.5c38 0 70 -6.83301 96 -20.5s39 -27.167 39 -40.5c0 -6 -2.33301 -11.5 -7 -16.5s-10 -7.5 -16 -7.5c-3.33301 0 -9.16602 3.16699 -17.499 9.5s-20.5 12.833 -36.5 19.5
s-35 10 -57 10c-44.667 0 -79.167 -12.333 -103.5 -37s-36.5 -58.667 -36.5 -102v-114c0 -44 12 -78.167 36 -102.5s59 -36.5 105 -36.5c23.333 0 43.333 3.33301 60 10s29.334 13.334 38.001 20.001s15 10 19 10c6 0 11.167 -2.5 15.5 -7.5s6.5 -10.5 6.5 -16.5
c0 -14 -13.5 -27.833 -40.5 -41.5s-60.5 -20.5 -100.5 -20.5c-61.333 0 -108 17 -140 51s-48 78.667 -48 134zM82.998 711.999c0 4.66699 1.66699 9 5 13s7.33301 6 12 6c5.33301 0 10.333 -2.33301 15 -7l99 -98l98 98c4.66699 4.66699 10 7 16 7
c4.66699 0 8.66699 -2 12 -6s5 -8.33301 5 -13s-3.33301 -11 -10 -19l-101 -96c-8 -6.66699 -14.667 -10 -20 -10c-7.33301 0 -14.333 3.33301 -21 10l-100 96c-6.66699 6.66699 -10 13 -10 19z" />
    <glyph glyph-name="Dcaron" unicode="&#x10e;" horiz-adv-x="554" 
d="M79 21v689.004c0 5.33301 2.33301 10.166 7 14.499s10.334 6.5 17.001 6.5h177c60.667 0 109.5 -16.833 146.5 -50.5s55.5 -86.834 55.5 -159.501v-311c0 -72.667 -18.5 -125.834 -55.5 -159.501s-85.833 -50.5 -146.5 -50.5h-177
c-6.66699 0 -12.334 2.16699 -17.001 6.5s-7 9.16602 -7 14.499zM129 48.0039h151c48.667 0 86.167 13.5 112.5 40.5s39.5 67.5 39.5 121.5v311c0 54 -13.167 94.5 -39.5 121.5s-63.833 40.5 -112.5 40.5h-151v-635zM146 969.004c0 4.66699 1.66699 9 5 13s7.33301 6 12 6
c5.33301 0 10.333 -2.33301 15 -7l99 -98l98 98c4.66699 4.66699 10 7 16 7c4.66699 0 8.66699 -2 12 -6s5 -8.33301 5 -13s-3.33301 -11 -10 -19l-101 -96c-8 -6.66699 -14.667 -10 -20 -10c-7.33301 0 -14.333 3.33301 -21 10l-100 96c-6.66699 6.66699 -10 13 -10 19z
" />
    <glyph glyph-name="dcaron" unicode="&#x10f;" horiz-adv-x="476" 
d="M48 179l0.00195312 115.999c0 50.667 17.667 93.834 53 129.501s77.666 53.5 126.999 53.5c30.667 0 57.5 -7.16699 80.5 -21.5s40.5 -32.5 52.5 -54.5v343c0 6 2.33301 11 7 15s10.667 6 18 6c6.66699 0 12.334 -2 17.001 -6s7 -9 7 -15v-723
c0 -6 -2.33301 -11.167 -7 -15.5s-10.334 -6.5 -17.001 -6.5s-12.334 2.33301 -17.001 7s-7 9.66699 -7 15v48c-11.333 -21.333 -29.5 -39.333 -54.5 -54s-52.167 -22 -81.5 -22c-47.333 0 -88.833 18.667 -124.5 56s-53.5 80.333 -53.5 129zM97.002 178.999
c0 -36 13.333 -68.166 40 -96.499s57.667 -42.5 93 -42.5c34 0 64.333 12.667 91 38s40 47.666 40 66.999v150c0 40.667 -13.167 73.667 -39.5 99s-56.5 38 -90.5 38c-36 0 -67.333 -14 -94 -42s-40 -59.667 -40 -95v-116zM471.002 700
c0 11.333 3.83203 21.002 11.499 29.002s17.5 12 29.5 12c10.667 0 20 -4 28 -12s12 -17.667 12 -29c0 -17.333 -12.333 -52 -37 -104c-3.33301 -7.33301 -8.66602 -11 -15.999 -11c-4.66699 0 -9.16699 1.66699 -13.5 5s-6.5 7.66602 -6.5 12.999
c0 3.33301 0.666992 5.66602 2 6.99902l19 51c-19.333 6.66699 -29 19.667 -29 39z" />
    <glyph glyph-name="Dcroat" unicode="&#x110;" horiz-adv-x="564" 
d="M1 384c0 6 1.83301 11.1709 5.5 15.5039s8.5 6.5 14.5 6.5h68v304c0 5.33301 2.33301 10.166 7 14.499s10.334 6.5 17.001 6.5h177c60.667 0 109.5 -16.833 146.5 -50.5s55.5 -86.834 55.5 -159.501v-311c0 -72.667 -18.5 -125.834 -55.5 -159.501
s-85.833 -50.5 -146.5 -50.5h-177c-6.66699 0 -12.334 2.16699 -17.001 6.5s-7 9.16602 -7 14.499v341h-68c-6 0 -10.833 2.16699 -14.5 6.5s-5.5 9.5 -5.5 15.5zM139 48.0039h151c48.667 0 86.167 13.5 112.5 40.5s39.5 67.5 39.5 121.5v311c0 54 -13.167 94.5 -39.5 121.5
s-63.833 40.5 -112.5 40.5h-151v-277h123c5.33301 0 10 -2.16699 14 -6.5s6 -9.5 6 -15.5s-2 -11.167 -6 -15.5s-8.66699 -6.5 -14 -6.5h-123v-314z" />
    <glyph glyph-name="dcroat" unicode="&#x111;" horiz-adv-x="476" 
d="M48 179l0.00195312 115.999c0 50.667 17.667 93.834 53 129.501s77.666 53.5 126.999 53.5c30.667 0 57.5 -7.16699 80.5 -21.5s40.5 -32.5 52.5 -54.5v177h-129c-13.333 0 -20 7 -20 21c0 6 1.83301 11.167 5.5 15.5s8.5 6.5 14.5 6.5h129v123c0 6 2.33301 11 7 15
s10.667 6 18 6c6.66699 0 12.334 -2 17.001 -6s7 -9 7 -15v-123h53c5.33301 0 10 -2.16699 14 -6.5s6 -9.5 6 -15.5s-2 -11 -6 -15s-8.66699 -6 -14 -6h-53v-557c0 -6 -2.33301 -11.167 -7 -15.5s-10.334 -6.5 -17.001 -6.5s-12.334 2.33301 -17.001 7s-7 9.66699 -7 15v48
c-11.333 -21.333 -29.5 -39.333 -54.5 -54s-52.167 -22 -81.5 -22c-47.333 0 -88.833 18.667 -124.5 56s-53.5 80.333 -53.5 129zM97.002 178.999c0 -36 13.333 -68.166 40 -96.499s57.667 -42.5 93 -42.5c34 0 64.333 12.667 91 38s40 47.666 40 66.999v150
c0 40.667 -13.167 73.667 -39.5 99s-56.5 38 -90.5 38c-36 0 -67.333 -14 -94 -42s-40 -59.667 -40 -95v-116z" />
    <glyph glyph-name="Emacron" unicode="&#x112;" horiz-adv-x="503" 
d="M79 22v687.001c0 14.667 8 22 24 22h356c14 0 21 -7.66699 21 -23c0 -6.66699 -2 -12.5 -6 -17.5s-9 -7.5 -15 -7.5h-330v-294h159c6 0 11 -2.33301 15 -7s6 -10.334 6 -17.001c0 -14.667 -7 -22 -21 -22h-159v-295h330c6 0 11 -2.5 15 -7.5s6 -10.833 6 -17.5
c0 -15.333 -7 -23 -21 -23h-356c-16 -0 -24 7.33301 -24 22zM150 919.001c0 14.667 7 22 21 22h217c5.33301 0 10.333 -2.16699 15 -6.5s7 -9.5 7 -15.5s-2.16699 -10.833 -6.5 -14.5s-9.5 -5.5 -15.5 -5.5h-217c-14 0 -21 6.66699 -21 20z" />
    <glyph glyph-name="emacron" unicode="&#x113;" horiz-adv-x="451" 
d="M48 179l-0.00195312 118.999c0 49.333 18 91.666 54 126.999s79.333 53 130 53c49.333 0 92 -17.333 128 -52s54 -77.667 54 -129c0 -18 -2.16699 -32.5 -6.5 -43.5s-11.166 -18.833 -20.499 -23.5s-17.833 -7.5 -25.5 -8.5s-18.5 -1.5 -32.5 -1.5h-232v-42
c0 -42 15 -75.667 45 -101s68.667 -38 116 -38c24 0 44.333 3.33301 61 10s29.334 13.334 38.001 20.001s15.334 10 20.001 10c6 0 11.333 -2.66699 16 -8s7 -10.666 7 -15.999c0 -12.667 -13.833 -26 -41.5 -40s-61.834 -21 -102.501 -21c-61.333 0 -111.333 17 -150 51
s-58 78.667 -58 134zM96.998 260.999l212.999 -0.000976562c22.667 0 37.667 2.33301 45 7s11 14.334 11 29.001c0 35.333 -12.667 67 -38 95s-57.333 42 -96 42c-37.333 0 -69.166 -13 -95.499 -39s-39.5 -57 -39.5 -93v-41zM101.997 661.998c0 14.667 7 22 21 22h217
c5.33301 0 10.333 -2.16699 15 -6.5s7 -9.5 7 -15.5s-2.16699 -10.833 -6.5 -14.5s-9.5 -5.5 -15.5 -5.5h-217c-14 0 -21 6.66699 -21 20z" />
    <glyph glyph-name="Ebreve" unicode="&#x114;" horiz-adv-x="503" 
d="M79 22v687.001c0 14.667 8 22 24 22h356c14 0 21 -7.66699 21 -23c0 -6.66699 -2 -12.5 -6 -17.5s-9 -7.5 -15 -7.5h-330v-294h159c6 0 11 -2.33301 15 -7s6 -10.334 6 -17.001c0 -14.667 -7 -22 -21 -22h-159v-295h330c6 0 11 -2.5 15 -7.5s6 -10.833 6 -17.5
c0 -15.333 -7 -23 -21 -23h-356c-16 -0 -24 7.33301 -24 22zM166 969.001h37.999c0 -22.667 7.33301 -42 22 -58s32.334 -24 53.001 -24c20 0 37.333 8 52 24s22 35.333 22 58h38c0 -30 -11.333 -56.333 -34 -79s-48.667 -34 -78 -34c-30 0 -56.333 11.167 -79 33.5
s-34 48.833 -34 79.5z" />
    <glyph glyph-name="ebreve" unicode="&#x115;" horiz-adv-x="451" 
d="M48 179l-0.00195312 118.999c0 49.333 18 91.666 54 126.999s79.333 53 130 53c49.333 0 92 -17.333 128 -52s54 -77.667 54 -129c0 -18 -2.16699 -32.5 -6.5 -43.5s-11.166 -18.833 -20.499 -23.5s-17.833 -7.5 -25.5 -8.5s-18.5 -1.5 -32.5 -1.5h-232v-42
c0 -42 15 -75.667 45 -101s68.667 -38 116 -38c24 0 44.333 3.33301 61 10s29.334 13.334 38.001 20.001s15.334 10 20.001 10c6 0 11.333 -2.66699 16 -8s7 -10.666 7 -15.999c0 -12.667 -13.833 -26 -41.5 -40s-61.834 -21 -102.501 -21c-61.333 0 -111.333 17 -150 51
s-58 78.667 -58 134zM96.998 260.999l212.999 -0.000976562c22.667 0 37.667 2.33301 45 7s11 14.334 11 29.001c0 35.333 -12.667 67 -38 95s-57.333 42 -96 42c-37.333 0 -69.166 -13 -95.499 -39s-39.5 -57 -39.5 -93v-41zM117.997 711.998h37.999
c0 -22.667 7.33301 -42 22 -58s32.334 -24 53.001 -24c20 0 37.333 8 52 24s22 35.333 22 58h38c0 -30 -11.333 -56.333 -34 -79s-48.667 -34 -78 -34c-30 0 -56.333 11.167 -79 33.5s-34 48.833 -34 79.5z" />
    <glyph glyph-name="Edotaccent" unicode="&#x116;" horiz-adv-x="503" 
d="M79 22v687.001c0 14.667 8 22 24 22h356c14 0 21 -7.66699 21 -23c0 -6.66699 -2 -12.5 -6 -17.5s-9 -7.5 -15 -7.5h-330v-294h159c6 0 11 -2.33301 15 -7s6 -10.334 6 -17.001c0 -14.667 -7 -22 -21 -22h-159v-295h330c6 0 11 -2.5 15 -7.5s6 -10.833 6 -17.5
c0 -15.333 -7 -23 -21 -23h-356c-16 -0 -24 7.33301 -24 22zM248 887.001c0 9.33301 3.16699 17 9.5 23s14.166 9 23.499 9s17.166 -3 23.499 -9s9.5 -13.667 9.5 -23s-3.16699 -17.166 -9.5 -23.499s-14.166 -9.5 -23.499 -9.5s-17.166 3.16699 -23.499 9.5
s-9.5 14.166 -9.5 23.499z" />
    <glyph glyph-name="edotaccent" unicode="&#x117;" horiz-adv-x="451" 
d="M48 179l-0.00195312 118.999c0 49.333 18 91.666 54 126.999s79.333 53 130 53c49.333 0 92 -17.333 128 -52s54 -77.667 54 -129c0 -18 -2.16699 -32.5 -6.5 -43.5s-11.166 -18.833 -20.499 -23.5s-17.833 -7.5 -25.5 -8.5s-18.5 -1.5 -32.5 -1.5h-232v-42
c0 -42 15 -75.667 45 -101s68.667 -38 116 -38c24 0 44.333 3.33301 61 10s29.334 13.334 38.001 20.001s15.334 10 20.001 10c6 0 11.333 -2.66699 16 -8s7 -10.666 7 -15.999c0 -12.667 -13.833 -26 -41.5 -40s-61.834 -21 -102.501 -21c-61.333 0 -111.333 17 -150 51
s-58 78.667 -58 134zM96.998 260.999l212.999 -0.000976562c22.667 0 37.667 2.33301 45 7s11 14.334 11 29.001c0 35.333 -12.667 67 -38 95s-57.333 42 -96 42c-37.333 0 -69.166 -13 -95.499 -39s-39.5 -57 -39.5 -93v-41zM197.997 629.998c0 9.33301 3.16699 17 9.5 23
s14.166 9 23.499 9s17.166 -3 23.499 -9s9.5 -13.667 9.5 -23s-3.16699 -17.166 -9.5 -23.499s-14.166 -9.5 -23.499 -9.5s-17.166 3.16699 -23.499 9.5s-9.5 14.166 -9.5 23.499z" />
    <glyph glyph-name="Eogonek" unicode="&#x118;" horiz-adv-x="503" 
d="M79 22v687.001c0 14.667 8 22 24 22h356c14 0 21 -7.66699 21 -23c0 -6.66699 -2 -12.5 -6 -17.5s-9 -7.5 -15 -7.5h-330v-294h159c6 0 11 -2.33301 15 -7s6 -10.334 6 -17.001c0 -14.667 -7 -22 -21 -22h-159v-295h330c6 0 11 -2.5 15 -7.5s6 -10.833 6 -17.5
c0 -10 -4 -17 -12 -21c-48 -43.333 -72 -85.333 -72 -126c0 -28.667 21 -43 63 -43c12 0 18 -5.33301 18 -16c0 -10 -8 -15 -24 -15c-24.667 0 -46 5.66699 -64 17s-27 29.333 -27 54c0 44.667 19.333 87 58 127h-317c-16 -0 -24 7.33301 -24 22z" />
    <glyph glyph-name="eogonek" unicode="&#x119;" horiz-adv-x="451" 
d="M48 179l-0.00292969 118.999c0 49.333 18 91.666 54 126.999s79.333 53 130 53c49.333 0 92 -17.333 128 -52s54 -77.667 54 -129c0 -18 -2.16699 -32.5 -6.5 -43.5s-11.166 -18.833 -20.499 -23.5s-17.833 -7.5 -25.5 -8.5s-18.5 -1.5 -32.5 -1.5h-232v-42
c0 -42 15 -75.667 45 -101s68.667 -38 116 -38c24 0 44.333 3.33301 61 10s29.334 13.334 38.001 20.001s15.334 10 20.001 10c6 0 11.333 -2.66699 16 -8s7 -10.666 7 -15.999c0 -12 -11.667 -24.333 -35 -37c-44 -40.667 -66 -80.667 -66 -120c0 -28.667 21 -43 63 -43
c12 0 18 -5.33301 18 -16c0 -10 -8 -15 -24 -15c-24.667 0 -46 5.66699 -64 17s-27 29.333 -27 54c0 36.667 12.333 71 37 103c-18.667 -2.66699 -34 -4 -46 -4c-61.333 0 -111.333 17 -150 51s-58 78.667 -58 134zM96.9971 260.999l212.999 -0.000976562
c22.667 0 37.667 2.33301 45 7s11 14.334 11 29.001c0 35.333 -12.667 67 -38 95s-57.333 42 -96 42c-37.333 0 -69.166 -13 -95.499 -39s-39.5 -57 -39.5 -93v-41z" />
    <glyph glyph-name="Ecaron" unicode="&#x11a;" horiz-adv-x="503" 
d="M79 22v687.001c0 14.667 8 22 24 22h356c14 0 21 -7.66699 21 -23c0 -6.66699 -2 -12.5 -6 -17.5s-9 -7.5 -15 -7.5h-330v-294h159c6 0 11 -2.33301 15 -7s6 -10.334 6 -17.001c0 -14.667 -7 -22 -21 -22h-159v-295h330c6 0 11 -2.5 15 -7.5s6 -10.833 6 -17.5
c0 -15.333 -7 -23 -21 -23h-356c-16 -0 -24 7.33301 -24 22zM147 969.001c0 4.66699 1.66699 9 5 13s7.33301 6 12 6c5.33301 0 10.333 -2.33301 15 -7l99 -98l98 98c4.66699 4.66699 10 7 16 7c4.66699 0 8.66699 -2 12 -6s5 -8.33301 5 -13s-3.33301 -11 -10 -19l-101 -96
c-8 -6.66699 -14.667 -10 -20 -10c-7.33301 0 -14.333 3.33301 -21 10l-100 96c-6.66699 6.66699 -10 13 -10 19z" />
    <glyph glyph-name="ecaron" unicode="&#x11b;" horiz-adv-x="451" 
d="M48 179l-0.00195312 118.999c0 49.333 18 91.666 54 126.999s79.333 53 130 53c49.333 0 92 -17.333 128 -52s54 -77.667 54 -129c0 -18 -2.16699 -32.5 -6.5 -43.5s-11.166 -18.833 -20.499 -23.5s-17.833 -7.5 -25.5 -8.5s-18.5 -1.5 -32.5 -1.5h-232v-42
c0 -42 15 -75.667 45 -101s68.667 -38 116 -38c24 0 44.333 3.33301 61 10s29.334 13.334 38.001 20.001s15.334 10 20.001 10c6 0 11.333 -2.66699 16 -8s7 -10.666 7 -15.999c0 -12.667 -13.833 -26 -41.5 -40s-61.834 -21 -102.501 -21c-61.333 0 -111.333 17 -150 51
s-58 78.667 -58 134zM96.998 260.999l212.999 -0.000976562c22.667 0 37.667 2.33301 45 7s11 14.334 11 29.001c0 35.333 -12.667 67 -38 95s-57.333 42 -96 42c-37.333 0 -69.166 -13 -95.499 -39s-39.5 -57 -39.5 -93v-41zM99.9971 711.998c0 4.66699 1.66699 9 5 13
s7.33301 6 12 6c5.33301 0 10.333 -2.33301 15 -7l99 -98l98 98c4.66699 4.66699 10 7 16 7c4.66699 0 8.66699 -2 12 -6s5 -8.33301 5 -13s-3.33301 -11 -10 -19l-101 -96c-8 -6.66699 -14.667 -10 -20 -10c-7.33301 0 -14.333 3.33301 -21 10l-100 96
c-6.66699 6.66699 -10 13 -10 19z" />
    <glyph glyph-name="Gcircumflex" unicode="&#x11c;" horiz-adv-x="536" 
d="M72 204l-0.000976562 316.999c0 72.667 18.167 125.834 54.5 159.501s84.833 50.5 145.5 50.5c62 0 111.333 -15.833 148 -47.5s55 -72.167 55 -121.5c0 -17.333 -8.33301 -26 -25 -26c-16 0 -24.333 7 -25 21c-11.333 84 -62 126 -152 126
c-100.667 0 -151 -54 -151 -162v-317c0 -108 50.333 -162 151 -162c48.667 0 86.167 13.5 112.5 40.5s39.5 67.5 39.5 121.5v134h-148c-6 0 -10.833 2.33301 -14.5 7s-5.5 10 -5.5 16s1.83301 11.333 5.5 16s8.5 7 14.5 7h177c6 0 11 -2.33301 15 -7s6 -10 6 -16v-157
c0 -72.667 -18.5 -125.834 -55.5 -159.501s-85.833 -50.5 -146.5 -50.5c-61.333 0 -110.166 16.833 -146.499 50.5s-54.5 86.834 -54.5 159.501zM138.999 875.999c0 8 3.66699 13.667 11 17l104 56c5.33301 3.33301 11 5 17 5s11.667 -1.66699 17 -5l104 -55
c7.33301 -4 11 -10.667 11 -20c0 -5.33301 -1.83301 -10 -5.5 -14s-8.16699 -6 -13.5 -6l-9 3l-104 55l-104 -56c-0.666992 0 -2 -0.5 -4 -1.5s-3.33301 -1.5 -4 -1.5c-5.33301 0 -10 2.16699 -14 6.5s-6 9.83301 -6 16.5z" />
    <glyph glyph-name="gcircumflex" unicode="&#x11d;" horiz-adv-x="448" 
d="M28 -104c0 52 29.3301 88.665 87.9971 109.998c-38.667 12.667 -58 36 -58 70c0 30.667 16.333 54.334 49 71.001c-35.333 31.333 -53 73.333 -53 126v41c0 48 15.333 87.333 46 118s70.667 46 120 46c48.667 0 88 -15 118 -45c9.33301 18.667 20.833 33.667 34.5 45
s26.5 17 38.5 17c8.66699 0 15.167 -2.33301 19.5 -7s6.5 -10 6.5 -16c0 -12 -6 -18.667 -18 -20c-23.333 -1.33301 -42.666 -16.333 -57.999 -45c17.333 -23.333 26 -54.333 26 -93v-41c0 -48 -15.667 -87.667 -47 -119s-71.666 -47 -120.999 -47
c-30 0 -56.333 6.33301 -79 19c-24 -12 -36 -26.667 -36 -44s10.833 -29.833 32.5 -37.5s47.834 -12.667 78.501 -15s61.334 -6.16602 92.001 -11.499s56.834 -17.333 78.501 -36s32.5 -44.667 32.5 -78c0 -44 -17.333 -78.167 -52 -102.5s-81.334 -36.5 -140.001 -36.5
s-106.334 12 -143.001 36s-55 55.667 -55 95zM75.9971 -99.002c0 -28.667 13.333 -51.833 40 -69.5s63.334 -26.5 110.001 -26.5c45.333 0 80.5 8.66699 105.5 26s37.5 41 37.5 71c0 14.667 -3.5 27.167 -10.5 37.5s-15.5 18.5 -25.5 24.5s-22.833 11 -38.5 15
s-29.334 6.5 -41.001 7.5s-26.167 2.16699 -43.5 3.5l-36 4c-65.333 -19.333 -98 -50.333 -98 -93zM101.997 273.999c0 -36.667 10.667 -66.833 32 -90.5s50.333 -35.5 87 -35.5c36 0 64.667 11.667 86 35s32 53.333 32 90v41c0 36 -10.667 65.5 -32 88.5
s-50.333 34.5 -87 34.5s-65.5 -11.5 -86.5 -34.5s-31.5 -52.5 -31.5 -88.5v-40zM101.997 619c0 7.33301 3.66699 13 11 17l104 56c5.33301 3.33301 11 5 17 5s11.667 -1.66699 17 -5l104 -55c7.33301 -4 11 -10.667 11 -20c0 -5.33301 -1.83301 -10 -5.5 -14
s-8.16699 -6 -13.5 -6l-9 3l-104 55l-104 -56c-0.666992 0 -2 -0.5 -4 -1.5s-3.33301 -1.5 -4 -1.5c-5.33301 0 -10 2.16699 -14 6.5s-6 9.83301 -6 16.5z" />
    <glyph glyph-name="Gbreve" unicode="&#x11e;" horiz-adv-x="536" 
d="M72 204l-0.000976562 316.999c0 72.667 18.167 125.834 54.5 159.501s84.833 50.5 145.5 50.5c62 0 111.333 -15.833 148 -47.5s55 -72.167 55 -121.5c0 -17.333 -8.33301 -26 -25 -26c-16 0 -24.333 7 -25 21c-11.333 84 -62 126 -152 126
c-100.667 0 -151 -54 -151 -162v-317c0 -108 50.333 -162 151 -162c48.667 0 86.167 13.5 112.5 40.5s39.5 67.5 39.5 121.5v134h-148c-6 0 -10.833 2.33301 -14.5 7s-5.5 10 -5.5 16s1.83301 11.333 5.5 16s8.5 7 14.5 7h177c6 0 11 -2.33301 15 -7s6 -10 6 -16v-157
c0 -72.667 -18.5 -125.834 -55.5 -159.501s-85.833 -50.5 -146.5 -50.5c-61.333 0 -110.166 16.833 -146.499 50.5s-54.5 86.834 -54.5 159.501zM159.999 968.999h37.999c0 -22.667 7.33301 -42 22 -58s32.334 -24 53.001 -24c20 0 37.333 8 52 24s22 35.333 22 58h38
c0 -30 -11.333 -56.333 -34 -79s-48.667 -34 -78 -34c-30 0 -56.333 11.167 -79 33.5s-34 48.833 -34 79.5z" />
    <glyph glyph-name="gbreve" unicode="&#x11f;" horiz-adv-x="448" 
d="M28 -104c0 52 29.3301 88.665 87.9971 109.998c-38.667 12.667 -58 36 -58 70c0 30.667 16.333 54.334 49 71.001c-35.333 31.333 -53 73.333 -53 126v41c0 48 15.333 87.333 46 118s70.667 46 120 46c48.667 0 88 -15 118 -45c9.33301 18.667 20.833 33.667 34.5 45
s26.5 17 38.5 17c8.66699 0 15.167 -2.33301 19.5 -7s6.5 -10 6.5 -16c0 -12 -6 -18.667 -18 -20c-23.333 -1.33301 -42.666 -16.333 -57.999 -45c17.333 -23.333 26 -54.333 26 -93v-41c0 -48 -15.667 -87.667 -47 -119s-71.666 -47 -120.999 -47
c-30 0 -56.333 6.33301 -79 19c-24 -12 -36 -26.667 -36 -44s10.833 -29.833 32.5 -37.5s47.834 -12.667 78.501 -15s61.334 -6.16602 92.001 -11.499s56.834 -17.333 78.501 -36s32.5 -44.667 32.5 -78c0 -44 -17.333 -78.167 -52 -102.5s-81.334 -36.5 -140.001 -36.5
s-106.334 12 -143.001 36s-55 55.667 -55 95zM75.9971 -99.002c0 -28.667 13.333 -51.833 40 -69.5s63.334 -26.5 110.001 -26.5c45.333 0 80.5 8.66699 105.5 26s37.5 41 37.5 71c0 14.667 -3.5 27.167 -10.5 37.5s-15.5 18.5 -25.5 24.5s-22.833 11 -38.5 15
s-29.334 6.5 -41.001 7.5s-26.167 2.16699 -43.5 3.5l-36 4c-65.333 -19.333 -98 -50.333 -98 -93zM101.997 273.999c0 -36.667 10.667 -66.833 32 -90.5s50.333 -35.5 87 -35.5c36 0 64.667 11.667 86 35s32 53.333 32 90v41c0 36 -10.667 65.5 -32 88.5
s-50.333 34.5 -87 34.5s-65.5 -11.5 -86.5 -34.5s-31.5 -52.5 -31.5 -88.5v-40zM120.997 712h37.999c0 -22.667 7.33301 -42 22 -58s32.334 -24 53.001 -24c20 0 37.333 8 52 24s22 35.333 22 58h38c0 -30 -11.333 -56.333 -34 -79s-48.667 -34 -78 -34
c-30 0 -56.333 11.167 -79 33.5s-34 48.833 -34 79.5z" />
    <glyph glyph-name="Gdotaccent" unicode="&#x120;" horiz-adv-x="536" 
d="M72 204l-0.000976562 316.999c0 72.667 18.167 125.834 54.5 159.501s84.833 50.5 145.5 50.5c62 0 111.333 -15.833 148 -47.5s55 -72.167 55 -121.5c0 -17.333 -8.33301 -26 -25 -26c-16 0 -24.333 7 -25 21c-11.333 84 -62 126 -152 126
c-100.667 0 -151 -54 -151 -162v-317c0 -108 50.333 -162 151 -162c48.667 0 86.167 13.5 112.5 40.5s39.5 67.5 39.5 121.5v134h-148c-6 0 -10.833 2.33301 -14.5 7s-5.5 10 -5.5 16s1.83301 11.333 5.5 16s8.5 7 14.5 7h177c6 0 11 -2.33301 15 -7s6 -10 6 -16v-157
c0 -72.667 -18.5 -125.834 -55.5 -159.501s-85.833 -50.5 -146.5 -50.5c-61.333 0 -110.166 16.833 -146.499 50.5s-54.5 86.834 -54.5 159.501zM239.999 886.999c0 9.33301 3.16699 17 9.5 23s14.166 9 23.499 9s17.166 -3 23.499 -9s9.5 -13.667 9.5 -23
s-3.16699 -17.166 -9.5 -23.499s-14.166 -9.5 -23.499 -9.5s-17.166 3.16699 -23.499 9.5s-9.5 14.166 -9.5 23.499z" />
    <glyph glyph-name="gdotaccent" unicode="&#x121;" horiz-adv-x="448" 
d="M28 -104c0 52 29.3301 88.665 87.9971 109.998c-38.667 12.667 -58 36 -58 70c0 30.667 16.333 54.334 49 71.001c-35.333 31.333 -53 73.333 -53 126v41c0 48 15.333 87.333 46 118s70.667 46 120 46c48.667 0 88 -15 118 -45c9.33301 18.667 20.833 33.667 34.5 45
s26.5 17 38.5 17c8.66699 0 15.167 -2.33301 19.5 -7s6.5 -10 6.5 -16c0 -12 -6 -18.667 -18 -20c-23.333 -1.33301 -42.666 -16.333 -57.999 -45c17.333 -23.333 26 -54.333 26 -93v-41c0 -48 -15.667 -87.667 -47 -119s-71.666 -47 -120.999 -47
c-30 0 -56.333 6.33301 -79 19c-24 -12 -36 -26.667 -36 -44s10.833 -29.833 32.5 -37.5s47.834 -12.667 78.501 -15s61.334 -6.16602 92.001 -11.499s56.834 -17.333 78.501 -36s32.5 -44.667 32.5 -78c0 -44 -17.333 -78.167 -52 -102.5s-81.334 -36.5 -140.001 -36.5
s-106.334 12 -143.001 36s-55 55.667 -55 95zM75.9971 -99.002c0 -28.667 13.333 -51.833 40 -69.5s63.334 -26.5 110.001 -26.5c45.333 0 80.5 8.66699 105.5 26s37.5 41 37.5 71c0 14.667 -3.5 27.167 -10.5 37.5s-15.5 18.5 -25.5 24.5s-22.833 11 -38.5 15
s-29.334 6.5 -41.001 7.5s-26.167 2.16699 -43.5 3.5l-36 4c-65.333 -19.333 -98 -50.333 -98 -93zM101.997 273.999c0 -36.667 10.667 -66.833 32 -90.5s50.333 -35.5 87 -35.5c36 0 64.667 11.667 86 35s32 53.333 32 90v41c0 36 -10.667 65.5 -32 88.5
s-50.333 34.5 -87 34.5s-65.5 -11.5 -86.5 -34.5s-31.5 -52.5 -31.5 -88.5v-40zM199.997 630c0 9.33301 3.16699 17 9.5 23s14.166 9 23.499 9s17.166 -3 23.499 -9s9.5 -13.667 9.5 -23s-3.16699 -17.166 -9.5 -23.499s-14.166 -9.5 -23.499 -9.5
s-17.166 3.16699 -23.499 9.5s-9.5 14.166 -9.5 23.499z" />
    <glyph glyph-name="Gcommaaccent" unicode="&#x122;" horiz-adv-x="536" 
d="M72 204l-0.000976562 316.999c0 72.667 18.167 125.834 54.5 159.501s84.833 50.5 145.5 50.5c62 0 111.333 -15.833 148 -47.5s55 -72.167 55 -121.5c0 -17.333 -8.33301 -26 -25 -26c-16 0 -24.333 7 -25 21c-11.333 84 -62 126 -152 126
c-100.667 0 -151 -54 -151 -162v-317c0 -108 50.333 -162 151 -162c48.667 0 86.167 13.5 112.5 40.5s39.5 67.5 39.5 121.5v134h-148c-6 0 -10.833 2.33301 -14.5 7s-5.5 10 -5.5 16s1.83301 11.333 5.5 16s8.5 7 14.5 7h177c6 0 11 -2.33301 15 -7s6 -10 6 -16v-157
c0 -72.667 -18.5 -125.834 -55.5 -159.501s-85.833 -50.5 -146.5 -50.5c-61.333 0 -110.166 16.833 -146.499 50.5s-54.5 86.834 -54.5 159.501zM197.999 -126.001c0 7.33301 3.33301 12.334 10 15.001l106 61c4 1.33301 6.66699 2 8 2c6 0 10.833 -2.33301 14.5 -7
s5.5 -10 5.5 -16c0 -8.66699 -4 -15.334 -12 -20.001l-100 -55c-2.66699 -2 -5.66699 -3 -9 -3c-6 0 -11.333 2.33301 -16 7s-7 10 -7 16z" />
    <glyph glyph-name="gcommaaccent" unicode="&#x123;" horiz-adv-x="448" 
d="M28 -104c0 52 29.3301 88.665 87.9971 109.998c-38.667 12.667 -58 36 -58 70c0 30.667 16.333 54.334 49 71.001c-35.333 31.333 -53 73.333 -53 126v41c0 48 15.333 87.333 46 118s70.667 46 120 46c48.667 0 88 -15 118 -45c9.33301 18.667 20.833 33.667 34.5 45
s26.5 17 38.5 17c8.66699 0 15.167 -2.33301 19.5 -7s6.5 -10 6.5 -16c0 -12 -6 -18.667 -18 -20c-23.333 -1.33301 -42.666 -16.333 -57.999 -45c17.333 -23.333 26 -54.333 26 -93v-41c0 -48 -15.667 -87.667 -47 -119s-71.666 -47 -120.999 -47
c-30 0 -56.333 6.33301 -79 19c-24 -12 -36 -26.667 -36 -44s10.833 -29.833 32.5 -37.5s47.834 -12.667 78.501 -15s61.334 -6.16602 92.001 -11.499s56.834 -17.333 78.501 -36s32.5 -44.667 32.5 -78c0 -44 -17.333 -78.167 -52 -102.5s-81.334 -36.5 -140.001 -36.5
s-106.334 12 -143.001 36s-55 55.667 -55 95zM75.9971 -99.002c0 -28.667 13.333 -51.833 40 -69.5s63.334 -26.5 110.001 -26.5c45.333 0 80.5 8.66699 105.5 26s37.5 41 37.5 71c0 14.667 -3.5 27.167 -10.5 37.5s-15.5 18.5 -25.5 24.5s-22.833 11 -38.5 15
s-29.334 6.5 -41.001 7.5s-26.167 2.16699 -43.5 3.5l-36 4c-65.333 -19.333 -98 -50.333 -98 -93zM101.997 273.999c0 -36.667 10.667 -66.833 32 -90.5s50.333 -35.5 87 -35.5c36 0 64.667 11.667 86 35s32 53.333 32 90v41c0 36 -10.667 65.5 -32 88.5
s-50.333 34.5 -87 34.5s-65.5 -11.5 -86.5 -34.5s-31.5 -52.5 -31.5 -88.5v-40zM153.997 619c0 7.33301 2.99902 12.334 8.99902 15.001l107 61c2.66699 1.33301 5.33398 2 8.00098 2c6 0 10.667 -2.33301 14 -7s5 -10 5 -16c0 -8.66699 -3.66699 -15.334 -11 -20.001
l-100 -55c-2.66699 -2 -6 -3 -10 -3c-6 0 -11.167 2.33301 -15.5 7s-6.5 10 -6.5 16zM183.996 885.001c0 17.333 12.334 51.999 37.001 103.999c3.33301 7.33301 8.66602 11 15.999 11c4.66699 0 9.16699 -1.66699 13.5 -5s6.5 -7.66602 6.5 -12.999
c0 -2 -0.666992 -4.33301 -2 -7l-19 -51c19.333 -6 29 -19 29 -39c0 -11.333 -3.83301 -21 -11.5 -29s-17.5 -12 -29.5 -12c-10.667 0 -20 4 -28 12s-12 17.667 -12 29z" />
    <glyph glyph-name="Hcircumflex" unicode="&#x124;" horiz-adv-x="563" 
d="M79 22v688c0 14 8.33301 21 25 21s25 -7 25 -21v-308h305v308c0 14 8.33301 21 25 21s25 -7 25 -21v-688c0 -14.667 -8.33301 -22 -25 -22s-25 7.33301 -25 22v334h-305v-334c0 -14.667 -8.33301 -22 -25 -22s-25 7.33301 -25 22zM150 876c0 8 3.66699 13.667 11 17
l104 56c5.33301 3.33301 11 5 17 5s11.667 -1.66699 17 -5l104 -55c7.33301 -4 11 -10.667 11 -20c0 -5.33301 -1.83301 -10 -5.5 -14s-8.16699 -6 -13.5 -6l-9 3l-104 55l-104 -56c-0.666992 0 -2 -0.5 -4 -1.5s-3.33301 -1.5 -4 -1.5c-5.33301 0 -10 2.16699 -14 6.5
s-6 9.83301 -6 16.5z" />
    <glyph glyph-name="hcircumflex" unicode="&#x125;" 
d="M-41 874c0 8 3.66699 13.667 11 17l104 56c5.33301 3.33301 11 5 17 5s11.667 -1.66699 17 -5l104 -55c7.33301 -4 11 -10.667 11 -20c0 -5.33301 -1.83301 -10 -5.5 -14s-8.16699 -6 -13.5 -6l-9 3l-104 55l-104 -56c-0.666992 0 -2 -0.5 -4 -1.5s-3.33301 -1.5 -4 -1.5
c-5.33301 0 -10 2.16699 -14 6.5s-6 9.83301 -6 16.5zM66 22v723c0 6 2.33301 11 7 15s10.334 6 17.001 6c7.33301 0 13.333 -2 18 -6s7 -9 7 -15v-343c11.333 21.333 28.5 39.333 51.5 54s50.167 22 81.5 22c48.667 0 90.667 -18 126 -54s53 -79 53 -129v-273
c0 -14.667 -8.33301 -22 -25 -22c-16 -0 -24 7.33301 -24 22v273c0 35.333 -13.333 67 -40 95s-58 42 -94 42c-34 0 -64 -12.5 -90 -37.5s-39 -58.167 -39 -99.5v-273c0 -5.33301 -2.5 -10.333 -7.5 -15s-10.833 -7 -17.5 -7s-12.334 2.16699 -17.001 6.5s-7 9.5 -7 15.5z
" />
    <glyph glyph-name="Hbar" unicode="&#x126;" horiz-adv-x="565" 
d="M20 562c0 6 1.83301 11.167 5.5 15.5s8.5 6.5 14.5 6.5h40v126c0 14 8.33301 21 25 21s25 -7 25 -21v-126h305v126c0 14 8.33301 21 25 21s25 -7 25 -21v-126h39c5.33301 0 10 -2.16699 14 -6.5s6 -9.5 6 -15.5c0 -5.33301 -2 -10 -6 -14s-8.66699 -6 -14 -6h-39v-520
c0 -14.667 -8.33301 -22 -25 -22s-25 7.33301 -25 22v334h-305v-334c0 -14.667 -8.33301 -22 -25 -22s-25 7.33301 -25 22v520h-40c-6 0 -10.833 2 -14.5 6s-5.5 8.66699 -5.5 14zM130 402h305v140h-305v-140z" />
    <glyph glyph-name="hbar" unicode="&#x127;" 
d="M14 607c0 14.667 7 22 21 22h31v116c0 6 2.33301 11 7 15s10.334 6 17.001 6c7.33301 0 13.333 -2 18 -6s7 -9 7 -15v-116h137c5.33301 0 10.333 -2.16699 15 -6.5s7 -9.5 7 -15.5s-2.16699 -10.833 -6.5 -14.5s-9.5 -5.5 -15.5 -5.5h-137v-185
c11.333 21.333 28.5 39.333 51.5 54s50.167 22 81.5 22c48.667 0 90.667 -18 126 -54s53 -79 53 -129v-273c0 -14.667 -8.33301 -22 -25 -22c-16 -0 -24 7.33301 -24 22v273c0 35.333 -13.333 67 -40 95s-58 42 -94 42c-34 0 -64 -12.5 -90 -37.5s-39 -58.167 -39 -99.5
v-273c0 -5.33301 -2.5 -10.333 -7.5 -15s-10.833 -7 -17.5 -7s-12.334 2.16699 -17.001 6.5s-7 9.5 -7 15.5v565h-31c-14 0 -21 6.66699 -21 20z" />
    <glyph glyph-name="Itilde" unicode="&#x128;" horiz-adv-x="208" 
d="M-46 895c0 14.667 10.167 27.333 30.5 38s39.833 16 58.5 16c16.667 0 38 -6 64 -18s47.667 -18 65 -18s32 5.16699 44 15.5s19.667 15.5 23 15.5c4.66699 0 8.66699 -2 12 -6s5 -8.33301 5 -13c0 -16 -9.5 -29 -28.5 -39s-37.5 -15 -55.5 -15c-16.667 0 -38 6 -64 18
s-48.333 18 -67 18c-16.667 0 -32 -5.5 -46 -16.5s-22.333 -16.5 -25 -16.5c-10.667 0 -16 7 -16 21zM79 21.999v688c0 14 8.33301 21 25 21s25 -7 25 -21v-688c0 -14.667 -8.33301 -22 -25 -22s-25 7.33301 -25 22z" />
    <glyph glyph-name="itilde" unicode="&#x129;" horiz-adv-x="181" 
d="M-62 638c0 14.667 10.167 27.333 30.5 38s39.833 16 58.5 16c16.667 0 38 -6 64 -18s47.667 -18 65 -18s32 5.16699 44 15.5s19.667 15.5 23 15.5c4.66699 0 8.66699 -2 12 -6s5 -8.33301 5 -13c0 -16 -9.5 -29 -28.5 -39s-37.5 -15 -55.5 -15c-16.667 0 -38 6 -64 18
s-48.333 18 -67 18c-16.667 0 -32 -5.5 -46 -16.5s-22.333 -16.5 -25 -16.5c-10.667 0 -16 7 -16 21zM66 21.999l0.000976562 430c0 13.333 8 20 24 20c16.667 0 25 -6.66699 25 -20v-430c0 -5.33301 -2.5 -10.333 -7.5 -15s-10.833 -7 -17.5 -7
s-12.334 2.16699 -17.001 6.5s-7 9.5 -7 15.5z" />
    <glyph glyph-name="Imacron" unicode="&#x12a;" horiz-adv-x="208" 
d="M-25 919c0 14.667 7 22 21 22h217c5.33301 0 10.333 -2.16699 15 -6.5s7 -9.5 7 -15.5s-2.16699 -10.833 -6.5 -14.5s-9.5 -5.5 -15.5 -5.5h-217c-14 0 -21 6.66699 -21 20zM79 22v688c0 14 8.33301 21 25 21s25 -7 25 -21v-688c0 -14.667 -8.33301 -22 -25 -22
s-25 7.33301 -25 22z" />
    <glyph glyph-name="imacron" unicode="&#x12b;" horiz-adv-x="181" 
d="M-40 662c0 14.667 7 22 21 22h217c5.33301 0 10.333 -2.16699 15 -6.5s7 -9.5 7 -15.5s-2.16699 -10.833 -6.5 -14.5s-9.5 -5.5 -15.5 -5.5h-217c-14 0 -21 6.66699 -21 20zM66 22l0.000976562 430c0 13.333 8 20 24 20c16.667 0 25 -6.66699 25 -20v-430
c0 -5.33301 -2.5 -10.333 -7.5 -15s-10.833 -7 -17.5 -7s-12.334 2.16699 -17.001 6.5s-7 9.5 -7 15.5z" />
    <glyph glyph-name="Ibreve" unicode="&#x12c;" horiz-adv-x="208" 
d="M-8 969h37.999c0 -22.667 7.33301 -42 22 -58s32.334 -24 53.001 -24c20 0 37.333 8 52 24s22 35.333 22 58h38c0 -30 -11.333 -56.333 -34 -79s-48.667 -34 -78 -34c-30 0 -56.333 11.167 -79 33.5s-34 48.833 -34 79.5zM78.999 22v688c0 14 8.33301 21 25 21
s25 -7 25 -21v-688c0 -14.667 -8.33301 -22 -25 -22s-25 7.33301 -25 22z" />
    <glyph glyph-name="ibreve" unicode="&#x12d;" horiz-adv-x="181" 
d="M-22 712h37.999c0 -22.667 7.33301 -42 22 -58s32.334 -24 53.001 -24c20 0 37.333 8 52 24s22 35.333 22 58h38c0 -30 -11.333 -56.333 -34 -79s-48.667 -34 -78 -34c-30 0 -56.333 11.167 -79 33.5s-34 48.833 -34 79.5zM65.999 22l0.000976562 430
c0 13.333 8 20 24 20c16.667 0 25 -6.66699 25 -20v-430c0 -5.33301 -2.5 -10.333 -7.5 -15s-10.833 -7 -17.5 -7s-12.334 2.16699 -17.001 6.5s-7 9.5 -7 15.5z" />
    <glyph glyph-name="Iogonek" unicode="&#x12e;" horiz-adv-x="209" 
d="M16 -123c0 48 22 92.999 66 134.999c-1.33301 2 -2 5.33301 -2 10v688c0 14 8.33301 21 25 21s25 -7 25 -21v-688c0 -9.33301 -4 -15.666 -12 -18.999c-45.333 -42 -68 -83 -68 -123c0 -28.667 21 -43 63 -43c12 0 18 -5.33301 18 -16c0 -10 -8 -15 -24 -15
c-24.667 0 -46 5.66699 -64 17s-27 29.333 -27 54z" />
    <glyph glyph-name="iogonek" unicode="&#x12f;" horiz-adv-x="182" 
d="M-2 -125c0 49.333 23.333 95.667 70 139c-0.666992 2 -1 4.66699 -1 8v430c0 13.333 8 20 24 20c16.667 0 25 -6.66699 25 -20v-430c0 -8 -4.66699 -14.333 -14 -19c-46.667 -43.333 -70 -85 -70 -125c0 -28.667 21 -43 63 -43c12 0 18 -5.33301 18 -16
c0 -10 -8 -15 -24 -15c-24.667 0 -46 5.66699 -64 17s-27 29.333 -27 54zM53 658.001c0 9.33301 3.66699 17.5 11 24.5s16.333 10.5 27 10.5c10 0 18.667 -3.5 26 -10.5s11 -15.167 11 -24.5c0 -10 -3.66699 -18.667 -11 -26s-16 -11 -26 -11
c-10.667 0 -19.667 3.66699 -27 11s-11 16 -11 26z" />
    <glyph glyph-name="Idotaccent" unicode="&#x130;" horiz-adv-x="208" 
d="M71 887c0 9.33301 3.16699 17 9.5 23s14.166 9 23.499 9s17.166 -3 23.499 -9s9.5 -13.667 9.5 -23s-3.16699 -17.166 -9.5 -23.499s-14.166 -9.5 -23.499 -9.5s-17.166 3.16699 -23.499 9.5s-9.5 14.166 -9.5 23.499zM79 22v688c0 14 8.33301 21 25 21s25 -7 25 -21
v-688c0 -14.667 -8.33301 -22 -25 -22s-25 7.33301 -25 22z" />
    <glyph glyph-name="dotlessi" unicode="&#x131;" horiz-adv-x="181" 
d="M66 22l0.000976562 430c0 13.333 8 20 24 20c16.667 0 25 -6.66699 25 -20v-430c0 -5.33301 -2.5 -10.333 -7.5 -15s-10.833 -7 -17.5 -7s-12.334 2.16699 -17.001 6.5s-7 9.5 -7 15.5z" />
    <glyph glyph-name="IJ" unicode="&#x132;" horiz-adv-x="708" 
d="M79 22v688c0 14 8.33301 21 25 21s25 -7 25 -21v-688c0 -14.667 -8.33301 -22 -25 -22s-25 7.33301 -25 22zM229 164c0 17.333 8.33301 26.001 25 26.001s25 -7 25 -21c0.666992 -40.667 15 -72 43 -94s64.333 -33 109 -33c100.667 0 151 54 151 162v479h-150
c-14 0 -21 8.33301 -21 25c0 15.333 7 23 21 23h176c16 0 24 -7.33301 24 -22v-505c0 -72.667 -18.167 -125.834 -54.5 -159.501s-84.833 -50.5 -145.5 -50.5c-61.333 0 -110.5 16 -147.5 48s-55.5 72.667 -55.5 122z" />
    <glyph glyph-name="ij" unicode="&#x133;" horiz-adv-x="359" 
d="M52 658c0 9.33301 3.66699 17.5 11 24.5s16.333 10.5 27 10.5c10 0 18.667 -3.5 26 -10.5s11 -15.167 11 -24.5c0 -10 -3.66699 -18.667 -11 -26s-16 -11 -26 -11c-10.667 0 -19.667 3.66699 -27 11s-11 16 -11 26zM66 22l0.000976562 430c0 13.333 8 20 24 20
c16.667 0 25 -6.66699 25 -20v-430c0 -5.33301 -2.5 -10.333 -7.5 -15s-10.833 -7 -17.5 -7s-12.334 2.16699 -17.001 6.5s-7 9.5 -7 15.5zM141.001 -211c0 6.66699 2.16699 11.999 6.5 15.999s9.83301 6 16.5 6c32 0 53.333 12 64 36s16 59.667 16 107v498
c0 13.333 8 20 24 20c16.667 0 25 -6.66699 25 -20v-498c0 -126 -42.333 -189 -127 -189c-7.33301 0 -13.333 2.33301 -18 7s-7 10.334 -7 17.001zM230.001 657.999c0 9.33301 3.66699 17.5 11 24.5s16.333 10.5 27 10.5c10 0 18.667 -3.5 26 -10.5s11 -15.167 11 -24.5
c0 -10 -3.66699 -18.667 -11 -26s-16 -11 -26 -11c-10.667 0 -19.667 3.66699 -27 11s-11 16 -11 26z" />
    <glyph glyph-name="Jcircumflex" unicode="&#x134;" horiz-adv-x="503" 
d="M24 164c0 17.333 8.33301 26.001 25 26.001s25 -7 25 -21c0.666992 -40.667 15 -72 43 -94s64.333 -33 109 -33c100.667 0 151 54 151 162v479h-150c-14 0 -21 8.33301 -21 25c0 15.333 7 23 21 23h176c16 0 24 -7.33301 24 -22v-505
c0 -72.667 -18.167 -125.834 -54.5 -159.501s-84.833 -50.5 -145.5 -50.5c-61.333 0 -110.5 16 -147.5 48s-55.5 72.667 -55.5 122zM120 876.001c0 8 3.66699 13.667 11 17l104 56c5.33301 3.33301 11 5 17 5s11.667 -1.66699 17 -5l104 -55c7.33301 -4 11 -10.667 11 -20
c0 -5.33301 -1.83301 -10 -5.5 -14s-8.16699 -6 -13.5 -6l-9 3l-104 55l-104 -56c-0.666992 0 -2 -0.5 -4 -1.5s-3.33301 -1.5 -4 -1.5c-5.33301 0 -10 2.16699 -14 6.5s-6 9.83301 -6 16.5z" />
    <glyph glyph-name="jcircumflex" unicode="&#x135;" horiz-adv-x="181" 
d="M-41 619c0 7.33301 3.66699 13 11 17l104 56c5.33301 3.33301 11 5 17 5s11.667 -1.66699 17 -5l104 -55c7.33301 -4 11 -10.667 11 -20c0 -5.33301 -1.83301 -10 -5.5 -14s-8.16699 -6 -13.5 -6l-9 3l-104 55l-104 -56c-0.666992 0 -2 -0.5 -4 -1.5
s-3.33301 -1.5 -4 -1.5c-5.33301 0 -10 2.16699 -14 6.5s-6 9.83301 -6 16.5zM-37 -211c0 6.66699 2.16699 11.999 6.5 15.999s9.83301 6 16.5 6c32 0 53.333 12 64 36s16 59.667 16 107v498c0 13.333 8 20 24 20c16.667 0 25 -6.66699 25 -20v-498
c0 -126 -42.333 -189 -127 -189c-7.33301 0 -13.333 2.33301 -18 7s-7 10.334 -7 17.001z" />
    <glyph glyph-name="Kcommaaccent" unicode="&#x136;" horiz-adv-x="514" 
d="M79 22l-0.000976562 688.001c0 14 8.33301 21 25 21s25 -7 25 -21v-374l307 387c3.33301 5.33301 9 8 17 8c6.66699 0 12.834 -2.66699 18.501 -8s8.5 -11.333 8.5 -18c0 -5.33301 -1.66699 -9.33301 -5 -12l-223 -278l252 -380c2.66699 -2.66699 4 -6.33398 4 -11.001
c0 -6.66699 -2.83301 -12.5 -8.5 -17.5s-12.167 -7.5 -19.5 -7.5c-8 0 -14.333 4 -19 12l-242 362l-90 -112v-239c0 -14.667 -8.33301 -22 -25 -22s-25 7.33301 -25 22zM184.999 -125.999c0 7.33301 3.33301 12.334 10 15.001l106 61c4 1.33301 6.66699 2 8 2
c6 0 10.833 -2.33301 14.5 -7s5.5 -10 5.5 -16c0 -8.66699 -4 -15.334 -12 -20.001l-100 -55c-3.33301 -2 -6.33301 -3 -9 -3c-6 0 -11.333 2.33301 -16 7s-7 10 -7 16z" />
    <glyph glyph-name="kcommaaccent" unicode="&#x137;" horiz-adv-x="445" 
d="M66 22l0.000976562 723c0 6 2.33301 11 7 15s10.334 6 17.001 6c7.33301 0 13.333 -2 18 -6s7 -9 7 -15v-503l258 226c3.33301 3.33301 7.33301 5 12 5c6.66699 0 12.667 -2 18 -6s8 -9.66699 8 -17c0 -6.66699 -2.33301 -12 -7 -16l-155 -135l180 -264
c2 -3.33301 3 -7 3 -11c0 -6 -2.5 -11.667 -7.5 -17s-10.833 -8 -17.5 -8s-12.334 3.33301 -17.001 10l-176 258l-99 -86v-159c0 -5.33301 -2.5 -10.333 -7.5 -15s-10.833 -7 -17.5 -7s-12.334 2.16699 -17.001 6.5s-7 9.5 -7 15.5zM151.001 -126
c0 7.33301 3.33301 12.334 10 15.001l106 61c4 1.33301 6.66699 2 8 2c6 0 10.833 -2.33301 14.5 -7s5.5 -10 5.5 -16c0 -8.66699 -4 -15.334 -12 -20.001l-100 -55c-3.33301 -2 -6.33301 -3 -9 -3c-6 0 -11.333 2.33301 -16 7s-7 10 -7 16z" />
    <glyph glyph-name="kgreenlandic" unicode="&#x138;" horiz-adv-x="445" 
d="M66 22l0.00195312 430c0 13.333 8 20 24 20c16.667 0 25 -6.66699 25 -20v-210l258 226c3.33301 3.33301 7.33301 5 12 5c6.66699 0 12.667 -2 18 -6s8 -9.66699 8 -17c0 -6.66699 -2.33301 -12 -7 -16l-155 -135l180 -264c2 -3.33301 3 -7 3 -11
c0 -6 -2.5 -11.667 -7.5 -17s-10.833 -8 -17.5 -8s-12.334 3.33301 -17.001 10l-176 258l-99 -86v-159c0 -5.33301 -2.5 -10.333 -7.5 -15s-10.833 -7 -17.5 -7s-12.334 2.16699 -17.001 6.5s-7 9.5 -7 15.5z" />
    <glyph glyph-name="Lacute" unicode="&#x139;" horiz-adv-x="457" 
d="M79 22v688c0 14 8.33301 21 25 21s25 -7 25 -21v-662h295c12.667 0 19 -8 19 -24s-6.33301 -24 -19 -24h-321c-16 -0 -24 7.33301 -24 22zM188 876c0 7.33301 2.99902 12.334 8.99902 15.001l107 61c2.66699 1.33301 5.33398 2 8.00098 2c6 0 10.667 -2.33301 14 -7
s5 -10 5 -16c0 -8.66699 -3.66699 -15.334 -11 -20.001l-100 -55c-2.66699 -2 -6 -3 -10 -3c-6 0 -11.167 2.33301 -15.5 7s-6.5 10 -6.5 16z" />
    <glyph glyph-name="lacute" unicode="&#x13a;" horiz-adv-x="197" 
d="M30 831c0 7.33301 2.99902 12.334 8.99902 15.001l107 61c2.66699 1.33301 5.33398 2 8.00098 2c6 0 10.667 -2.33301 14 -7s5 -10 5 -16c0 -8.66699 -3.66699 -15.334 -11 -20.001l-100 -55c-2.66699 -2 -6 -3 -10 -3c-6 0 -11.167 2.33301 -15.5 7s-6.5 10 -6.5 16z
M73.999 22.001v723c0 6 2.33301 11 7 15s10.334 6 17.001 6c7.33301 0 13.333 -2 18 -6s7 -9 7 -15v-723c0 -5.33301 -2.5 -10.333 -7.5 -15s-10.833 -7 -17.5 -7s-12.334 2.16699 -17.001 6.5s-7 9.5 -7 15.5z" />
    <glyph glyph-name="Lcommaaccent" unicode="&#x13b;" horiz-adv-x="457" 
d="M79 22v688c0 14 8.33301 21 25 21s25 -7 25 -21v-662h295c12.667 0 19 -8 19 -24s-6.33301 -24 -19 -24h-321c-16 -0 -24 7.33301 -24 22zM181 -126c0 7.33301 3.33301 12.334 10 15.001l106 61c4 1.33301 6.66699 2 8 2c6 0 10.833 -2.33301 14.5 -7s5.5 -10 5.5 -16
c0 -8.66699 -4 -15.334 -12 -20.001l-100 -55c-3.33301 -2 -6.33301 -3 -9 -3c-6 0 -11.333 2.33301 -16 7s-7 10 -7 16z" />
    <glyph glyph-name="lcommaaccent" unicode="&#x13c;" horiz-adv-x="197" 
d="M29 -126c0 7.33301 3.33301 12.334 10 15.001l106 61c4 1.33301 6.66699 2 8 2c6 0 10.833 -2.33301 14.5 -7s5.5 -10 5.5 -16c0 -8.66699 -4 -15.334 -12 -20.001l-100 -55c-3.33301 -2 -6.33301 -3 -9 -3c-6 0 -11.333 2.33301 -16 7s-7 10 -7 16zM74 22.001v723
c0 6 2.33301 11 7 15s10.334 6 17.001 6c7.33301 0 13.333 -2 18 -6s7 -9 7 -15v-723c0 -5.33301 -2.5 -10.333 -7.5 -15s-10.833 -7 -17.5 -7s-12.334 2.16699 -17.001 6.5s-7 9.5 -7 15.5z" />
    <glyph glyph-name="Lcaron" unicode="&#x13d;" horiz-adv-x="457" 
d="M79 22v688c0 14 8.33301 21 25 21s25 -7 25 -21v-662h295c12.667 0 19 -8 19 -24s-6.33301 -24 -19 -24h-321c-16 -0 -24 7.33301 -24 22zM291 700c0 11.333 3.83203 21.002 11.499 29.002s17.5 12 29.5 12c10.667 0 20 -4 28 -12s12 -17.667 12 -29
c0 -17.333 -12.333 -52 -37 -104c-3.33301 -7.33301 -8.66602 -11 -15.999 -11c-4.66699 0 -9.16699 1.66699 -13.5 5s-6.5 7.66602 -6.5 12.999c0 3.33301 0.666992 5.66602 2 6.99902l19 51c-19.333 6.66699 -29 19.667 -29 39z" />
    <glyph glyph-name="lcaron" unicode="&#x13e;" horiz-adv-x="197" 
d="M74 22v723c0 6 2.33301 11 7 15s10.334 6 17.001 6c7.33301 0 13.333 -2 18 -6s7 -9 7 -15v-723c0 -5.33301 -2.5 -10.333 -7.5 -15s-10.833 -7 -17.5 -7s-12.334 2.16699 -17.001 6.5s-7 9.5 -7 15.5zM190 700c0 11.333 3.83203 21.002 11.499 29.002s17.5 12 29.5 12
c10.667 0 20 -4 28 -12s12 -17.667 12 -29c0 -17.333 -12.333 -52 -37 -104c-3.33301 -7.33301 -8.66602 -11 -15.999 -11c-4.66699 0 -9.16699 1.66699 -13.5 5s-6.5 7.66602 -6.5 12.999c0 3.33301 0.666992 5.66602 2 6.99902l19 51c-19.333 6.66699 -29 19.667 -29 39z
" />
    <glyph glyph-name="Ldot" unicode="&#x13f;" horiz-adv-x="457" 
d="M79 22v688c0 14 8.33301 21 25 21s25 -7 25 -21v-662h295c12.667 0 19 -8 19 -24s-6.33301 -24 -19 -24h-321c-16 -0 -24 7.33301 -24 22zM288 421c0 11.333 3.83301 20.833 11.5 28.5s17.5 11.5 29.5 11.5c11.333 0 20.833 -3.83301 28.5 -11.5s11.5 -17.167 11.5 -28.5
c0 -10.667 -4 -20 -12 -28s-17.333 -12 -28 -12c-12 0 -21.833 4 -29.5 12s-11.5 17.333 -11.5 28z" />
    <glyph glyph-name="ldot" unicode="&#x140;" horiz-adv-x="299" 
d="M74 22v723c0 6 2.33301 11 7 15s10.334 6 17.001 6c7.33301 0 13.333 -2 18 -6s7 -9 7 -15v-723c0 -5.33301 -2.5 -10.333 -7.5 -15s-10.833 -7 -17.5 -7s-12.334 2.16699 -17.001 6.5s-7 9.5 -7 15.5zM206 300c0 11.333 3.83301 20.833 11.5 28.5s17.5 11.5 29.5 11.5
c11.333 0 20.833 -4 28.5 -12s11.5 -17.333 11.5 -28s-4 -20 -12 -28s-17.333 -12 -28 -12c-12 0 -21.833 4 -29.5 12s-11.5 17.333 -11.5 28z" />
    <glyph glyph-name="Lslash" unicode="&#x141;" horiz-adv-x="463" 
d="M4 290c0 8 3.33203 13.333 9.99902 16l71 40v364c0 14 8.33301 21 25 21s25 -7 25 -21v-336l107 61c2 1.33301 5 2 9 2c6 0 11.167 -2.33301 15.5 -7s6.5 -10 6.5 -16c0 -7.33301 -3.33301 -13.333 -10 -18l-128 -72v-276h295c12.667 0 19 -8 19 -24
s-6.33301 -24 -19 -24h-321c-16 -0 -24 7.33301 -24 22v274l-51 -28c-2.66699 -2 -5.66699 -3 -9 -3c-5.33301 0 -10.166 2.5 -14.499 7.5s-6.5 10.833 -6.5 17.5z" />
    <glyph glyph-name="lslash" unicode="&#x142;" horiz-adv-x="299" 
d="M18 290c0 8 3.33203 13.333 9.99902 16l91 51v388c0 6 2.33301 11 7 15s10.334 6 17.001 6c7.33301 0 13.333 -2 18 -6s7 -9 7 -15v-360l85 48c2 1.33301 5 2 9 2c6 0 11.167 -2.33301 15.5 -7s6.5 -9.66699 6.5 -15c0 -8.66699 -3.66699 -14.667 -11 -18l-105 -60v-313
c0 -5.33301 -2.5 -10.333 -7.5 -15s-10.833 -7 -17.5 -7s-12.334 2.16699 -17.001 6.5s-7 9.5 -7 15.5v286l-71 -40c-2.66699 -2 -5.66699 -3 -9 -3c-5.33301 0 -10.166 2.5 -14.499 7.5s-6.5 10.833 -6.5 17.5z" />
    <glyph glyph-name="Nacute" unicode="&#x143;" horiz-adv-x="563" 
d="M79 22l-0.000976562 688c0 14 8.33301 21 25 21c12.667 0 26.334 -13.667 41.001 -41l289 -571v591c0 14 8.33301 21 25 21s25 -7 25 -21v-688c0 -14.667 -8.33301 -22 -25 -22c-10.667 -0 -22.667 12.333 -36 37l-294 576v-591c0 -14.667 -8.33301 -22 -25 -22
s-25 7.33301 -25 22zM207.999 876c0 7.33301 2.99902 12.334 8.99902 15.001l107 61c2.66699 1.33301 5.33398 2 8.00098 2c6 0 10.667 -2.33301 14 -7s5 -10 5 -16c0 -8.66699 -3.66699 -15.334 -11 -20.001l-100 -55c-2.66699 -2 -6 -3 -10 -3
c-6 0 -11.167 2.33301 -15.5 7s-6.5 10 -6.5 16z" />
    <glyph glyph-name="nacute" unicode="&#x144;" 
d="M66 22l0.00195312 430c0 13.333 8 20 24 20c6.66699 0 12.334 -1.83301 17.001 -5.5s7 -8.5 7 -14.5v-50c11.333 21.333 28.666 39.333 51.999 54s50.666 22 81.999 22c48.667 0 90.667 -18 126 -54s53 -79 53 -129v-273c0 -14.667 -8.33301 -22 -25 -22
c-16 -0 -24 7.33301 -24 22v273c0 35.333 -13.333 67 -40 95s-58 42 -94 42c-34 0 -64 -12.5 -90 -37.5s-39 -58.167 -39 -99.5v-273c0 -5.33301 -2.5 -10.333 -7.5 -15s-10.833 -7 -17.5 -7s-12.334 2.16699 -17.001 6.5s-7 9.5 -7 15.5zM171.002 619
c0 7.33301 2.99805 12.334 8.99805 15.001l107 61c2.66699 1.33301 5.33398 2 8.00098 2c6 0 10.667 -2.33301 14 -7s5 -10 5 -16c0 -8.66699 -3.66699 -15.334 -11 -20.001l-100 -55c-3.33301 -2 -6.66602 -3 -9.99902 -3c-6 0 -11.167 2.33301 -15.5 7s-6.5 10 -6.5 16z
" />
    <glyph glyph-name="Ncommaaccent" unicode="&#x145;" horiz-adv-x="563" 
d="M79 22l-0.000976562 688c0 14 8.33301 21 25 21c12.667 0 26.334 -13.667 41.001 -41l289 -571v591c0 14 8.33301 21 25 21s25 -7 25 -21v-688c0 -14.667 -8.33301 -22 -25 -22c-10.667 -0 -22.667 12.333 -36 37l-294 576v-591c0 -14.667 -8.33301 -22 -25 -22
s-25 7.33301 -25 22zM206.999 -126c0 7.33301 3.33301 12.334 10 15.001l106 61c4 1.33301 6.66699 2 8 2c6 0 10.833 -2.33301 14.5 -7s5.5 -10 5.5 -16c0 -8.66699 -4 -15.334 -12 -20.001l-100 -55c-3.33301 -2 -6.33301 -3 -9 -3c-6 0 -11.333 2.33301 -16 7
s-7 10 -7 16z" />
    <glyph glyph-name="ncommaaccent" unicode="&#x146;" 
d="M66 22l0.00195312 430c0 13.333 8 20 24 20c6.66699 0 12.334 -1.83301 17.001 -5.5s7 -8.5 7 -14.5v-50c11.333 21.333 28.666 39.333 51.999 54s50.666 22 81.999 22c48.667 0 90.667 -18 126 -54s53 -79 53 -129v-273c0 -14.667 -8.33301 -22 -25 -22
c-16 -0 -24 7.33301 -24 22v273c0 35.333 -13.333 67 -40 95s-58 42 -94 42c-34 0 -64 -12.5 -90 -37.5s-39 -58.167 -39 -99.5v-273c0 -5.33301 -2.5 -10.333 -7.5 -15s-10.833 -7 -17.5 -7s-12.334 2.16699 -17.001 6.5s-7 9.5 -7 15.5zM162.002 -126
c0 7.33301 3.33301 12.334 10 15.001l106 61c4 1.33301 6.66699 2 8 2c6 0 10.833 -2.33301 14.5 -7s5.5 -10 5.5 -16c0 -8.66699 -4 -15.334 -12 -20.001l-100 -55c-2.66699 -2 -5.66699 -3 -9 -3c-6 0 -11.333 2.33301 -16 7s-7 10 -7 16z" />
    <glyph glyph-name="Ncaron" unicode="&#x147;" horiz-adv-x="563" 
d="M79 22l-0.000976562 688c0 14 8.33301 21 25 21c12.667 0 26.334 -13.667 41.001 -41l289 -571v591c0 14 8.33301 21 25 21s25 -7 25 -21v-688c0 -14.667 -8.33301 -22 -25 -22c-10.667 -0 -22.667 12.333 -36 37l-294 576v-591c0 -14.667 -8.33301 -22 -25 -22
s-25 7.33301 -25 22zM149.999 969c0 4.66699 1.66699 9 5 13s7.33301 6 12 6c5.33301 0 10.333 -2.33301 15 -7l99 -98l98 98c4.66699 4.66699 10 7 16 7c4.66699 0 8.66699 -2 12 -6s5 -8.33301 5 -13s-3.33301 -11 -10 -19l-101 -96c-8 -6.66699 -14.667 -10 -20 -10
c-7.33301 0 -14.333 3.33301 -21 10l-100 96c-6.66699 6.66699 -10 13 -10 19z" />
    <glyph glyph-name="ncaron" unicode="&#x148;" 
d="M66 22l0.00195312 430c0 13.333 8 20 24 20c6.66699 0 12.334 -1.83301 17.001 -5.5s7 -8.5 7 -14.5v-50c11.333 21.333 28.666 39.333 51.999 54s50.666 22 81.999 22c48.667 0 90.667 -18 126 -54s53 -79 53 -129v-273c0 -14.667 -8.33301 -22 -25 -22
c-16 -0 -24 7.33301 -24 22v273c0 35.333 -13.333 67 -40 95s-58 42 -94 42c-34 0 -64 -12.5 -90 -37.5s-39 -58.167 -39 -99.5v-273c0 -5.33301 -2.5 -10.333 -7.5 -15s-10.833 -7 -17.5 -7s-12.334 2.16699 -17.001 6.5s-7 9.5 -7 15.5zM109.002 712
c0 4.66699 1.66699 9 5 13s7.33301 6 12 6c5.33301 0 10.333 -2.33301 15 -7l99 -98l98 98c4.66699 4.66699 10 7 16 7c4.66699 0 8.66699 -2 12 -6s5 -8.33301 5 -13s-3.33301 -11 -10 -19l-101 -96c-8 -6.66699 -14.667 -10 -20 -10c-7.33301 0 -14.333 3.33301 -21 10
l-100 96c-6.66699 6.66699 -10 13 -10 19z" />
    <glyph glyph-name="Eng" unicode="&#x14a;" horiz-adv-x="564" 
d="M79 22l-0.000976562 687.999c0 14 8.33301 21 25 21c12.667 0 26.334 -13.667 41.001 -41l289 -571v591c0 14 8.33301 21 25 21s25 -7 25 -21v-756c0 -126 -42 -189 -126 -189c-8 0 -14.167 2.33301 -18.5 7s-6.5 10.334 -6.5 17.001s2.16699 12 6.5 16s9.5 6 15.5 6
c32.667 0 54.167 11.833 64.5 35.5s15.5 59.5 15.5 107.5v47c0 8.66699 -4 20.667 -12 36l-294 576v-591c0 -14.667 -8.33301 -22 -25 -22s-25 7.33301 -25 22z" />
    <glyph glyph-name="eng" unicode="&#x14b;" horiz-adv-x="489" 
d="M66 22l0.00195312 429.999c0 13.333 8 20 24 20c6.66699 0 12.334 -1.83301 17.001 -5.5s7 -8.5 7 -14.5v-50c11.333 21.333 28.666 39.333 51.999 54s50.666 22 81.999 22c48.667 0 90.667 -18 126 -54s53 -79 53 -129v-341c0 -126 -42.333 -189 -127 -189
c-7.33301 0 -13.333 2.33301 -18 7s-7 10.334 -7 17.001s2.16699 12 6.5 16s9.83301 6 16.5 6c32 0 53.333 12 64 36s16 59.667 16 107v341c0 35.333 -13.333 67 -40 95s-58 42 -94 42c-34 0 -64 -12.5 -90 -37.5s-39 -58.167 -39 -99.5v-273
c0 -5.33301 -2.5 -10.333 -7.5 -15s-10.833 -7 -17.5 -7s-12.334 2.16699 -17.001 6.5s-7 9.5 -7 15.5z" />
    <glyph glyph-name="Omacron" unicode="&#x14c;" horiz-adv-x="547" 
d="M72 204v317c0 72.667 18.167 125.834 54.5 159.501s85.166 50.5 146.499 50.5c60.667 0 109.5 -16.833 146.5 -50.5s55.5 -86.834 55.5 -159.501v-317c0 -72.667 -18.5 -125.834 -55.5 -159.501s-85.833 -50.5 -146.5 -50.5c-61.333 0 -110.166 16.833 -146.499 50.5
s-54.5 86.834 -54.5 159.501zM122 204c0 -108 50.333 -162 151 -162c48.667 0 86.167 13.5 112.5 40.5s39.5 67.5 39.5 121.5v317c0 54 -13.167 94.5 -39.5 121.5s-63.833 40.5 -112.5 40.5c-100.667 0 -151 -54 -151 -162v-317zM143 919c0 14.667 7 22 21 22h217
c5.33301 0 10.333 -2.16699 15 -6.5s7 -9.5 7 -15.5s-2.16699 -10.833 -6.5 -14.5s-9.5 -5.5 -15.5 -5.5h-217c-14 0 -21 6.66699 -21 20z" />
    <glyph glyph-name="omacron" unicode="&#x14d;" horiz-adv-x="461" 
d="M47 179l0.000976562 116.001c0 49.333 18 92.166 54 128.499s79 54.5 129 54.5c49.333 0 92.333 -18 129 -54s55 -79 55 -129v-116c0 -48.667 -18.5 -91.667 -55.5 -129s-79.833 -56 -128.5 -56s-91.334 18.5 -128.001 55.5s-55 80.167 -55 129.5zM96.001 179.001
c0 -36 13.167 -68.167 39.5 -96.5s57.833 -42.5 94.5 -42.5s68.334 14.167 95.001 42.5s40 60.5 40 96.5v116c0 35.333 -13.333 67 -40 95s-58.334 42 -95.001 42s-68.167 -14 -94.5 -42s-39.5 -59.667 -39.5 -95v-116zM101.001 662.001c0 14.667 7 22 21 22h217
c5.33301 0 10.333 -2.16699 15 -6.5s7 -9.5 7 -15.5s-2.16699 -10.833 -6.5 -14.5s-9.5 -5.5 -15.5 -5.5h-217c-14 0 -21 6.66699 -21 20z" />
    <glyph glyph-name="Obreve" unicode="&#x14e;" horiz-adv-x="547" 
d="M72 204v317c0 72.667 18.167 125.834 54.5 159.501s85.166 50.5 146.499 50.5c60.667 0 109.5 -16.833 146.5 -50.5s55.5 -86.834 55.5 -159.501v-317c0 -72.667 -18.5 -125.834 -55.5 -159.501s-85.833 -50.5 -146.5 -50.5c-61.333 0 -110.166 16.833 -146.499 50.5
s-54.5 86.834 -54.5 159.501zM122 204c0 -108 50.333 -162 151 -162c48.667 0 86.167 13.5 112.5 40.5s39.5 67.5 39.5 121.5v317c0 54 -13.167 94.5 -39.5 121.5s-63.833 40.5 -112.5 40.5c-100.667 0 -151 -54 -151 -162v-317zM160 969h37.999
c0 -22.667 7.33301 -42 22 -58s32.334 -24 53.001 -24c20 0 37.333 8 52 24s22 35.333 22 58h38c0 -30 -11.333 -56.333 -34 -79s-48.667 -34 -78 -34c-30 0 -56.333 11.167 -79 33.5s-34 48.833 -34 79.5z" />
    <glyph glyph-name="obreve" unicode="&#x14f;" horiz-adv-x="461" 
d="M47 179l0.000976562 116.001c0 49.333 18 92.166 54 128.499s79 54.5 129 54.5c49.333 0 92.333 -18 129 -54s55 -79 55 -129v-116c0 -48.667 -18.5 -91.667 -55.5 -129s-79.833 -56 -128.5 -56s-91.334 18.5 -128.001 55.5s-55 80.167 -55 129.5zM96.001 179.001
c0 -36 13.167 -68.167 39.5 -96.5s57.833 -42.5 94.5 -42.5s68.334 14.167 95.001 42.5s40 60.5 40 96.5v116c0 35.333 -13.333 67 -40 95s-58.334 42 -95.001 42s-68.167 -14 -94.5 -42s-39.5 -59.667 -39.5 -95v-116zM118.001 712.001h37.999
c0 -22.667 7.33301 -42 22 -58s32.334 -24 53.001 -24c20 0 37.333 8 52 24s22 35.333 22 58h38c0 -30 -11.333 -56.333 -34 -79s-48.667 -34 -78 -34c-30 0 -56.333 11.167 -79 33.5s-34 48.833 -34 79.5z" />
    <glyph glyph-name="Ohungarumlaut" unicode="&#x150;" horiz-adv-x="547" 
d="M72 204v317c0 72.667 18.167 125.834 54.5 159.501s85.166 50.5 146.499 50.5c60.667 0 109.5 -16.833 146.5 -50.5s55.5 -86.834 55.5 -159.501v-317c0 -72.667 -18.5 -125.834 -55.5 -159.501s-85.833 -50.5 -146.5 -50.5c-61.333 0 -110.166 16.833 -146.499 50.5
s-54.5 86.834 -54.5 159.501zM122 204c0 -108 50.333 -162 151 -162c48.667 0 86.167 13.5 112.5 40.5s39.5 67.5 39.5 121.5v317c0 54 -13.167 94.5 -39.5 121.5s-63.833 40.5 -112.5 40.5c-100.667 0 -151 -54 -151 -162v-317zM169 874c0 6 2.66699 10.333 8 13l99 64
c2.66699 2 5.66699 3 9 3c5.33301 0 9.83301 -2.16699 13.5 -6.5s5.5 -9.16602 5.5 -14.499c0 -7.33301 -3 -13.333 -9 -18l-93 -58c-3.33301 -2.66699 -7 -4 -11 -4c-5.33301 0 -10.333 2.16699 -15 6.5s-7 9.16602 -7 14.499zM318 874c0 6 2.33301 10.334 7 13.001l100 64
c2 2 4.66699 3 8 3c6 0 10.833 -2 14.5 -6s5.5 -9 5.5 -15c0 -7.33301 -3.33301 -13.333 -10 -18l-93 -58c-2.66699 -2.66699 -6 -4 -10 -4c-6 0 -11.167 2.16699 -15.5 6.5s-6.5 9.16602 -6.5 14.499z" />
    <glyph glyph-name="ohungarumlaut" unicode="&#x151;" horiz-adv-x="461" 
d="M47 179l0.000976562 116.001c0 49.333 18 92.166 54 128.499s79 54.5 129 54.5c49.333 0 92.333 -18 129 -54s55 -79 55 -129v-116c0 -48.667 -18.5 -91.667 -55.5 -129s-79.833 -56 -128.5 -56s-91.334 18.5 -128.001 55.5s-55 80.167 -55 129.5zM96.001 179.001
c0 -36 13.167 -68.167 39.5 -96.5s57.833 -42.5 94.5 -42.5s68.334 14.167 95.001 42.5s40 60.5 40 96.5v116c0 35.333 -13.333 67 -40 95s-58.334 42 -95.001 42s-68.167 -14 -94.5 -42s-39.5 -59.667 -39.5 -95v-116zM116.001 617.001c0 6 2.66699 10.333 8 13l99 64
c3.33301 2 6.33301 3 9 3c5.33301 0 9.83301 -2.16699 13.5 -6.5s5.5 -9.16602 5.5 -14.499c0 -6.66699 -3 -12.667 -9 -18l-93 -58c-3.33301 -2.66699 -7 -4 -11 -4c-5.33301 0 -10.333 2.16699 -15 6.5s-7 9.16602 -7 14.499zM265.001 617.001
c0 6 2.33301 10.334 7 13.001l100 64c2 2 4.66699 3 8 3c6 0 10.833 -2 14.5 -6s5.5 -9 5.5 -15c0 -7.33301 -3.33301 -13.333 -10 -18l-93 -58c-2.66699 -2.66699 -6 -4 -10 -4c-6 0 -11.167 2.16699 -15.5 6.5s-6.5 9.16602 -6.5 14.499z" />
    <glyph glyph-name="OE" unicode="&#x152;" horiz-adv-x="842" 
d="M72 204v316.998c0 72.667 17.833 125.834 53.5 159.501s83.5 50.5 143.5 50.5c74 0 127 -24 159 -72v50c0 14.667 8 22 24 22h347c13.333 0 20 -7.66699 20 -23c0 -16.667 -6.66699 -25 -20 -25h-325v-294h154c13.333 0 20 -8 20 -24c0 -14.667 -6.66699 -22 -20 -22
h-154v-295h325c13.333 0 20 -8.33301 20 -25c0 -15.333 -6.66699 -23 -20 -23h-347c-16 0 -24 7.33301 -24 22v44c-32 -48 -85 -72 -159 -72c-60 0 -107.833 16.833 -143.5 50.5s-53.5 86.834 -53.5 159.501zM122 203.998c0 -108 50.333 -162 151 -162
c48.667 0 86.167 13.5 112.5 40.5s39.5 67.5 39.5 121.5v317c0 54 -13.167 94.5 -39.5 121.5s-63.833 40.5 -112.5 40.5c-100.667 0 -151 -54 -151 -162v-317z" />
    <glyph glyph-name="oe" unicode="&#x153;" horiz-adv-x="768" 
d="M47 179v116.001c0 49.333 18 92.166 54 128.499s79 54.5 129 54.5c33.333 0 64.5 -9 93.5 -27s51.167 -42 66.5 -72c14.667 29.333 36.334 53.166 65.001 71.499s60 27.5 94 27.5c48.667 0 91 -17.333 127 -52s54 -77 54 -127c0 -18.667 -2 -33.667 -6 -45
s-10.667 -19.333 -20 -24s-17.833 -7.5 -25.5 -8.5s-18.5 -1.5 -32.5 -1.5h-232v-42c0 -42.667 15 -76.5 45 -101.5s69.667 -37.5 119 -37.5c22.667 0 42 3.33301 58 10s28.167 13.334 36.5 20.001s15.166 10 20.499 10c6 0 11.333 -2.33301 16 -7s7 -10.667 7 -18
c0 -12 -14.167 -25 -42.5 -39s-62.166 -21 -101.499 -21c-42 0 -79.167 8.83301 -111.5 26.5s-56.166 42.167 -71.499 73.5c-16 -30 -38.333 -54.167 -67 -72.5s-59.334 -27.5 -92.001 -27.5c-48.667 0 -91.334 18.5 -128.001 55.5s-55 80.167 -55 129.5zM96 179.001
c0 -36 13.167 -68.167 39.5 -96.5s57.833 -42.5 94.5 -42.5s68.334 14.167 95.001 42.5s40 60.5 40 96.5v116c0 35.333 -13.333 67 -40 95s-58.334 42 -95.001 42s-68.167 -14 -94.5 -42s-39.5 -59.667 -39.5 -95v-116zM414 261.001l213 -0.000976562
c22.667 0 37.5 2.33301 44.5 7s10.5 14.334 10.5 29.001c0 36 -12.667 67.833 -38 95.5s-57.333 41.5 -96 41.5c-36.667 0 -68.167 -12.667 -94.5 -38s-39.5 -55.333 -39.5 -90v-45z" />
    <glyph glyph-name="Racute" unicode="&#x154;" horiz-adv-x="516" 
d="M79 22v688c0 6 2 11 6 15s9.33301 6 16 6h171c62.667 0 113.5 -15.167 152.5 -45.5s58.5 -79.833 58.5 -148.5c0 -112 -54.333 -175.667 -163 -191l160 -310c2 -4 3 -8 3 -12c0 -6.66699 -2.5 -12.5 -7.5 -17.5s-11.5 -7.5 -19.5 -7.5s-18.333 11.667 -31 35l-157 307
h-139v-319c0 -14.667 -8.33301 -22 -25 -22s-25 7.33301 -25 22zM129 387h143c107.333 0 161 49.667 161 149c0 98 -53.667 147 -161 147h-143v-296zM212 876c0 7.33301 2.99902 12.334 8.99902 15.001l107 61c2.66699 1.33301 5.33398 2 8.00098 2
c6 0 10.667 -2.33301 14 -7s5 -10 5 -16c0 -8.66699 -3.66699 -15.334 -11 -20.001l-100 -55c-2.66699 -2 -6 -3 -10 -3c-6 0 -11.167 2.33301 -15.5 7s-6.5 10 -6.5 16z" />
    <glyph glyph-name="racute" unicode="&#x155;" horiz-adv-x="319" 
d="M66 22v430c0 13.333 8 20 24 20c6.66699 0 12.334 -1.83301 17.001 -5.5s7 -8.5 7 -14.5v-51c12 22 29.833 40.333 53.5 55s51.167 22 82.5 22h36c6 0 11.167 -2.16699 15.5 -6.5s6.5 -9.83301 6.5 -16.5s-2.16699 -12.167 -6.5 -16.5s-9.5 -6.5 -15.5 -6.5h-36
c-36 0 -67.5 -13.5 -94.5 -40.5s-40.5 -62.167 -40.5 -105.5v-264c0 -5.33301 -2.5 -10.333 -7.5 -15s-10.833 -7 -17.5 -7s-12.334 2.16699 -17.001 6.5s-7 9.5 -7 15.5zM82 619c0 7.33301 2.99902 12.334 8.99902 15.001l107 61c2.66699 1.33301 5.33398 2 8.00098 2
c6 0 10.667 -2.33301 14 -7s5 -10 5 -16c0 -8.66699 -3.66699 -15.334 -11 -20.001l-100 -55c-2.66699 -2 -6 -3 -10 -3c-6 0 -11.167 2.33301 -15.5 7s-6.5 10 -6.5 16z" />
    <glyph glyph-name="Rcommaaccent" unicode="&#x156;" horiz-adv-x="516" 
d="M79 22v688c0 6 2 11 6 15s9.33301 6 16 6h171c62.667 0 113.5 -15.167 152.5 -45.5s58.5 -79.833 58.5 -148.5c0 -112 -54.333 -175.667 -163 -191l160 -310c2 -4 3 -8 3 -12c0 -6.66699 -2.5 -12.5 -7.5 -17.5s-11.5 -7.5 -19.5 -7.5s-18.333 11.667 -31 35l-157 307
h-139v-319c0 -14.667 -8.33301 -22 -25 -22s-25 7.33301 -25 22zM129 387h143c107.333 0 161 49.667 161 149c0 98 -53.667 147 -161 147h-143v-296zM174 -126c0 7.33301 3.33301 12.334 10 15.001l106 61c4 1.33301 6.66699 2 8 2c6 0 10.833 -2.33301 14.5 -7
s5.5 -10 5.5 -16c0 -8.66699 -4 -15.334 -12 -20.001l-100 -55c-2.66699 -2 -5.66699 -3 -9 -3c-6 0 -11.333 2.33301 -16 7s-7 10 -7 16z" />
    <glyph glyph-name="rcommaaccent" unicode="&#x157;" horiz-adv-x="319" 
d="M-5 -126c0 7.33301 3.33301 12.334 10 15.001l106 61c4 1.33301 6.66699 2 8 2c6 0 10.833 -2.33301 14.5 -7s5.5 -10 5.5 -16c0 -8.66699 -4 -15.334 -12 -20.001l-100 -55c-3.33301 -2 -6.33301 -3 -9 -3c-6 0 -11.333 2.33301 -16 7s-7 10 -7 16zM66 22.001v430
c0 13.333 8 20 24 20c6.66699 0 12.334 -1.83301 17.001 -5.5s7 -8.5 7 -14.5v-51c12 22 29.833 40.333 53.5 55s51.167 22 82.5 22h36c6 0 11.167 -2.16699 15.5 -6.5s6.5 -9.83301 6.5 -16.5s-2.16699 -12.167 -6.5 -16.5s-9.5 -6.5 -15.5 -6.5h-36
c-36 0 -67.5 -13.5 -94.5 -40.5s-40.5 -62.167 -40.5 -105.5v-264c0 -5.33301 -2.5 -10.333 -7.5 -15s-10.833 -7 -17.5 -7s-12.334 2.16699 -17.001 6.5s-7 9.5 -7 15.5z" />
    <glyph glyph-name="Rcaron" unicode="&#x158;" horiz-adv-x="516" 
d="M79 22v688c0 6 2 11 6 15s9.33301 6 16 6h171c62.667 0 113.5 -15.167 152.5 -45.5s58.5 -79.833 58.5 -148.5c0 -112 -54.333 -175.667 -163 -191l160 -310c2 -4 3 -8 3 -12c0 -6.66699 -2.5 -12.5 -7.5 -17.5s-11.5 -7.5 -19.5 -7.5s-18.333 11.667 -31 35l-157 307
h-139v-319c0 -14.667 -8.33301 -22 -25 -22s-25 7.33301 -25 22zM129 387h143c107.333 0 161 49.667 161 149c0 98 -53.667 147 -161 147h-143v-296zM145 969c0 4.66699 1.66699 9 5 13s7.33301 6 12 6c5.33301 0 10.333 -2.33301 15 -7l99 -98l98 98
c4.66699 4.66699 10 7 16 7c4.66699 0 8.66699 -2 12 -6s5 -8.33301 5 -13s-3.33301 -11 -10 -19l-101 -96c-8 -6.66699 -14.667 -10 -20 -10c-7.33301 0 -14.333 3.33301 -21 10l-100 96c-6.66699 6.66699 -10 13 -10 19z" />
    <glyph glyph-name="rcaron" unicode="&#x159;" horiz-adv-x="319" 
d="M21 712c0 4.66699 1.66699 9 5 13s7.33301 6 12 6c5.33301 0 10.333 -2.33301 15 -7l99 -98l98 98c4.66699 4.66699 10 7 16 7c4.66699 0 8.66699 -2 12 -6s5 -8.33301 5 -13s-3.33301 -11 -10 -19l-101 -96c-8 -6.66699 -14.667 -10 -20 -10
c-7.33301 0 -14.333 3.33301 -21 10l-100 96c-6.66699 6.66699 -10 13 -10 19zM66 22v430c0 13.333 8 20 24 20c6.66699 0 12.334 -1.83301 17.001 -5.5s7 -8.5 7 -14.5v-51c12 22 29.833 40.333 53.5 55s51.167 22 82.5 22h36c6 0 11.167 -2.16699 15.5 -6.5
s6.5 -9.83301 6.5 -16.5s-2.16699 -12.167 -6.5 -16.5s-9.5 -6.5 -15.5 -6.5h-36c-36 0 -67.5 -13.5 -94.5 -40.5s-40.5 -62.167 -40.5 -105.5v-264c0 -5.33301 -2.5 -10.333 -7.5 -15s-10.833 -7 -17.5 -7s-12.334 2.16699 -17.001 6.5s-7 9.5 -7 15.5z" />
    <glyph glyph-name="Sacute" unicode="&#x15a;" horiz-adv-x="487" 
d="M39 98c0 6.66699 2.5 13.0029 7.5 19.0029s10.167 9 15.5 9c4.66699 0 10.667 -4.33301 18 -13l27 -29c10 -10.667 26.167 -20.334 48.5 -29.001s48.166 -13 77.499 -13c51.333 0 90.666 12.667 117.999 38s41 62.666 41 111.999c0 37.333 -8.33301 68.333 -25 93
s-37.334 42.334 -62.001 53.001s-51.5 21.667 -80.5 33s-55.833 22.5 -80.5 33.5s-45.334 29.167 -62.001 54.5s-25 57.333 -25 96c0 34.667 6.33301 64.167 19 88.5s29.667 42.666 51 54.999s42.833 21 64.5 26s44.834 7.5 69.501 7.5c40 0 77.167 -5.83301 111.5 -17.5
s51.5 -24.834 51.5 -39.501c0 -6 -2.33301 -12.333 -7 -19s-10 -10 -16 -10c-3.33301 0 -10.666 3.16699 -21.999 9.5s-27.5 12.666 -48.5 18.999s-44.5 9.5 -70.5 9.5c-43.333 0 -79.666 -9.5 -108.999 -28.5s-44 -51.167 -44 -96.5
c0 -27.333 6.16699 -50.166 18.5 -68.499s28.333 -32.5 48 -42.5s41.334 -19 65.001 -27s47.5 -17 71.5 -27s45.833 -22.333 65.5 -37s35.667 -35.5 48 -62.5s18.5 -59.5 18.5 -97.5c0 -68 -18.5 -118.833 -55.5 -152.5s-86.5 -50.5 -148.5 -50.5
c-57.333 0 -104.833 12.333 -142.5 37s-56.5 47 -56.5 67zM172 876.003c0 7.33301 2.99902 12.334 8.99902 15.001l107 61c2.66699 1.33301 5.33398 2 8.00098 2c6 0 10.667 -2.33301 14 -7s5 -10 5 -16c0 -8.66699 -3.66699 -15.334 -11 -20.001l-100 -55
c-2.66699 -2 -6 -3 -10 -3c-6 0 -11.167 2.33301 -15.5 7s-6.5 10 -6.5 16z" />
    <glyph glyph-name="sacute" unicode="&#x15b;" horiz-adv-x="379" 
d="M36 62c0 5.33301 1.83008 10.501 5.49707 15.501s7.83398 7.5 12.501 7.5c4 0 9.33301 -2.33301 16 -7l23 -16c8 -6 20.333 -11.5 37 -16.5s35.334 -7.5 56.001 -7.5c37.333 0 65 7.16699 83 21.5s27 32.833 27 55.5c0 26.667 -8.5 47.667 -25.5 63
s-37.667 26.5 -62 33.5s-48.833 14.5 -73.5 22.5s-45.5 21 -62.5 39s-25.5 42.333 -25.5 73c0 34.667 12.833 65.334 38.5 92.001s63.5 40 113.5 40c31.333 0 60.5 -4.83301 87.5 -14.5s40.5 -19.834 40.5 -30.501c0 -5.33301 -2.33301 -11 -7 -17s-9.66699 -9 -15 -9
c-0.666992 0 -12.334 4.5 -35.001 13.5s-46 13.5 -70 13.5c-36 0 -62.833 -9 -80.5 -27s-26.5 -38 -26.5 -60c0 -22.667 8.5 -40.334 25.5 -53.001s37.833 -22.334 62.5 -29.001s49.334 -14.167 74.001 -22.5s45.5 -22.666 62.5 -42.999s25.5 -47.5 25.5 -81.5
c0 -38.667 -13.667 -69 -41 -91s-65.666 -33 -114.999 -33c-42.667 0 -78.5 7.5 -107.5 22.5s-43.5 30.167 -43.5 45.5zM113.997 619.001c0 7.33301 2.99902 12.334 8.99902 15.001l107 61c2.66699 1.33301 5.33398 2 8.00098 2c6 0 10.667 -2.33301 14 -7s5 -10 5 -16
c0 -8.66699 -3.66699 -15.334 -11 -20.001l-100 -55c-2.66699 -2 -6 -3 -10 -3c-6 0 -11.167 2.33301 -15.5 7s-6.5 10 -6.5 16z" />
    </font>
</defs>
</svg>
