<?xml version="1.0" encoding="utf-8"?>
<!-- Generator: Adobe Illustrator 19.0.0, SVG Export Plug-In . SVG Version: 6.00 Build 0)  -->
<svg version="1.1" id="Mode_Isolation" xmlns="http://www.w3.org/2000/svg" xmlns:xlink="http://www.w3.org/1999/xlink" x="0px"
	 y="0px" viewBox="0 0 32.862828 36.048198" xml:space="preserve">
<style type="text/css">
	.st0{fill:#26231E;}
</style>
<path
     id="XMLID_14_"
     class="st0"
     d="m 0.16282606,19.7 c -1,3.5 2.80000004,6.6 6.10000004,5.4 3.7,-1.4 7.7999999,-4 11.0999999,-7.2 7.2,-6.9 7.8,-17.9 7.8,-17.9 0,0 -11,0.2 -18.1999999,7.1 -3.4,3.3 -5.6,8.3 -6.80000004,12.6 z" /><path
     id="XMLID_15_"
     class="st0"
     d="m 12.262826,26.1 c -3.8999999,1.4 -3.8999999,7 0.1,8.4 2.1,0.7 4.4,1.3 6.7,1.5 7.4,0.6 13.8,-4.6 13.8,-4.6 0,0 -5.6,-6 -13,-6.6 -2.6,-0.2 -5.2,0.4 -7.6,1.3 z" />
</svg>