<?xml version="1.0" encoding="UTF-8" standalone="no"?>
<!-- Generator: Adobe Illustrator 19.0.0, SVG Export Plug-In . SVG Version: 6.00 Build 0)  -->

<svg
   xmlns:dc="http://purl.org/dc/elements/1.1/"
   xmlns:cc="http://creativecommons.org/ns#"
   xmlns:rdf="http://www.w3.org/1999/02/22-rdf-syntax-ns#"
   xmlns:svg="http://www.w3.org/2000/svg"
   xmlns="http://www.w3.org/2000/svg"
   xmlns:sodipodi="http://sodipodi.sourceforge.net/DTD/sodipodi-0.dtd"
   xmlns:inkscape="http://www.inkscape.org/namespaces/inkscape"
   version="1.1"
   id="Mode_Isolation"
   x="0px"
   y="0px"
   viewBox="0 0 84.501747 65.900002"
   xml:space="preserve"
   inkscape:version="0.91 r13725"
   sodipodi:docname="mail2.svg"
   width="84.501747"
   height="65.900002"><metadata
     id="metadata11"><rdf:RDF><cc:Work
         rdf:about=""><dc:format>image/svg+xml</dc:format><dc:type
           rdf:resource="http://purl.org/dc/dcmitype/StillImage" /><dc:title></dc:title></cc:Work></rdf:RDF></metadata><defs
     id="defs9" /><sodipodi:namedview
     pagecolor="#ffffff"
     bordercolor="#666666"
     borderopacity="1"
     objecttolerance="10"
     gridtolerance="10"
     guidetolerance="10"
     inkscape:pageopacity="0"
     inkscape:pageshadow="2"
     inkscape:window-width="640"
     inkscape:window-height="480"
     id="namedview7"
     showgrid="false"
     fit-margin-top="5"
     fit-margin-left="5"
     fit-margin-right="5"
     fit-margin-bottom="5"
     inkscape:zoom="0.295"
     inkscape:cx="-51.3"
     inkscape:cy="-79.800002"
     inkscape:window-x="0"
     inkscape:window-y="0"
     inkscape:window-maximized="0"
     inkscape:current-layer="Mode_Isolation" /><style
     type="text/css"
     id="style3">
	.st0{fill:#FF8383;}
</style><path
     class="st0"
     d="M 70.2,5 14.3,5 C 9.2,5 5,9.2 5,14.3 l 0,37.3 c 0,5.1 4.2,9.3 9.3,9.3 l 55.9,0 c 5.1,0 9.3,-4.2 9.3,-9.3 l 0,-37.3 C 79.6,9.1 75.4,5 70.2,5 Z M 54.9,29.8 74.6,12.9 c 0.1,0.4 0.3,0.9 0.3,1.4 l 0,37.3 c 0,0.3 -0.1,0.6 -0.2,0.9 L 54.9,29.8 Z M 70.2,9.6 c 0.3,0 0.6,0.1 0.9,0.2 L 42.3,34.5 13.5,9.8 c 0.3,-0.1 0.6,-0.2 0.9,-0.2 l 55.8,0 z M 9.8,52.5 C 9.7,52.2 9.6,51.9 9.6,51.6 l 0,-37.3 c 0,-0.5 0.1,-0.9 0.3,-1.4 L 29.6,29.8 9.8,52.5 Z m 4.5,3.7 c -0.5,0 -0.9,-0.1 -1.3,-0.3 l 20.2,-23.1 7.6,6.5 c 0.4,0.4 1,0.6 1.5,0.6 0.5,0 1.1,-0.2 1.5,-0.6 l 7.6,-6.5 20.2,23.1 c -0.4,0.1 -0.9,0.3 -1.3,0.3 l -56,0 z"
     id="path5"
     inkscape:connector-curvature="0"
     style="fill:#ff8383" /></svg>