<?xml version="1.0" encoding="UTF-8" standalone="no"?>
<!-- Generator: Adobe Illustrator 19.0.0, SVG Export Plug-In . SVG Version: 6.00 Build 0)  -->

<svg
   xmlns:dc="http://purl.org/dc/elements/1.1/"
   xmlns:cc="http://creativecommons.org/ns#"
   xmlns:rdf="http://www.w3.org/1999/02/22-rdf-syntax-ns#"
   xmlns:svg="http://www.w3.org/2000/svg"
   xmlns="http://www.w3.org/2000/svg"
   xmlns:sodipodi="http://sodipodi.sourceforge.net/DTD/sodipodi-0.dtd"
   xmlns:inkscape="http://www.inkscape.org/namespaces/inkscape"
   version="1.1"
   id="Mode_Isolation"
   x="0px"
   y="0px"
   viewBox="0 0 62.718235 62.700001"
   xml:space="preserve"
   inkscape:version="0.91 r13725"
   sodipodi:docname="telephone2.svg"
   width="62.718235"
   height="62.700001"><metadata
     id="metadata11"><rdf:RDF><cc:Work
         rdf:about=""><dc:format>image/svg+xml</dc:format><dc:type
           rdf:resource="http://purl.org/dc/dcmitype/StillImage" /><dc:title></dc:title></cc:Work></rdf:RDF></metadata><defs
     id="defs9" /><sodipodi:namedview
     pagecolor="#ffffff"
     bordercolor="#666666"
     borderopacity="1"
     objecttolerance="10"
     gridtolerance="10"
     guidetolerance="10"
     inkscape:pageopacity="0"
     inkscape:pageshadow="2"
     inkscape:window-width="640"
     inkscape:window-height="480"
     id="namedview7"
     showgrid="false"
     fit-margin-left="5"
     fit-margin-top="5"
     fit-margin-right="5"
     fit-margin-bottom="5"
     inkscape:zoom="0.295"
     inkscape:cx="29.2"
     inkscape:cy="160.5"
     inkscape:window-x="0"
     inkscape:window-y="0"
     inkscape:window-maximized="0"
     inkscape:current-layer="Mode_Isolation" /><style
     type="text/css"
     id="style3">
	.st0{fill:none;stroke:#FF8383;stroke-width:3;stroke-miterlimit:10;}
</style><path
     class="st0"
     d="m 56.2,45.7 c 0.1,0.8 -0.1,1.5 -0.7,2.1 l -7,7 c -0.3,0.4 -0.7,0.7 -1.2,0.9 -0.5,0.2 -1,0.4 -1.5,0.5 0,0 -0.1,0 -0.3,0 -0.2,0 -0.4,0 -0.7,0 -0.7,0 -1.7,-0.1 -3.2,-0.3 -1.5,-0.2 -3.3,-0.8 -5.5,-1.7 -2.2,-0.9 -4.6,-2.2 -7.4,-4 -2.7,-1.8 -5.7,-4.3 -8.8,-7.4 -2.5,-2.4 -4.5,-4.7 -6.1,-7 -1.6,-2.2 -2.9,-4.3 -3.8999997,-6.1 -1,-1.9 -1.7,-3.6 -2.2,-5.1 -0.5,-1.5 -0.8,-2.8 -1,-4 -0.2,-1.1 -0.2,-2 -0.2,-2.6 0,-0.6 0.1,-1 0.1,-1.1 0.1,-0.5 0.2,-1 0.5,-1.5 0.2,-0.5 0.5,-0.9 0.9,-1.2 L 15,7.2 c 0.5,-0.5 1.1,-0.7 1.7,-0.7 0.5,0 0.9,0.1 1.2,0.4 0.4,0.3 0.7,0.6 0.9,1 l 5.6,10.7 c 0.3,0.6 0.4,1.2 0.3,1.8 -0.1,0.7 -0.4,1.2 -0.9,1.7 l -2.6,2.6 c -0.1,0.1 -0.1,0.2 -0.2,0.3 -0.1,0.2 -0.1,0.3 -0.1,0.4 0.1,0.7 0.5,1.6 0.9,2.5 0.4,0.8 1.1,1.9 2,3.1 0.9,1.2 2.1,2.6 3.7,4.2 1.6,1.6 3,2.9 4.2,3.8 1.2,0.9 2.3,1.6 3.1,2 0.8,0.4 1.5,0.7 1.9,0.8 l 0.7,0.1 c 0.1,0 0.2,0 0.3,-0.1 0.2,-0.1 0.3,-0.1 0.3,-0.2 l 3,-3.1 c 0.6,-0.6 1.4,-0.8 2.2,-0.8 0.6,0 1.1,0.1 1.4,0.3 l 0.1,0 10.2,6 c 0.7,0.4 1.1,1 1.3,1.7 z"
     id="path5"
     inkscape:connector-curvature="0"
     style="fill:none;stroke:#ff8383;stroke-width:3;stroke-miterlimit:10" /></svg>