<?xml version="1.0" encoding="UTF-8" standalone="no"?>
<svg
   xmlns:dc="http://purl.org/dc/elements/1.1/"
   xmlns:cc="http://creativecommons.org/ns#"
   xmlns:rdf="http://www.w3.org/1999/02/22-rdf-syntax-ns#"
   xmlns:svg="http://www.w3.org/2000/svg"
   xmlns="http://www.w3.org/2000/svg"
   xmlns:sodipodi="http://sodipodi.sourceforge.net/DTD/sodipodi-0.dtd"
   xmlns:inkscape="http://www.inkscape.org/namespaces/inkscape"
   version="1.1"
   id="Calque_1"
   x="0px"
   y="0px"
   viewBox="0 0 343.50001 348.39998"
   xml:space="preserve"
   inkscape:version="0.91 r13725"
   sodipodi:docname="logo.svg"
   width="343.5"
   height="348.39999"><metadata
     id="metadata25"><rdf:RDF><cc:Work
         rdf:about=""><dc:format>image/svg+xml</dc:format><dc:type
           rdf:resource="http://purl.org/dc/dcmitype/StillImage" /><dc:title></dc:title></cc:Work></rdf:RDF></metadata><defs
     id="defs23" /><sodipodi:namedview
     pagecolor="#ffffff"
     bordercolor="#666666"
     borderopacity="1"
     objecttolerance="10"
     gridtolerance="10"
     guidetolerance="10"
     inkscape:pageopacity="0"
     inkscape:pageshadow="2"
     inkscape:window-width="1284"
     inkscape:window-height="694"
     id="namedview21"
     showgrid="false"
     inkscape:zoom="0.28031832"
     inkscape:cx="-23.750006"
     inkscape:cy="-115.35003"
     inkscape:window-x="0"
     inkscape:window-y="0"
     inkscape:window-maximized="0"
     inkscape:current-layer="Calque_1"
     fit-margin-top="5"
     fit-margin-left="5"
     fit-margin-right="5"
     fit-margin-bottom="5" /><style
     type="text/css"
     id="style3">
	.st0{fill:#26231E;}
</style><g
     id="XMLID_64_"
     transform="translate(-126.7,-249.4)"><path
       id="XMLID_2_"
       class="st0"
       d="m 465.1,592.8 -333.4,0 0,-338.4 333.5,0 0,338.4 z m -331.2,-2.2 329,0 0,-334 -329,0 0,334 z"
       inkscape:connector-curvature="0"
       style="fill:#26231e" /></g><g
     id="XMLID_8_"
     transform="translate(-126.7,-249.4)"><g
       id="XMLID_292_"><path
         id="XMLID_310_"
         class="st0"
         d="m 199.8,302.3 15.5,0 c 4.4,0 8,1 10.8,2.9 2.8,1.9 4.2,5.1 4.2,9.5 l 0,32.7 c 0,2.7 -0.8,4.8 -2.3,6.3 -1.5,1.5 -3.4,2.6 -5.8,3.2 2.4,0.5 4.5,1.6 6.3,3.2 1.7,1.6 2.6,4.1 2.6,7.4 l 0,35.5 c 0,4.4 -1.3,7.5 -4,9.5 -2.7,1.9 -6.1,2.9 -10.1,2.9 l -17.3,0 0,-113.1 z m 15,52.2 c 3,0 5,-0.8 6,-2.3 1,-1.6 1.5,-3.2 1.5,-5 l 0,-32.7 c 0,-2.3 -0.5,-3.9 -1.6,-4.9 -1,-1 -3.1,-1.5 -6.3,-1.5 l -6.6,0 0,46.5 7,0 z m -7,5.6 0,49.6 6.6,0 c 3.3,0 5.5,-0.5 6.8,-1.6 1.3,-1 1.9,-2.6 1.9,-4.7 l 0,-35.7 c 0,-5.1 -2.8,-7.7 -8.4,-7.7 l -6.9,0 z"
         inkscape:connector-curvature="0"
         style="fill:#26231e" /><path
         id="XMLID_308_"
         class="st0"
         d="m 249.9,302.3 24.8,0 0,5.6 -16.8,0 0,46.5 15.7,0 0,5.6 -15.7,0 0,49.6 18,0 0,5.6 -26,0 0,-112.9 z"
         inkscape:connector-curvature="0"
         style="fill:#26231e" /><path
         id="XMLID_306_"
         class="st0"
         d="m 290.3,302.3 8,0 0,107.4 18.2,0 0,5.6 -26.2,0 0,-113 z"
         inkscape:connector-curvature="0"
         style="fill:#26231e" /><path
         id="XMLID_304_"
         class="st0"
         d="m 330.6,302.3 8,0 0,107.4 18.2,0 0,5.6 -26.2,0 0,-113 z"
         inkscape:connector-curvature="0"
         style="fill:#26231e" /><path
         id="XMLID_302_"
         class="st0"
         d="m 371,302.3 24.8,0 0,5.6 -16.8,0 0,46.5 15.7,0 0,5.6 -15.7,0 0,49.6 18,0 0,5.6 -26,0 0,-112.9 z"
         inkscape:connector-curvature="0"
         style="fill:#26231e" /><path
         id="XMLID_298_"
         class="st0"
         d="m 288.1,430.3 15.5,0 c 4.4,0 8,1 10.8,2.9 2.8,1.9 4.2,5.1 4.2,9.5 l 0,32.7 c 0,2.7 -0.8,4.8 -2.3,6.3 -1.5,1.5 -3.4,2.6 -5.8,3.2 2.4,0.5 4.5,1.6 6.3,3.2 1.7,1.6 2.6,4.1 2.6,7.4 l 0,35.5 c 0,4.4 -1.3,7.5 -4,9.5 -2.7,1.9 -6.1,2.9 -10.1,2.9 l -17.3,0 0,-113.1 z m 15,52.2 c 3,0 5,-0.8 6,-2.3 1,-1.6 1.5,-3.2 1.5,-5 l 0,-32.7 c 0,-2.3 -0.5,-3.9 -1.6,-4.9 -1,-1 -3.1,-1.5 -6.3,-1.5 l -6.6,0 0,46.5 7,0 z m -6.9,5.6 0,49.6 6.6,0 c 3.3,0 5.5,-0.5 6.8,-1.6 1.3,-1 1.9,-2.6 1.9,-4.7 l 0,-35.7 c 0,-5.1 -2.8,-7.7 -8.4,-7.7 l -6.9,0 z"
         inkscape:connector-curvature="0"
         style="fill:#26231e" /><path
         id="XMLID_296_"
         class="st0"
         d="m 338.8,430.3 8,0 0,113 -8,0 0,-113 z"
         inkscape:connector-curvature="0"
         style="fill:#26231e" /><path
         id="XMLID_293_"
         class="st0"
         d="m 397.3,531.5 c 0,4 -1.3,7 -4,9.2 -2.7,2.2 -6.6,3.3 -11.7,3.3 -5,0 -8.9,-1.1 -11.6,-3.3 -2.7,-2.2 -4.1,-5.3 -4.1,-9.2 l 0,-89.2 c 0,-4 1.4,-7 4.1,-9.2 2.7,-2.2 6.6,-3.3 11.6,-3.3 5.1,0 9,1.1 11.7,3.3 2.7,2.2 4,5.3 4,9.2 l 0,89.2 z m -8,-89.1 c 0,-2.3 -0.7,-4 -2.1,-5.2 -1.4,-1.2 -3.3,-1.8 -5.6,-1.8 -2.3,0 -4.2,0.6 -5.6,1.8 -1.4,1.2 -2.1,2.9 -2.1,5.2 l 0,88.9 c 0,2.3 0.7,4 2.1,5.2 1.4,1.2 3.3,1.8 5.6,1.8 2.3,0 4.2,-0.6 5.6,-1.8 1.4,-1.2 2.1,-2.9 2.1,-5.2 l 0,-88.9 z"
         inkscape:connector-curvature="0"
         style="fill:#26231e" /></g><g
       id="XMLID_5_"><path
         id="XMLID_10_"
         class="st0"
         d="m 230.4,496.5 c -3.1,-4.8 -5.5,-9.1 -7.1,-12.8 -1.2,-2.5 -1.9,-4.7 -2.3,-6.4 -0.4,-1.8 -0.6,-3.5 -0.6,-5.2 0,-2.5 0.5,-5 1.6,-7.3 1.1,-2.3 2.6,-4.1 4.7,-5.3 2,-1.2 4.3,-1.8 6.8,-1.8 1.7,0 3.4,0.3 5.1,0.9 0.6,0.2 3.5,1.5 5.8,2.5 1.8,0.8 4,0.1 5,-1.6 l 0,-0.1 c 1.1,-2 0.4,-4.5 -1.7,-5.5 -2.8,-1.4 -6.9,-3.1 -10.7,-4.1 -2,-0.5 -3.9,-0.6 -5.7,-0.6 -2.7,0 -5.3,0.4 -7.7,1.3 -2.5,0.9 -4.6,2.4 -6.5,4.4 -1.9,2.1 -3.3,4.4 -4.3,7.2 -1,2.7 -1.4,5.4 -1.4,8.1 0,2.8 0.5,5.8 1.4,8.9 0.9,3.1 2.6,7.1 5.1,11.8 -3.8,2.8 -6.8,5.3 -9,7.4 -2.2,2.1 -4,4.4 -5.3,6.7 -1.4,2.4 -2.3,4.7 -2.9,7.1 -0.5,2.4 -0.8,4.8 -0.8,7.2 0,4.8 1,9.2 3.1,13.2 2,4 5,7 8.9,9.1 3.9,2.1 8.3,3.1 13.2,3.1 2.2,0 4.3,-0.2 6.3,-0.6 2.1,-0.4 3.9,-0.9 5.5,-1.6 1.6,-0.7 3.1,-1.5 4.4,-2.4 1.3,-0.9 2.4,-1.9 3.3,-2.7 0.9,-0.9 1.9,-2 3.2,-3.3 l 7.6,9.2 c 2,-0.1 3.8,-0.1 5.3,-0.1 1.3,0 3.1,0 5.6,0.1 -1.9,-2.4 -25.9,-33.1 -27,-34.6 -3.3,-4 -6.2,-8.1 -8.9,-12.2 z m 9.6,34.4 c -0.8,0.9 -1.9,1.8 -3.3,2.7 -1.4,0.9 -3,1.5 -4.9,2.1 -1.9,0.5 -3.8,0.8 -5.8,0.8 -3.4,0 -6.5,-0.7 -9.2,-2.1 -2.7,-1.4 -4.8,-3.5 -6.2,-6.1 -1.5,-2.7 -2.2,-5.6 -2.2,-8.9 0,-1.6 0.2,-3.2 0.5,-4.8 0.3,-1.6 1,-3.3 2.1,-5.1 1,-1.8 2.4,-3.5 4,-5.1 1.6,-1.6 3.9,-3.5 6.8,-5.8 3.3,5.2 6.6,9.9 9.7,14.3 3.2,4.4 6.9,9.2 11.3,14.6 -1,1.3 -2,2.5 -2.8,3.4 z"
         inkscape:connector-curvature="0"
         style="fill:#26231e" /><path
         id="XMLID_14_"
         class="st0"
         d="m 234.5,487 c -1,3.5 2.8,6.6 6.1,5.4 3.7,-1.4 7.8,-4 11.1,-7.2 7.2,-6.9 7.8,-17.9 7.8,-17.9 0,0 -11,0.2 -18.2,7.1 -3.4,3.3 -5.6,8.3 -6.8,12.6 z"
         inkscape:connector-curvature="0"
         style="fill:#26231e" /><path
         id="XMLID_15_"
         class="st0"
         d="m 246.6,493.4 c -3.9,1.4 -3.9,7 0.1,8.4 2.1,0.7 4.4,1.3 6.7,1.5 7.4,0.6 13.8,-4.6 13.8,-4.6 0,0 -5.6,-6 -13,-6.6 -2.6,-0.2 -5.2,0.4 -7.6,1.3 z"
         inkscape:connector-curvature="0"
         style="fill:#26231e" /></g></g></svg>