<?xml version="1.0" encoding="utf-8"?>
<!-- Generator: Adobe Illustrator 19.0.0, SVG Export Plug-In . SVG Version: 6.00 Build 0)  -->
<svg version="1.1" id="Calque_1" xmlns="http://www.w3.org/2000/svg" xmlns:xlink="http://www.w3.org/1999/xlink" x="0px" y="0px"
	 viewBox="0 0 595.3 841.9" style="enable-background:new 0 0 595.3 841.9;" xml:space="preserve">
<style type="text/css">
	.st0{fill:#26231E;}
</style>
<g id="XMLID_64_">
	<path id="XMLID_2_" class="st0" d="M465.1,592.8H131.7V254.4h333.5V592.8z M133.9,590.6h329V256.6h-329V590.6z"/>
</g>
<g id="XMLID_8_">
	<g id="XMLID_292_">
		<path id="XMLID_310_" class="st0" d="M199.8,302.3h15.5c4.4,0,8,1,10.8,2.9c2.8,1.9,4.2,5.1,4.2,9.5v32.7c0,2.7-0.8,4.8-2.3,6.3
			c-1.5,1.5-3.4,2.6-5.8,3.2c2.4,0.5,4.5,1.6,6.3,3.2c1.7,1.6,2.6,4.1,2.6,7.4V403c0,4.4-1.3,7.5-4,9.5c-2.7,1.9-6.1,2.9-10.1,2.9
			h-17.3V302.3z M214.8,354.5c3,0,5-0.8,6-2.3c1-1.6,1.5-3.2,1.5-5v-32.7c0-2.3-0.5-3.9-1.6-4.9c-1-1-3.1-1.5-6.3-1.5h-6.6v46.5
			H214.8z M207.8,360.1v49.6h6.6c3.3,0,5.5-0.5,6.8-1.6c1.3-1,1.9-2.6,1.9-4.7v-35.7c0-5.1-2.8-7.7-8.4-7.7H207.8z"/>
		<path id="XMLID_308_" class="st0" d="M249.9,302.3h24.8v5.6h-16.8v46.5h15.7v5.6h-15.7v49.6h18v5.6h-26V302.3z"/>
		<path id="XMLID_306_" class="st0" d="M290.3,302.3h8v107.4h18.2v5.6h-26.2V302.3z"/>
		<path id="XMLID_304_" class="st0" d="M330.6,302.3h8v107.4h18.2v5.6h-26.2V302.3z"/>
		<path id="XMLID_302_" class="st0" d="M371,302.3h24.8v5.6H379v46.5h15.7v5.6H379v49.6h18v5.6h-26V302.3z"/>
		<path id="XMLID_298_" class="st0" d="M288.1,430.3h15.5c4.4,0,8,1,10.8,2.9c2.8,1.9,4.2,5.1,4.2,9.5v32.7c0,2.7-0.8,4.8-2.3,6.3
			c-1.5,1.5-3.4,2.6-5.8,3.2c2.4,0.5,4.5,1.6,6.3,3.2c1.7,1.6,2.6,4.1,2.6,7.4V531c0,4.4-1.3,7.5-4,9.5c-2.7,1.9-6.1,2.9-10.1,2.9
			h-17.3V430.3z M303.1,482.5c3,0,5-0.8,6-2.3c1-1.6,1.5-3.2,1.5-5v-32.7c0-2.3-0.5-3.9-1.6-4.9c-1-1-3.1-1.5-6.3-1.5h-6.6v46.5
			H303.1z M296.2,488.1v49.6h6.6c3.3,0,5.5-0.5,6.8-1.6c1.3-1,1.9-2.6,1.9-4.7v-35.7c0-5.1-2.8-7.7-8.4-7.7H296.2z"/>
		<path id="XMLID_296_" class="st0" d="M338.8,430.3h8v113h-8V430.3z"/>
		<path id="XMLID_293_" class="st0" d="M397.3,531.5c0,4-1.3,7-4,9.2c-2.7,2.2-6.6,3.3-11.7,3.3c-5,0-8.9-1.1-11.6-3.3
			c-2.7-2.2-4.1-5.3-4.1-9.2v-89.2c0-4,1.4-7,4.1-9.2c2.7-2.2,6.6-3.3,11.6-3.3c5.1,0,9,1.1,11.7,3.3s4,5.3,4,9.2V531.5z
			 M389.3,442.4c0-2.3-0.7-4-2.1-5.2c-1.4-1.2-3.3-1.8-5.6-1.8c-2.3,0-4.2,0.6-5.6,1.8c-1.4,1.2-2.1,2.9-2.1,5.2v88.9
			c0,2.3,0.7,4,2.1,5.2c1.4,1.2,3.3,1.8,5.6,1.8c2.3,0,4.2-0.6,5.6-1.8c1.4-1.2,2.1-2.9,2.1-5.2V442.4z"/>
	</g>
	<g id="XMLID_5_">
		<path id="XMLID_10_" class="st0" d="M230.4,496.5c-3.1-4.8-5.5-9.1-7.1-12.8c-1.2-2.5-1.9-4.7-2.3-6.4c-0.4-1.8-0.6-3.5-0.6-5.2
			c0-2.5,0.5-5,1.6-7.3c1.1-2.3,2.6-4.1,4.7-5.3c2-1.2,4.3-1.8,6.8-1.8c1.7,0,3.4,0.3,5.1,0.9c0.6,0.2,3.5,1.5,5.8,2.5
			c1.8,0.8,4,0.1,5-1.6l0-0.1c1.1-2,0.4-4.5-1.7-5.5c-2.8-1.4-6.9-3.1-10.7-4.1c-2-0.5-3.9-0.6-5.7-0.6c-2.7,0-5.3,0.4-7.7,1.3
			c-2.5,0.9-4.6,2.4-6.5,4.4c-1.9,2.1-3.3,4.4-4.3,7.2c-1,2.7-1.4,5.4-1.4,8.1c0,2.8,0.5,5.8,1.4,8.9c0.9,3.1,2.6,7.1,5.1,11.8
			c-3.8,2.8-6.8,5.3-9,7.4c-2.2,2.1-4,4.4-5.3,6.7c-1.4,2.4-2.3,4.7-2.9,7.1c-0.5,2.4-0.8,4.8-0.8,7.2c0,4.8,1,9.2,3.1,13.2
			c2,4,5,7,8.9,9.1c3.9,2.1,8.3,3.1,13.2,3.1c2.2,0,4.3-0.2,6.3-0.6c2.1-0.4,3.9-0.9,5.5-1.6c1.6-0.7,3.1-1.5,4.4-2.4
			c1.3-0.9,2.4-1.9,3.3-2.7c0.9-0.9,1.9-2,3.2-3.3l7.6,9.2c2-0.1,3.8-0.1,5.3-0.1c1.3,0,3.1,0,5.6,0.1c-1.9-2.4-25.9-33.1-27-34.6
			C236,504.7,233.1,500.6,230.4,496.5z M240,530.9c-0.8,0.9-1.9,1.8-3.3,2.7c-1.4,0.9-3,1.5-4.9,2.1c-1.9,0.5-3.8,0.8-5.8,0.8
			c-3.4,0-6.5-0.7-9.2-2.1c-2.7-1.4-4.8-3.5-6.2-6.1c-1.5-2.7-2.2-5.6-2.2-8.9c0-1.6,0.2-3.2,0.5-4.8c0.3-1.6,1-3.3,2.1-5.1
			c1-1.8,2.4-3.5,4-5.1c1.6-1.6,3.9-3.5,6.8-5.8c3.3,5.2,6.6,9.9,9.7,14.3c3.2,4.4,6.9,9.2,11.3,14.6
			C241.8,528.8,240.8,530,240,530.9z"/>
		<path id="XMLID_14_" class="st0" d="M234.5,487c-1,3.5,2.8,6.6,6.1,5.4c3.7-1.4,7.8-4,11.1-7.2c7.2-6.9,7.8-17.9,7.8-17.9
			s-11,0.2-18.2,7.1C237.9,477.7,235.7,482.7,234.5,487z"/>
		<path id="XMLID_15_" class="st0" d="M246.6,493.4c-3.9,1.4-3.9,7,0.1,8.4c2.1,0.7,4.4,1.3,6.7,1.5c7.4,0.6,13.8-4.6,13.8-4.6
			s-5.6-6-13-6.6C251.6,491.9,249,492.5,246.6,493.4z"/>
	</g>
</g>
</svg>
